<svg width="516" height="516" viewBox="0 0 516 516" fill="none" xmlns="http://www.w3.org/2000/svg">
<circle cx="258" cy="258" r="256" fill="#233428"/>
<path d="M202.784 172.5C209.16 172.5 213.475 177.197 217.262 185.479C219.122 189.544 220.737 194.226 222.366 199.165C222.647 200.017 222.928 200.877 223.212 201.743C224.555 205.847 225.935 210.063 227.467 214.054C227.935 215.273 228.01 216.248 227.884 217.065C227.757 217.892 227.4 218.712 226.779 219.575C225.471 221.397 223.254 223.083 220.468 225.068C220.229 225.238 219.986 225.41 219.741 225.584C217.27 227.337 214.489 229.309 212.303 231.625C209.837 234.239 207.913 237.505 207.913 241.719C207.913 248.198 211.752 254.796 216.957 260.994C222.233 267.275 229.29 273.58 236.475 279.507C237.516 280.366 238.581 281.252 239.667 282.155C245.827 287.278 252.626 292.933 259.278 297.177C263.203 299.682 267.19 301.773 271.079 302.985C274.971 304.197 278.919 304.578 282.648 303.456C284.086 303.023 285.17 301.969 285.963 300.988C286.791 299.962 287.555 298.691 288.269 297.372C288.974 296.068 289.687 294.612 290.4 293.154L290.443 293.065C291.18 291.559 291.925 290.038 292.715 288.563C294.32 285.563 295.974 283.024 297.79 281.433C299.493 279.941 301.163 279.409 303.174 279.983C306.952 281.06 310.948 282.003 314.866 282.927L315.432 283.06C319.556 284.033 323.581 284.993 327.303 286.096C334.925 288.353 340.528 291.019 343.107 294.843C345.724 298.724 346.04 303.253 344.803 308.047C343.556 312.879 340.765 317.793 337.477 322.068C334.434 326.023 332.052 328.598 329.343 330.525C326.653 332.44 323.493 333.821 318.759 335.149C312.659 336.859 308.117 337.555 303.623 337.497C299.1 337.438 294.495 336.615 288.228 335.124C274.692 331.904 264.351 325.833 252.493 318.872C250.381 317.632 248.221 316.364 245.986 315.079C231.632 306.823 224.026 301.234 212.151 289.745C204.083 281.938 199.837 277.286 193.38 268.197C186.211 258.106 182.479 252.205 178.101 240.822C177.81 240.066 177.522 239.321 177.238 238.585C172.782 227.064 169.233 217.887 170.931 206.219C171.65 201.28 172.594 198.135 174.082 195.33C175.598 192.47 177.746 189.824 181.148 185.924C184.532 182.043 188.477 178.642 192.367 176.229C196.308 173.784 199.953 172.5 202.784 172.5Z" stroke="white" stroke-width="5"/>
<path d="M431.5 251.585C431.5 347.172 353.827 424.67 258 424.67C229.152 424.67 201.955 417.648 178.027 405.227C175.735 404.037 173.034 403.697 170.224 403.84C167.401 403.985 164.289 404.626 161.031 405.576C154.523 407.473 147.078 410.711 139.612 414.193C136.712 415.546 133.819 416.93 130.963 418.297C126.382 420.49 121.894 422.638 117.616 424.54C111.905 427.079 106.835 429.054 102.753 430.031C102.726 428.8 102.811 427.368 103.013 425.736C103.364 422.9 104.045 419.625 104.958 416.041C106.723 409.106 109.297 401.225 111.847 393.415L112.115 392.593C114.734 384.573 117.305 376.642 118.805 370.161C119.554 366.924 120.063 363.936 120.154 361.416C120.241 359.012 119.975 356.499 118.627 354.689C97.1847 325.889 84.5 290.218 84.5 251.585C84.5 155.998 162.173 78.5 258 78.5C353.827 78.5 431.5 155.998 431.5 251.585Z" stroke="white" stroke-width="5"/>
</svg>
