<svg class="Media-sc-1ox6kkd-0 bWjEut" viewBox="0 0 192 23" fill="none" xmlns="http://www.w3.org/2000/svg">
    <path fill-rule="evenodd" clip-rule="evenodd"
          d="M189.771 20.4243C189.686 19.77 189.645 19.0862 189.645 18.3707V10.1313C189.645 9.17184 189.423 8.40053 188.981 7.81849C188.538 7.23644 187.969 6.78241 187.274 6.45528C186.579 6.12925 185.809 5.90825 184.967 5.79666C184.123 5.68397 183.291 5.62817 182.469 5.62817C181.562 5.62817 180.661 5.7157 179.766 5.88856C178.87 6.06252 178.064 6.35354 177.348 6.76162C176.631 7.1708 176.041 7.71127 175.578 8.38521C175.114 9.05806 174.851 9.90705 174.788 10.9278H179.277C179.361 10.069 179.656 9.4563 180.161 9.08869C180.667 8.72109 181.362 8.53728 182.248 8.53728C182.648 8.53728 183.023 8.56245 183.37 8.61277C183.718 8.6642 184.023 8.76704 184.287 8.92021C184.55 9.07337 184.761 9.28781 184.92 9.56351C185.078 9.83922 185.157 10.2112 185.157 10.6806C185.178 11.1291 185.04 11.4727 184.746 11.7068C184.451 11.942 184.051 12.1214 183.545 12.2429C183.041 12.3654 182.46 12.4573 181.807 12.5186C181.154 12.5809 180.491 12.6619 179.816 12.7647C179.14 12.8676 178.473 13.0043 177.808 13.1783C177.145 13.3522 176.555 13.6115 176.039 13.9595C175.522 14.3063 175.101 14.7712 174.775 15.3522C174.448 15.9353 174.285 16.6749 174.285 17.5731C174.285 18.3904 174.427 19.0961 174.712 19.688C174.996 20.2798 175.392 20.77 175.897 21.1584C176.403 21.5468 176.992 21.8312 177.666 22.015C178.34 22.1988 179.067 22.2907 179.848 22.2907C180.86 22.2907 181.85 22.1485 182.819 21.863C183.788 21.5763 184.631 21.0763 185.348 20.3608C185.37 20.6267 185.406 20.8871 185.459 21.1431C185.512 21.3991 185.579 21.6474 185.664 21.8936H190.216C190.002 21.5676 189.856 21.0785 189.771 20.4243ZM185.157 15.7679C185.157 16.013 185.13 16.339 185.078 16.7482C185.025 17.1574 184.883 17.56 184.652 17.9583C184.419 18.3554 184.062 18.6978 183.577 18.9845C183.091 19.2711 182.407 19.4144 181.522 19.4144C181.165 19.4144 180.817 19.3838 180.479 19.3225C180.142 19.2602 179.847 19.1541 179.594 18.9998C179.341 18.8466 179.142 18.6388 178.995 18.3718C178.847 18.107 178.774 17.7799 178.774 17.3915C178.774 16.9834 178.847 16.6465 178.995 16.3806C179.142 16.1159 179.337 15.8959 179.58 15.7209C179.822 15.548 180.107 15.4113 180.433 15.3084C180.759 15.2056 181.091 15.1246 181.429 15.0623C181.787 15.001 182.145 14.9507 182.503 14.9091C182.861 14.8675 183.203 14.8172 183.531 14.7559C183.857 14.6936 184.164 14.617 184.447 14.5251C184.731 14.4332 184.969 14.3063 185.158 14.1422V15.7679H185.157Z"
          fill="#F11026"></path>
    <rect x="167.636" y="6.05701" width="4.48836" height="15.8376" fill="#F11026"></rect>
    <rect x="167.636" y="0.0222168" width="4.48836" height="3.58415" fill="#F11026"></rect>
    <path fill-rule="evenodd" clip-rule="evenodd"
          d="M160.326 7.98699H160.261C159.756 7.2113 159.065 6.62379 158.191 6.22555C157.317 5.82731 156.394 5.62819 155.425 5.62819C154.225 5.62819 153.171 5.85794 152.264 6.31745C151.358 6.77695 150.605 7.38525 150.004 8.14016C149.404 8.89615 148.95 9.76921 148.645 10.7604C148.341 11.7517 148.188 12.7779 148.188 13.8391C148.188 14.9419 148.341 16.0043 148.645 17.0239C148.951 18.0458 149.404 18.9495 150.004 19.735C150.605 20.5217 151.369 21.1453 152.296 21.6048C153.223 22.0643 154.298 22.2929 155.519 22.2929C156.594 22.2929 157.559 22.1048 158.411 21.7262C159.265 21.3488 159.954 20.7306 160.481 19.874H160.545V21.8947H164.814V0.0222168H160.326V7.98699ZM160.294 15.8292C160.168 16.4419 159.957 16.9889 159.661 17.4681C159.366 17.9473 158.971 18.3303 158.475 18.6169C157.98 18.9035 157.365 19.0469 156.626 19.0469C155.931 19.0469 155.335 18.8981 154.841 18.6027C154.346 18.3073 153.934 17.9189 153.608 17.4386C153.28 16.9594 153.043 16.4124 152.897 15.7997C152.749 15.187 152.675 14.5754 152.675 13.9617C152.675 13.3074 152.744 12.6794 152.881 12.0766C153.017 11.4749 153.239 10.9399 153.545 10.4694C153.851 9.99897 154.257 9.62152 154.762 9.33487C155.267 9.04932 155.889 8.906 156.626 8.906C157.364 8.906 157.974 9.04932 158.46 9.33487C158.944 9.62152 159.339 9.99459 159.645 10.453C159.951 10.9114 160.167 11.4431 160.293 12.046C160.419 12.6488 160.483 13.2768 160.483 13.931C160.484 14.5831 160.421 15.2166 160.294 15.8292Z"
          fill="#F11026"></path>
    <path fill-rule="evenodd" clip-rule="evenodd"
          d="M145.472 8.50775C144.808 7.63031 143.959 6.93011 142.928 6.41043C141.895 5.88966 140.683 5.62927 139.293 5.62927C138.049 5.62927 136.918 5.84371 135.895 6.27258C134.872 6.70145 133.992 7.28896 133.256 8.03402C132.517 8.78017 131.948 9.66198 131.548 10.6838C131.147 11.7057 130.948 12.8063 130.948 13.9901C130.948 15.2165 131.143 16.339 131.534 17.3598C131.923 18.3817 132.477 19.2591 133.193 19.9943C133.91 20.7295 134.784 21.2962 135.817 21.6956C136.849 22.0927 138.008 22.2918 139.294 22.2918C141.149 22.2918 142.728 21.8837 144.035 21.0676C145.341 20.2514 146.311 18.8926 146.943 16.9922H142.992C142.844 17.4823 142.443 17.9473 141.791 18.386C141.137 18.8248 140.357 19.0458 139.452 19.0458C138.188 19.0458 137.218 18.7296 136.544 18.095C135.869 17.4626 135.501 16.4408 135.439 15.0327H147.229C147.312 13.8063 147.206 12.6335 146.913 11.5088C146.616 10.3863 146.136 9.38519 145.472 8.50775ZM135.438 12.2757C135.459 11.9694 135.527 11.6225 135.643 11.2341C135.759 10.8469 135.959 10.4792 136.244 10.1313C136.528 9.78342 136.907 9.4935 137.382 9.25827C137.856 9.02415 138.451 8.90599 139.167 8.90599C140.264 8.90599 141.08 9.19263 141.617 9.76373C142.155 10.3348 142.529 11.1729 142.739 12.2757H135.438Z"
          fill="#F11026"></path>
    <path fill-rule="evenodd" clip-rule="evenodd"
          d="M128.126 6.91479C127.599 6.46513 126.968 6.1391 126.229 5.93451C125.491 5.72992 124.843 5.62817 123.981 5.62817C122.843 5.62817 121.793 5.89403 120.961 6.42465C120.129 6.95637 119.471 7.56904 118.986 8.26268C118.543 7.2824 117.895 6.59861 117.042 6.21021C116.188 5.82292 115.309 5.62817 114.276 5.62817C113.202 5.62817 112.247 5.85355 111.417 6.30212C110.583 6.75178 109.873 7.38524 109.282 8.20141H109.219V6.05705H104.984V21.8947H109.473V12.7046C109.473 11.9289 109.589 11.3009 109.821 10.8206C110.053 10.3414 110.332 9.97379 110.659 9.71778C110.985 9.46286 111.323 9.28891 111.671 9.197C112.018 9.1051 112.298 9.05806 112.508 9.05806C113.224 9.05806 113.698 9.17512 114.067 9.41035C114.435 9.64557 114.699 9.95738 114.856 10.3447C115.015 10.7331 115.105 11.1565 115.125 11.616C115.145 12.0755 115.156 12.5416 115.156 13.0098V21.8947H119.645V13.0722C119.645 12.5831 119.681 12.0974 119.755 11.6171C119.829 11.1379 119.977 10.709 120.199 10.3305C120.42 9.953 120.725 9.64666 121.116 9.41144C121.506 9.17622 122.087 9.05915 122.719 9.05915C123.351 9.05915 123.697 9.16199 124.068 9.36549C124.436 9.57008 124.716 9.84469 124.905 10.1937C125.095 10.5394 125.211 10.9475 125.253 11.418C125.295 11.8884 125.316 12.3884 125.316 12.919V21.8947H129.806V11.2954C129.806 10.2736 129.658 9.40159 129.362 8.67514C129.064 7.95196 128.653 7.36445 128.126 6.91479Z"
          fill="#F11026"></path>
    <rect x="94.8245" y="15.3303" width="6.77318" height="6.56437" fill="#F11026"></rect>
    <path fill-rule="evenodd" clip-rule="evenodd"
          d="M87.4226 15.8292C87.2747 16.8095 86.9123 17.5906 86.3321 18.1727C85.7519 18.7547 84.9255 19.0468 83.8508 19.0468C83.1555 19.0468 82.5651 18.8926 82.0819 18.5873C81.5965 18.2799 81.2116 17.8871 80.9282 17.4079C80.6437 16.9276 80.4383 16.3915 80.3119 15.7986C80.1854 15.2067 80.1222 14.6257 80.1222 14.0524C80.1222 13.4606 80.1854 12.8621 80.3119 12.2593C80.4383 11.6575 80.6539 11.1061 80.9598 10.6051C81.2657 10.1051 81.6597 9.69699 82.1451 9.3808C82.6294 9.06462 83.23 8.90488 83.9468 8.90488C85.8636 8.90488 86.971 9.81405 87.2657 11.6313H91.6592C91.596 10.6105 91.3442 9.72652 90.9006 8.98147C90.4581 8.23532 89.8846 7.61389 89.178 7.11281C88.4724 6.61173 87.672 6.23975 86.7757 5.99468C85.8805 5.74961 84.9481 5.62708 83.9784 5.62708C82.6509 5.62708 81.4701 5.84151 80.4383 6.27038C79.4054 6.69926 78.5316 7.29661 77.8148 8.06136C77.098 8.8283 76.5561 9.73637 76.187 10.7878C75.8179 11.8424 75.6339 12.9803 75.6339 14.2067C75.6339 15.3905 75.8337 16.478 76.2333 17.4681C76.6329 18.4582 77.1928 19.3116 77.9085 20.026C78.6242 20.7404 79.4934 21.2973 80.5162 21.6956C81.5378 22.0927 82.6599 22.2918 83.8825 22.2918C86.0521 22.2918 87.8335 21.7404 89.2231 20.6376C90.6139 19.5348 91.4571 17.932 91.7518 15.8281H87.4226V15.8292Z"
          fill="white"></path>
    <path fill-rule="evenodd" clip-rule="evenodd"
          d="M72.175 7.91039C71.4379 7.18612 70.5472 6.62377 69.5041 6.22553C68.461 5.82729 67.2972 5.62817 66.0114 5.62817C64.7256 5.62817 63.5663 5.82729 62.5345 6.22553C61.5016 6.62377 60.6166 7.18502 59.8794 7.91039C59.1411 8.63575 58.5722 9.51428 58.1714 10.5449C57.7707 11.5755 57.572 12.7254 57.572 13.9901C57.572 15.257 57.7718 16.4003 58.1714 17.4222C58.5711 18.444 59.14 19.316 59.8794 20.0424C60.6154 20.7667 61.5016 21.3236 62.5345 21.7109C63.5663 22.0982 64.7256 22.2918 66.0114 22.2918C67.2972 22.2918 68.461 22.0982 69.5041 21.7109C70.5472 21.3236 71.4379 20.7667 72.175 20.0424C72.9121 19.3171 73.4811 18.444 73.8818 17.4222C74.2826 16.4003 74.4824 15.257 74.4824 13.9901C74.4824 12.7254 74.2815 11.5755 73.8818 10.5449C73.4822 9.51428 72.9121 8.63575 72.175 7.91039ZM69.8044 15.8456C69.678 16.4485 69.4612 16.9889 69.1564 17.4681C68.8516 17.9473 68.4396 18.3302 67.9237 18.6169C67.4067 18.9035 66.77 19.0468 66.0114 19.0468C65.2528 19.0468 64.6206 18.9035 64.1149 18.6169C63.6092 18.3302 63.2028 17.9484 62.898 17.4681C62.5921 16.9889 62.3765 16.4474 62.25 15.8456C62.1236 15.2439 62.0604 14.6257 62.0604 13.9912C62.0604 13.3588 62.1236 12.7363 62.25 12.1236C62.3765 11.5099 62.5921 10.9694 62.898 10.5C63.2039 10.0296 63.6092 9.64776 64.1149 9.35127C64.6195 9.05478 65.2528 8.90708 66.0114 8.90708C66.77 8.90708 67.4067 9.05587 67.9237 9.35127C68.4396 9.64776 68.8505 10.0296 69.1564 10.5C69.4623 10.9705 69.678 11.5109 69.8044 12.1236C69.9297 12.7363 69.994 13.3588 69.994 13.9912C69.994 14.6246 69.9297 15.2428 69.8044 15.8456Z"
          fill="white"></path>
    <path fill-rule="evenodd" clip-rule="evenodd"
          d="M51.834 7.98699H51.7697C51.2639 7.2113 50.5731 6.62379 49.6993 6.22555C48.8256 5.82731 47.9022 5.62819 46.9336 5.62819C45.7336 5.62819 44.6793 5.85794 43.7728 6.31745C42.8663 6.77695 42.1134 7.38525 41.5128 8.14016C40.9123 8.89615 40.4585 9.76921 40.1537 10.7604C39.8489 11.7517 39.6965 12.7779 39.6965 13.8391C39.6965 14.9419 39.8489 16.0043 40.1537 17.0239C40.4596 18.0458 40.9123 18.9495 41.5128 19.735C42.1134 20.5217 42.8776 21.1453 43.8044 21.6048C44.7312 22.0643 45.8059 22.2929 47.0273 22.2929C48.102 22.2929 49.0672 22.1048 49.9195 21.7262C50.7729 21.3488 51.4626 20.7306 51.9898 19.874H52.053V21.8947H56.3201V0.0222168H51.8318V7.98699H51.834ZM51.8024 15.8292C51.676 16.4419 51.4649 16.9889 51.1691 17.4681C50.8745 17.9473 50.4794 18.3303 49.9838 18.6169C49.4882 18.9035 48.873 19.0469 48.1347 19.0469C47.4393 19.0469 46.8433 18.8981 46.3489 18.6027C45.8544 18.3073 45.4424 17.9189 45.1161 17.4386C44.7888 16.9594 44.5517 16.4124 44.405 15.7997C44.2571 15.187 44.1837 14.5754 44.1837 13.9617C44.1837 13.3074 44.2526 12.6794 44.3892 12.0766C44.5258 11.4749 44.747 10.9399 45.0529 10.4694C45.3589 9.99897 45.7652 9.62152 46.2698 9.33487C46.7756 9.04932 47.3976 8.906 48.1347 8.906C48.8719 8.906 49.4826 9.04932 49.968 9.33487C50.4523 9.62152 50.8474 9.99459 51.1533 10.453C51.4592 10.9114 51.6748 11.4431 51.8013 12.046C51.9277 12.6488 51.9909 13.2768 51.9909 13.931C51.9921 14.5831 51.9288 15.2166 51.8024 15.8292Z"
          fill="white"></path>
    <path fill-rule="evenodd" clip-rule="evenodd"
          d="M34.9677 1.30884H30.4793V5.48378V5.49034C28.5038 5.49034 27.1492 5.48378 25.9639 5.87327C25.4401 6.04503 24.9422 6.26713 24.4794 6.56252C24.0155 6.85902 23.6045 7.21677 23.2456 7.63471C22.8877 8.05373 22.6032 8.50777 22.3921 8.99791H22.3289V6.05707H18.0618V21.8947H22.5513V15.9802C22.531 14.9091 22.601 14.0175 22.7184 13.3993C23.0006 11.9245 23.9647 10.8425 24.6589 10.3906C26.0937 9.45522 27.4811 9.0734 30.4793 9.313V18.3117C30.4793 19.1081 30.6159 19.7503 30.8902 20.2416C31.1634 20.7306 31.5371 21.1092 32.0112 21.3739C32.4853 21.6398 33.0328 21.8181 33.6548 21.91C34.2768 22.0019 34.9361 22.049 35.6303 22.049C36.074 22.049 36.5266 22.038 36.9895 22.0172C37.4523 21.9976 37.8745 21.9571 38.2538 21.8958V18.5261C38.0427 18.5666 37.8214 18.5983 37.59 18.618C37.3575 18.6399 37.1159 18.6486 36.863 18.6486C36.1033 18.6486 35.5987 18.5261 35.3447 18.2799C35.0919 18.036 34.9654 17.5447 34.9654 16.8095V9.313H38.9458V5.48378H34.9677V1.30884Z"
          fill="white"></path>
    <path fill-rule="evenodd" clip-rule="evenodd"
          d="M15.3604 18.3707V10.1313C15.3604 9.17184 15.1392 8.40053 14.6967 7.81849C14.2542 7.23644 13.6852 6.78241 12.9898 6.45528C12.2945 6.12925 11.5246 5.90825 10.6824 5.79666C9.8403 5.68507 9.0072 5.62817 8.18652 5.62817C7.28004 5.62817 6.37808 5.7157 5.48289 5.88856C4.5877 6.06142 3.78169 6.35354 3.06486 6.76162C2.34804 7.1708 1.7599 7.71127 1.29481 8.38521C0.830843 9.05806 0.567818 9.90705 0.504602 10.9278H4.99409C5.07763 10.069 5.37339 9.45739 5.87799 9.08979C6.38372 8.72218 7.0791 8.53838 7.96526 8.53838C8.36488 8.53838 8.74079 8.56354 9.08622 8.61387C9.43504 8.66529 9.73983 8.76813 10.0029 8.9213C10.2659 9.07447 10.477 9.2889 10.6362 9.56461C10.7942 9.84031 10.8732 10.2123 10.8732 10.6816C10.8935 11.1302 10.7558 11.4737 10.4623 11.7079C10.1665 11.9431 9.76693 12.1225 9.2612 12.244C8.75659 12.3665 8.17636 12.4584 7.52387 12.5197C6.86913 12.582 6.20536 12.663 5.53143 12.7658C4.85637 12.8687 4.18808 13.0054 3.52431 13.1794C2.86054 13.3533 2.27127 13.6126 1.75538 13.9605C1.23836 14.3074 0.817297 14.7723 0.491056 15.3533C0.163685 15.9375 0 16.676 0 17.5753C0 18.3926 0.141108 19.0983 0.425582 19.6902C0.710055 20.282 1.10629 20.7722 1.61202 21.1606C2.11662 21.5479 2.70814 21.8334 3.38207 22.0172C4.05601 22.201 4.78187 22.2929 5.56304 22.2929C6.5745 22.2929 7.56451 22.1507 8.53421 21.8651C9.50277 21.5785 10.346 21.0785 11.0629 20.363C11.0843 20.6289 11.1204 20.8892 11.1735 21.1453C11.2265 21.4013 11.2943 21.6496 11.3789 21.8958H15.9305C15.7194 21.5687 15.5727 21.0796 15.488 20.4254C15.4033 19.7711 15.3604 19.0873 15.3604 18.3707ZM10.8732 15.7679C10.8732 16.013 10.8461 16.339 10.7942 16.7482C10.7411 17.1574 10.5989 17.56 10.3675 17.9583C10.1361 18.3554 9.77709 18.6978 9.2928 18.9845C8.80739 19.2711 8.1233 19.4144 7.2394 19.4144C6.88042 19.4144 6.53273 19.3838 6.1952 19.3225C5.85767 19.2602 5.56304 19.1541 5.31017 18.9998C5.05731 18.8466 4.8575 18.6388 4.71075 18.3718C4.56286 18.107 4.48949 17.7799 4.48949 17.3915C4.48949 16.9834 4.56286 16.6465 4.71075 16.3806C4.8575 16.1159 5.05279 15.8959 5.2955 15.7209C5.5382 15.548 5.82268 15.4113 6.14892 15.3084C6.47516 15.2056 6.80817 15.1246 7.1457 15.0623C7.50243 15.001 7.8614 14.9507 8.21925 14.9091C8.5771 14.8675 8.92028 14.8172 9.24652 14.7559C9.57276 14.6936 9.87981 14.617 10.1632 14.5251C10.4465 14.4332 10.6847 14.3063 10.8743 14.1422V15.7679H10.8732Z"
          fill="white"></path>
</svg>