<svg width="100" height="40" viewBox="0 0 130 56" fill="none" xmlns="http://www.w3.org/2000/svg">
    <path fill-rule="evenodd" clip-rule="evenodd" d="M30.9675 0.112061H53.0032C53.9396 0.112061 54.6575 0.832727 54.6575 1.77273V23.8941C54.6575 24.8341 53.9396 25.5547 53.0032 25.5547H30.9675C30.0311 25.5547 29.3132 24.8341 29.3132 23.8941V1.77273C29.3132 0.832727 30.0311 0.112061 30.9675 0.112061Z" fill="#1A8B32"/>
    <path fill-rule="evenodd" clip-rule="evenodd" d="M66.9552 6.37865H71.044C73.3849 6.37865 74.8519 7.78865 74.8519 10.0446C74.8519 12.332 73.4473 13.7107 71.1064 13.7107H66.9552V6.37865ZM66.9552 17.1573H70.8255L75.0079 25.5233H80.3452L75.5697 16.4367C78.1604 15.434 79.6585 12.896 79.6585 9.98198C79.6585 5.43865 76.6934 2.71265 71.5122 2.71265H62.2422V25.5547H66.9552V17.1573Z" fill="#1E1C20"/>
    <path fill-rule="evenodd" clip-rule="evenodd" d="M90.7699 10.9848C92.8611 10.9848 94.3281 12.4574 94.4218 14.7448H86.9933C87.1806 12.5201 88.6787 10.9848 90.7699 10.9848ZM94.4842 19.9461C94.0472 21.2934 92.6739 22.1394 90.9884 22.1394C88.5851 22.1394 86.9933 20.4161 86.9933 17.9408V17.5961H98.8539V16.1861C98.8539 10.8908 95.7014 7.53809 90.7387 7.53809C85.6824 7.53809 82.4675 11.1101 82.4675 16.6248C82.4675 22.1707 85.6824 25.5547 90.926 25.5547C95.1084 25.5547 98.1984 23.3301 98.6978 19.9461H94.4842Z" fill="#1E1C20"/>
    <path fill-rule="evenodd" clip-rule="evenodd" d="M101.164 25.2727H105.689V15.34C105.689 13.0214 107.188 11.4234 109.341 11.4234C111.495 11.4234 112.712 12.7394 112.712 15.0267V25.2414H117.238V14.0867C117.238 10.0134 114.928 7.60071 111.12 7.60071C108.467 7.60071 106.563 8.72871 105.596 10.9534H105.502V7.85137H101.164V25.2727Z" fill="#1E1C20"/>
    <path fill-rule="evenodd" clip-rule="evenodd" d="M121.42 3.93469V7.85136H119.111V11.3607H121.42V20.5727C121.42 23.988 122.981 25.3667 126.976 25.3667C127.912 25.3667 128.693 25.2414 129.161 25.1787V21.732C128.88 21.7634 128.443 21.7947 128.037 21.7947C126.601 21.7947 125.977 21.168 125.977 19.8207V11.298H129.13V7.85136H125.977V3.93469H121.42Z" fill="#1E1C20"/>
    <path fill-rule="evenodd" clip-rule="evenodd" d="M72.4485 55.8854C77.7233 55.8854 81.4376 52.7834 81.9682 47.9581H77.5673C77.0991 50.5274 75.1327 52.1254 72.4485 52.1254C68.9839 52.1254 66.7679 49.2428 66.7679 44.6368C66.7679 40.0308 68.9839 37.1794 72.4173 37.1794C75.0391 37.1794 77.0991 38.9028 77.536 41.5974H81.9057C81.5624 36.7408 77.6297 33.4194 72.4173 33.4194C66.1436 33.4194 62.1797 37.6494 62.1797 44.6681C62.2109 51.6554 66.1748 55.8854 72.4485 55.8854Z" fill="#1E1C20"/>
    <path fill-rule="evenodd" clip-rule="evenodd" d="M85.4016 55.5093H89.8025V32.73H85.4016V55.5093Z" fill="#1E1C20"/>
    <path fill-rule="evenodd" clip-rule="evenodd" d="M109.092 38.9027H104.691V48.334C104.691 50.59 103.255 52.0627 101.226 52.0627C99.1973 52.0627 97.9488 50.872 97.9488 48.6474V38.9027H93.5479V49.556C93.5479 53.41 95.9824 55.7287 99.5718 55.7287C102.1 55.7287 103.942 54.5694 104.753 52.47H104.847V55.478H109.06V38.9027H109.092Z" fill="#1E1C20"/>
    <path fill-rule="evenodd" clip-rule="evenodd" d="M121.951 55.6974C126.102 55.6974 128.693 52.47 128.693 47.206C128.693 41.9107 126.133 38.7147 121.951 38.7147C119.61 38.7147 117.769 39.8427 116.832 41.754H116.77V32.73H112.369V55.5094H116.707V52.6894H116.77C117.706 54.5694 119.548 55.6974 121.951 55.6974ZM120.484 42.2553C122.7 42.2553 124.198 44.198 124.198 47.206C124.198 50.1827 122.763 52.1567 120.484 52.1567C118.237 52.1567 116.739 50.1827 116.739 47.2373C116.739 44.2607 118.237 42.2553 120.484 42.2553Z" fill="#1E1C20"/>
    <path fill-rule="evenodd" clip-rule="evenodd" d="M2.53339 0.112061H24.5692C25.5055 0.112061 26.2234 0.832727 26.2234 1.77273V23.8941C26.2234 24.8341 25.5055 25.5547 24.5692 25.5547H2.53339C1.59703 25.5547 0.87915 24.8341 0.87915 23.8941V1.77273C0.87915 0.832727 1.59703 0.112061 2.53339 0.112061Z" fill="#42A6DF"/>
    <path fill-rule="evenodd" clip-rule="evenodd" d="M2.53339 30.3174H24.5692C25.5055 30.3174 26.2234 31.038 26.2234 31.978V54.0993C26.2234 55.0393 25.5055 55.76 24.5692 55.76H2.53339C1.59703 55.76 0.87915 55.0393 0.87915 54.0993V31.978C0.87915 31.038 1.59703 30.3174 2.53339 30.3174Z" fill="#FFAD05"/>
    <path fill-rule="evenodd" clip-rule="evenodd" d="M30.9675 30.3174H53.0032C53.9396 30.3174 54.6575 31.038 54.6575 31.978V54.0993C54.6575 55.0393 53.9396 55.76 53.0032 55.76H30.9675C30.0311 55.76 29.3132 55.0393 29.3132 54.0993V31.978C29.3132 31.038 30.0311 30.3174 30.9675 30.3174Z" fill="#E04C2A"/>
</svg>