<svg enable-background="new 0 0 48 24"
     height="24px"
     version="1.1"
     viewBox="0 0 24 24"
     width="24px"

     xml:space="preserve"
     xmlns="http://www.w3.org/2000/svg" xmlns:xlink="http://www.w3.org/1999/xlink"><g id="Layer_2"/>
    <g id="Layer_3"/>
    <g id="Layer_4"/>
    <g id="Layer_5"/>
    <g id="Layer_6"/>
    <g id="Layer_7"/>
    <g id="Layer_8"/>
    <g id="Layer_9"/>
    <g id="Layer_10"/>
    <g id="Layer_11"/>
    <g id="Layer_12">
        <path d="M20,4H4C2.897,4,2,4.897,2,6v12c0,1.103,0.897,2,2,2h8v-2H4V7.869l7.444,4.963C11.612,12.944,11.806,13,11.999,13   s0.387-0.056,0.555-0.168L20,7.868V12h2V6C22,4.897,21.103,4,20,4z M11.999,10.798L4.803,6h14.395L11.999,10.798z M14,14h2v2h-2V14   z M18,14h4v2h-4V14z M14,18h2v2h-2V18z M18,18h4v2h-4V18z"/></g>
    <g id="Layer_13"/>
    <g id="Layer_14"/>
    <g id="Layer_15"/>
    <g id="Layer_16"/>
    <g id="Layer_17"/>
    <g id="Layer_18"/>
    <g id="Layer_19"/>
    <g id="Layer_20"/>
    <g id="Layer_21"/>
    <g id="Layer_22"/>
    <g id="Layer_23"/>
    <g id="Layer_24"/>
    <g id="Layer_25"/>
    <g id="Layer_26"/>
</svg>