<svg width="162" height="107" fill="none" xmlns="http://www.w3.org/2000/svg"><path fill-rule="evenodd" clip-rule="evenodd" d="M67.649 24.78c-4.029 2.178-7.59 4.314-10.685 6.408-3.418 2.246-6.348 4.541-8.79 6.885-2.539 2.343-4.687 4.736-6.445 7.178a61.411 61.411 0 00-4.98 8.056c.376 0 .75.004 1.121.013 4.345.099 8.317.778 11.916 2.038 3.808 1.367 7.129 3.223 9.96 5.566 2.735 2.442 4.884 5.225 6.446 8.35 1.465 3.223 2.197 6.64 2.197 10.254 0 3.613-.732 6.982-2.197 10.107a25.596 25.596 0 01-6.445 8.35c-2.832 2.344-6.201 4.199-10.108 5.566-3.906 1.367-8.252 2.051-13.037 2.051-5.175 0-9.912-.83-14.209-2.49-4.394-1.66-8.154-4.102-11.279-7.324-3.125-3.125-5.566-6.934-7.324-11.426s-2.637-9.57-2.637-15.235c0-12.792 4.395-25.048 13.184-36.767 8.691-11.621 21.386-21.973 38.085-31.055l16.114 22.998c-.298.16-.594.318-.887.477zm-54.113 6.98c8.8-11.765 21.62-22.203 38.409-31.333L52.729 0l17.274 24.654-.997.532c-4.37 2.33-8.197 4.608-11.482 6.83l-.011.008c-3.377 2.219-6.257 4.477-8.646 6.77l-.007.007-.007.006c-2.497 2.305-4.599 4.648-6.312 7.028l-.004.005a60.367 60.367 0 00-4.135 6.494c4.238.141 8.146.831 11.714 2.08l.008.003c3.906 1.402 7.33 3.312 10.26 5.737l.015.012.014.012c2.824 2.522 5.052 5.405 6.674 8.649l.008.016.007.017c1.526 3.356 2.287 6.915 2.287 10.668 0 3.753-.761 7.268-2.291 10.532l-.006.012a26.595 26.595 0 01-6.694 8.672l-.007.006-.007.005c-2.934 2.428-6.41 4.339-10.414 5.74-4.028 1.41-8.487 2.107-13.368 2.107-5.282 0-10.142-.847-14.566-2.556-4.521-1.709-8.404-4.227-11.634-7.556-3.229-3.23-5.741-7.157-7.544-11.764C1.048 80.1.153 74.895.153 69.127c0-13.04 4.484-25.5 13.383-37.366zm145.226-6.98c-4.028 2.178-7.59 4.314-10.685 6.408-3.418 2.246-6.348 4.541-8.789 6.885-2.539 2.343-4.688 4.736-6.446 7.178a61.525 61.525 0 00-4.98 8.056c.377 0 .75.004 1.122.013 4.344.099 8.316.778 11.915 2.038 3.809 1.367 7.129 3.223 9.961 5.566 2.734 2.442 4.883 5.225 6.445 8.35 1.465 3.223 2.198 6.64 2.198 10.254 0 3.613-.733 6.982-2.198 10.107a25.593 25.593 0 01-6.445 8.35c-2.832 2.344-6.201 4.199-10.107 5.566-3.907 1.367-8.252 2.051-13.037 2.051-5.176 0-9.913-.83-14.209-2.49-4.395-1.66-8.155-4.102-11.28-7.324-3.125-3.125-5.566-6.934-7.324-11.426s-2.637-9.57-2.637-15.235c0-12.792 4.395-25.048 13.184-36.767 8.691-11.621 21.387-21.973 38.086-31.055l16.113 22.998c-.298.16-.594.318-.887.477zm-54.112 6.98c8.8-11.766 21.62-22.203 38.408-31.333l.784-.427 17.274 24.654-.996.532c-4.371 2.33-8.197 4.608-11.483 6.83l-.011.008c-3.377 2.219-6.256 4.477-8.646 6.77l-.007.007-.007.007c-2.497 2.304-4.599 4.647-6.312 7.027l-.004.005a60.228 60.228 0 00-4.135 6.494c4.239.141 8.146.831 11.714 2.08l.008.003c3.907 1.402 7.331 3.312 10.261 5.737l.014.012.014.012c2.824 2.522 5.052 5.405 6.674 8.649l.008.016.008.017c1.525 3.356 2.287 6.915 2.287 10.668 0 3.753-.762 7.268-2.292 10.532l-.006.012a26.596 26.596 0 01-6.694 8.672l-.007.006-.006.005c-2.934 2.428-6.411 4.339-10.415 5.74-4.028 1.41-8.487 2.107-13.367 2.107-5.283 0-10.142-.847-14.566-2.556-4.522-1.709-8.405-4.227-11.635-7.557-3.229-3.23-5.74-7.157-7.543-11.763-1.81-4.626-2.706-9.831-2.706-15.599 0-13.04 4.485-25.501 13.384-37.367z" fill="#fff" fill-opacity=".5"/></svg>