<svg width="40" height="25" fill="none" xmlns="http://www.w3.org/2000/svg">
    <path fill-rule="evenodd" clip-rule="evenodd"
          d="M3.326 7.448C5.513 4.69 8.699 2.241 12.87.1l.195-.1 4.293 5.782-.248.124a32.401 32.401 0 00-2.853 1.602l-.003.002c-.84.52-1.555 1.05-2.148 1.588l-.002.001-.002.002c-.62.54-1.143 1.09-1.569 1.648v.001c-.376.485-.718.992-1.028 1.523 1.053.033 2.024.195 2.911.488h.002c.97.33 1.822.778 2.55 1.346l.003.003.004.003a6.823 6.823 0 011.658 2.028l.002.004.002.004a5.68 5.68 0 01.569 2.502c0 .88-.19 1.704-.57 2.47l-.001.002a6.296 6.296 0 01-1.664 2.034l-.002.002h-.001c-.73.57-1.593 1.018-2.588 1.347-1.001.33-2.11.494-3.322.494-1.313 0-2.52-.199-3.62-.6-1.124-.4-2.088-.99-2.891-1.772-.803-.757-1.427-1.678-1.875-2.758C.222 18.785 0 17.564 0 16.212c0-3.058 1.114-5.98 3.326-8.764zm22.642 0C28.155 4.688 31.34 2.241 35.513.1a.258.258 0 01.325.076L40 5.782l-.248.124A32.43 32.43 0 0036.9 7.508l-.003.002a14.79 14.79 0 00-2.148 1.588l-.002.001-.002.002a11.28 11.28 0 00-1.568 1.648l-.002.001c-.375.485-.717.992-1.027 1.523 1.053.033 2.024.195 2.911.488h.002c.97.33 1.822.778 2.55 1.346l.003.003.004.003a6.823 6.823 0 011.658 2.028l.002.004.002.004a5.68 5.68 0 01.569 2.502c0 .88-.19 1.704-.57 2.47l-.001.002a6.299 6.299 0 01-1.664 2.034l-.002.002h-.001c-.73.57-1.593 1.018-2.588 1.347-1.001.33-2.11.494-3.322.494-1.313 0-2.52-.199-3.62-.6-1.123-.4-2.088-.99-2.891-1.772-.802-.757-1.427-1.678-1.875-2.758-.45-1.085-.672-2.306-.672-3.658 0-3.059 1.114-5.981 3.326-8.764z"
          fill="#5db447"/>
</svg>