<?xml version="1.0" standalone="no"?>
<!DOCTYPE svg PUBLIC "-//W3C//DTD SVG 1.1//EN" "http://www.w3.org/Graphics/SVG/1.1/DTD/svg11.dtd" >
<svg xmlns="http://www.w3.org/2000/svg" xmlns:xlink="http://www.w3.org/1999/xlink" version="1.1">
<metadata>
Created by FontForge 20170731 at Sun Sep  9 20:21:34 2018
 By Aleksey,,,
(c) 1999-2018 Typodermic Fonts Inc.
</metadata>
<defs>
<font id="CoolveticaBk-Regular" horiz-adv-x="495" >
  <font-face 
    font-family="Coolvetica Bk"
    font-weight="400"
    font-stretch="normal"
    units-per-em="1000"
    panose-1="2 11 5 3 3 6 2 2 0 4"
    ascent="800"
    descent="-200"
    x-height="492"
    cap-height="664"
    bbox="-434 -233 1072 919"
    underline-thickness="20"
    underline-position="-203"
    unicode-range="U+0017-FB02"
  />
<missing-glyph horiz-adv-x="452" 
d="M322 0h-193q-97 0 -97 84v488q0 85 97 85h193q98 0 98 -85v-488q0 -84 -98 -84zM368 84v488q0 39 -46 39h-193q-46 0 -46 -39v-488q0 -39 46 -39h193q46 0 46 39z" />
    <glyph glyph-name=".notdef" horiz-adv-x="452" 
d="M322 0h-193q-97 0 -97 84v488q0 85 97 85h193q98 0 98 -85v-488q0 -84 -98 -84zM368 84v488q0 39 -46 39h-193q-46 0 -46 -39v-488q0 -39 46 -39h193q46 0 46 39z" />
    <glyph glyph-name=".null" horiz-adv-x="0" 
 />
    <glyph glyph-name="nonmarkingreturn" horiz-adv-x="333" 
 />
    <glyph glyph-name="uni0017" horiz-adv-x="236" 
 />
    <glyph glyph-name="space" unicode=" " horiz-adv-x="236" 
 />
    <glyph glyph-name="exclam" unicode="!" horiz-adv-x="219" 
d="M160 0h-106v116h106v-116zM135 170h-54q-30 227 -30 408q0 71 3 86h108q3 -51 3 -88q0 -168 -30 -406z" />
    <glyph glyph-name="quotedbl" unicode="&#x22;" horiz-adv-x="268" 
d="M106 414h-76v250h76v-250zM240 414h-76v250h76v-250z" />
    <glyph glyph-name="numbersign" unicode="#" horiz-adv-x="493" 
d="M283 264l16 136h-102l-17 -136h103zM315 0h-68l27 198h-102l-25 -198h-66l24 198h-93l7 66h95l17 136h-94l8 66h94l26 198h65l-25 -198h103l25 198h67l-25 -198h93l-9 -66h-93l-17 -136h94l-8 -66h-94z" />
    <glyph glyph-name="dollar" unicode="$" horiz-adv-x="481" 
d="M261 277v-217q50 2 80 32t30 75q0 90 -110 110zM227 380v201q-51 -2 -78.5 -29t-27.5 -68q0 -45 28.5 -71.5t77.5 -32.5zM261 -55h-34v39q-109 8 -159 58.5t-51 155.5h93q7 -73 33.5 -103t83.5 -35v229q-103 23 -150.5 63t-47.5 122q0 76 54.5 129.5t143.5 54.5v44h34
v-44q90 -3 138.5 -54t53.5 -144h-91q-4 62 -29 90.5t-72 30.5v-210q120 -32 162 -73t42 -122q0 -84 -55.5 -136t-148.5 -56v-39z" />
    <glyph glyph-name="percent" unicode="%" horiz-adv-x="675" 
d="M132 372q60 0 60 137q0 136 -60 136t-60 -136q0 -137 60 -137zM129 331q-109 0 -109 179q0 176 110 176q112 0 112 -175q0 -180 -113 -180zM136 -20h-58l462 704h58zM549 19q60 0 60 137q0 136 -60 136t-60 -136q0 -137 60 -137zM546 -22q-109 0 -109 179q0 176 110 176
q112 0 112 -175q0 -180 -113 -180z" />
    <glyph glyph-name="ampersand" unicode="&#x26;" horiz-adv-x="499" 
d="M376 194v178h96v-178q0 -100 -61 -158.5t-164 -58.5t-164.5 57t-61.5 142q0 59 29 105t75 58q-48 15 -71.5 53.5t-23.5 88.5q0 84 65 133.5t173 49.5v-85q-72 0 -105.5 -26t-33.5 -80q0 -51 32 -76t107 -25v-73q-149 0 -149 -116q0 -55 34 -89.5t97 -34.5q60 0 93 34.5
t33 100.5z" />
    <glyph glyph-name="quotesingle" unicode="'" horiz-adv-x="144" 
d="M106 414h-76v250h76v-250z" />
    <glyph glyph-name="parenleft" unicode="(" horiz-adv-x="308" 
d="M301 -143h-75q-75 93 -115.5 208.5t-40.5 235.5q0 246 156 427h75q-128 -197 -128 -429q0 -233 128 -442z" />
    <glyph glyph-name="parenright" unicode=")" horiz-adv-x="308" 
d="M86 -143h-75q129 208 129 442q0 230 -129 429h75q156 -181 156 -427q0 -120 -40.5 -235.5t-115.5 -208.5z" />
    <glyph glyph-name="asterisk" unicode="*" horiz-adv-x="532" 
d="M438 262l-69 -49l-104 140l-103 -140l-70 49l104 145l-161 51l26 78l158 -51v179h91v-179l158 51l28 -78l-162 -51z" />
    <glyph glyph-name="plus" unicode="+" horiz-adv-x="517" 
d="M486 306h-194v-193h-73v193h-193v73h193v193h73v-193h194v-73z" />
    <glyph glyph-name="comma" unicode="," horiz-adv-x="163" 
d="M26 -134v40q60 15 61 94h-61v119h108v-92q0 -73 -24 -110.5t-84 -50.5z" />
    <glyph glyph-name="hyphen" unicode="-" horiz-adv-x="279" 
d="M258 268h-242v79h242v-79z" />
    <glyph glyph-name="hyphen" unicode="&#xad;" horiz-adv-x="279" 
d="M258 268h-242v79h242v-79z" />
    <glyph glyph-name="period" unicode="." horiz-adv-x="163" 
d="M135 0h-109v119h109v-119z" />
    <glyph glyph-name="slash" unicode="/" horiz-adv-x="298" 
d="M81 0h-83l208 664h84z" />
    <glyph glyph-name="zero" unicode="0" horiz-adv-x="485" 
d="M244 58q60 0 90 65t30 210q0 144 -30 208t-90 64t-90 -63.5t-30 -208.5t30 -210t90 -65zM240 -23q-220 0 -220 358q0 351 221 351q224 0 224 -349q0 -181 -58.5 -270.5t-166.5 -89.5z" />
    <glyph glyph-name="one" unicode="1" horiz-adv-x="270" 
d="M241 0h-100v479h-134v70q85 0 116.5 22.5t35.5 92.5h82v-664z" />
    <glyph glyph-name="two" unicode="2" horiz-adv-x="459" 
d="M448 0h-441q2 102 41.5 169t161.5 152q82 57 110 88.5t28 82.5q0 108 -115 108q-63 0 -91.5 -35t-29.5 -110h-96q0 111 56.5 171t162.5 60q95 0 153 -48.5t58 -143.5q0 -78 -41 -125.5t-150 -123.5q-60 -42 -90.5 -77.5t-34.5 -80.5h318v-87z" />
    <glyph glyph-name="three" unicode="3" horiz-adv-x="473" 
d="M183 310v71q90 0 123.5 27.5t33.5 79.5q0 56 -28 86.5t-77 30.5q-53 0 -84 -35.5t-31 -96.5h-93q0 95 57.5 154t150.5 59q87 0 144.5 -51t57.5 -133q0 -107 -99 -148q56 -16 87.5 -59t31.5 -109q0 -95 -62.5 -152t-163.5 -57q-100 0 -157.5 58.5t-57.5 159.5h97
q0 -67 31.5 -101.5t86.5 -34.5q56 0 90 35t34 98t-40 90.5t-132 27.5z" />
    <glyph glyph-name="four" unicode="4" horiz-adv-x="470" 
d="M288 231v292l-184 -292h184zM386 0h-100v153h-279v87l265 424h114v-433h73v-78h-73v-153z" />
    <glyph glyph-name="five" unicode="5" horiz-adv-x="485" 
d="M134 261h-103l14 403h399v-85h-309l-8 -227q48 71 146 71q88 0 141.5 -55.5t53.5 -153.5q0 -107 -62 -172t-160 -65q-90 0 -151.5 54.5t-65.5 139.5h101q4 -51 33.5 -81.5t81.5 -30.5q60 0 91.5 40t31.5 108q0 134 -116 134q-82 0 -118 -80z" />
    <glyph glyph-name="six" unicode="6" horiz-adv-x="482" 
d="M447 520h-99q-9 85 -93 85q-67 0 -100 -60.5t-38 -188.5q61 78 153 78q83 0 136 -59t53 -160q0 -105 -59 -171.5t-161 -66.5q-221 0 -221 348q0 361 237 361q84 0 133 -43t59 -123zM118 231q1 -81 33.5 -127t90.5 -46q56 0 87.5 42.5t31.5 108.5q0 67 -32 106.5t-84 39.5
q-49 0 -83.5 -34t-43.5 -90z" />
    <glyph glyph-name="seven" unicode="7" horiz-adv-x="472" 
d="M212 0h-103q12 152 76 306t166 269h-344v89h454v-78q-109 -117 -175 -273.5t-74 -312.5z" />
    <glyph glyph-name="eight" unicode="8" horiz-adv-x="488" 
d="M242 59q59 0 90 34.5t31 94.5q0 57 -29.5 89.5t-91.5 32.5q-119 0 -119 -122q0 -60 30 -94.5t89 -34.5zM242 390q53 0 78 30t25 76q0 50 -27.5 79t-75.5 29t-75.5 -29t-27.5 -79q0 -46 25 -76t78 -30zM348 360q55 -16 86.5 -62.5t31.5 -113.5q0 -91 -58.5 -149
t-164.5 -58t-165.5 58t-59.5 148q0 66 32.5 110t89.5 62q-47 15 -70 57.5t-23 92.5q0 80 55.5 130.5t144.5 50.5q88 0 139 -49.5t51 -128.5q0 -51 -22 -92.5t-67 -55.5z" />
    <glyph glyph-name="nine" unicode="9" horiz-adv-x="482" 
d="M30 143h99q9 -86 94 -86q66 0 100 60.5t38 188.5q-60 -77 -153 -77q-84 0 -137 59t-53 160q0 105 59.5 171.5t161.5 66.5q220 0 220 -346q0 -363 -237 -363q-82 0 -131.5 42.5t-60.5 123.5zM359 431q-1 83 -34 128t-89 45t-87.5 -42t-31.5 -109q0 -66 31.5 -105.5
t83.5 -39.5q49 0 84 34t43 89z" />
    <glyph glyph-name="colon" unicode=":" horiz-adv-x="147" 
d="M125 0h-108v119h108v-119zM125 339h-108v118h108v-118z" />
    <glyph glyph-name="semicolon" unicode=";" horiz-adv-x="147" 
d="M16 -134v40q60 15 61 94h-61v119h108v-92q0 -73 -24 -110.5t-84 -50.5zM124 339h-108v118h108v-118z" />
    <glyph glyph-name="less" unicode="&#x3c;" horiz-adv-x="517" 
d="M486 96l-460 210v73l460 211v-81l-378 -166l378 -166v-81z" />
    <glyph glyph-name="equal" unicode="=" horiz-adv-x="517" 
d="M486 206h-460v73h460v-73zM486 407h-460v73h460v-73z" />
    <glyph glyph-name="greater" unicode="&#x3e;" horiz-adv-x="517" 
d="M486 306l-460 -210v81l378 166l-378 166v81l460 -211v-73z" />
    <glyph glyph-name="question" unicode="?" horiz-adv-x="486" 
d="M289 177h-94q0 101 39 155q15 20 49 45t54.5 51.5t20.5 66.5q0 109 -118 109q-113 0 -121 -133h-100q0 99 60 157t159 58q108 0 167.5 -46t59.5 -140q0 -60 -24 -96.5t-78 -73.5q-45 -31 -59.5 -64.5t-14.5 -88.5zM296 0h-105v116h105v-116z" />
    <glyph glyph-name="at" unicode="@" horiz-adv-x="698" 
d="M611 32l26 -49q-80 -66 -275 -66q-165 0 -255 94.5t-90 249.5q0 161 93.5 263t253.5 102q67 0 123.5 -16.5t101 -50t70 -91t25.5 -133.5q0 -124 -51 -193t-116 -69q-37 0 -59.5 17t-25.5 44q-34 -59 -116 -59q-70 0 -105.5 48t-35.5 117q0 98 50.5 162t133.5 64
q87 0 103 -82l15 72h66l-48 -246q-6 -26 -6 -37q0 -31 29 -31q39 0 71 47.5t32 136.5q0 241 -258 241q-129 0 -204.5 -89.5t-75.5 -212.5q0 -135 74 -209.5t210 -74.5q173 0 244 51zM329 142q48 0 79 45.5t31 116.5q0 98 -77 98q-52 0 -83 -41.5t-31 -120.5q0 -98 81 -98z
" />
    <glyph glyph-name="A" unicode="A" horiz-adv-x="633" 
d="M424 237l-110 310l-111 -310h221zM622 0h-116l-51 149h-281l-55 -149h-113l249 664h122z" />
    <glyph glyph-name="A" unicode="&#x410;" horiz-adv-x="633" 
d="M424 237l-110 310l-111 -310h221zM622 0h-116l-51 149h-281l-55 -149h-113l249 664h122z" />
    <glyph glyph-name="A" unicode="&#x391;" horiz-adv-x="633" 
d="M424 237l-110 310l-111 -310h221zM622 0h-116l-51 149h-281l-55 -149h-113l249 664h122z" />
    <glyph glyph-name="B" unicode="B" horiz-adv-x="561" 
d="M129 87h192q62 0 96 31.5t34 85.5q0 52 -31.5 77.5t-87.5 25.5h-203v-220zM321 575h-192v-181h201q102 0 102 92q0 89 -111 89zM313 0h-287v664h314q94 0 144.5 -46.5t50.5 -122.5q0 -56 -26.5 -90t-66.5 -46q113 -33 113 -164q0 -93 -61 -144t-181 -51z" />
    <glyph glyph-name="B" unicode="&#x412;" horiz-adv-x="561" 
d="M129 87h192q62 0 96 31.5t34 85.5q0 52 -31.5 77.5t-87.5 25.5h-203v-220zM321 575h-192v-181h201q102 0 102 92q0 89 -111 89zM313 0h-287v664h314q94 0 144.5 -46.5t50.5 -122.5q0 -56 -26.5 -90t-66.5 -46q113 -33 113 -164q0 -93 -61 -144t-181 -51z" />
    <glyph glyph-name="B" unicode="&#x392;" horiz-adv-x="561" 
d="M129 87h192q62 0 96 31.5t34 85.5q0 52 -31.5 77.5t-87.5 25.5h-203v-220zM321 575h-192v-181h201q102 0 102 92q0 89 -111 89zM313 0h-287v664h314q94 0 144.5 -46.5t50.5 -122.5q0 -56 -26.5 -90t-66.5 -46q113 -33 113 -164q0 -93 -61 -144t-181 -51z" />
    <glyph glyph-name="C" unicode="C" horiz-adv-x="604" 
d="M490 228h107q-22 -117 -95.5 -184t-186.5 -67q-131 0 -214 91t-83 259q0 165 81.5 262t220.5 97q118 0 192.5 -68t84.5 -172h-107q-7 68 -53 107.5t-117 39.5q-94 0 -143.5 -69.5t-49.5 -194.5t49.5 -192t141.5 -67q74 0 117.5 42t54.5 116z" />
    <glyph glyph-name="C" unicode="&#x421;" horiz-adv-x="604" 
d="M490 228h107q-22 -117 -95.5 -184t-186.5 -67q-131 0 -214 91t-83 259q0 165 81.5 262t220.5 97q118 0 192.5 -68t84.5 -172h-107q-7 68 -53 107.5t-117 39.5q-94 0 -143.5 -69.5t-49.5 -194.5t49.5 -192t141.5 -67q74 0 117.5 42t54.5 116z" />
    <glyph glyph-name="D" unicode="D" horiz-adv-x="599" 
d="M130 87h146q95 0 143.5 65t48.5 186t-50.5 179t-154.5 58h-133v-488zM297 0h-271v664h251q134 0 217 -88t83 -241q0 -148 -77.5 -241.5t-202.5 -93.5z" />
    <glyph glyph-name="E" unicode="E" horiz-adv-x="525" 
d="M518 0h-492v664h476v-90h-372v-181h345v-90h-345v-212h388v-91z" />
    <glyph glyph-name="E" unicode="&#x415;" horiz-adv-x="525" 
d="M518 0h-492v664h476v-90h-372v-181h345v-90h-345v-212h388v-91z" />
    <glyph glyph-name="E" unicode="&#x395;" horiz-adv-x="525" 
d="M518 0h-492v664h476v-90h-372v-181h345v-90h-345v-212h388v-91z" />
    <glyph glyph-name="F" unicode="F" horiz-adv-x="499" 
d="M447 292h-314v-292h-107v664h461v-90h-354v-191h314v-91z" />
    <glyph glyph-name="G" unicode="G" horiz-adv-x="650" 
d="M621 0h-89l-2 101q-23 -54 -79 -89t-133 -35q-136 0 -218 104.5t-82 254.5t84 250t233 100q117 0 197 -63t88 -164h-107q-7 60 -58 99t-121 39q-94 0 -150.5 -72.5t-56.5 -188.5q0 -114 54 -191.5t153 -77.5q86 0 136.5 57.5t50.5 138.5h-170v86h270v-349z" />
    <glyph glyph-name="H" unicode="H" horiz-adv-x="579" 
d="M551 0h-108v311h-310v-311h-107v664h107v-263h310v263h108v-664z" />
    <glyph glyph-name="H" unicode="&#x41d;" horiz-adv-x="579" 
d="M551 0h-108v311h-310v-311h-107v664h107v-263h310v263h108v-664z" />
    <glyph glyph-name="H" unicode="&#x397;" horiz-adv-x="579" 
d="M551 0h-108v311h-310v-311h-107v664h107v-263h310v263h108v-664z" />
    <glyph glyph-name="I" unicode="I" horiz-adv-x="161" 
d="M133 0h-107v664h107v-664z" />
    <glyph glyph-name="I" unicode="&#x4cf;" horiz-adv-x="161" 
d="M133 0h-107v664h107v-664z" />
    <glyph glyph-name="I" unicode="&#x4c0;" horiz-adv-x="161" 
d="M133 0h-107v664h107v-664z" />
    <glyph glyph-name="I" unicode="&#x406;" horiz-adv-x="161" 
d="M133 0h-107v664h107v-664z" />
    <glyph glyph-name="I" unicode="&#x399;" horiz-adv-x="161" 
d="M133 0h-107v664h107v-664z" />
    <glyph glyph-name="J" unicode="J" horiz-adv-x="449" 
d="M313 188v476h107v-485q0 -93 -55 -147.5t-156 -54.5q-97 0 -149.5 52.5t-52.5 153.5v68h97v-63q0 -64 25.5 -94t80.5 -30t79 30.5t24 93.5z" />
    <glyph glyph-name="J" unicode="&#x408;" horiz-adv-x="449" 
d="M313 188v476h107v-485q0 -93 -55 -147.5t-156 -54.5q-97 0 -149.5 52.5t-52.5 153.5v68h97v-63q0 -64 25.5 -94t80.5 -30t79 30.5t24 93.5z" />
    <glyph glyph-name="K" unicode="K" horiz-adv-x="588" 
d="M581 0h-130l-216 319l-103 -103v-216h-106v664h106v-319l305 319h139l-265 -266z" />
    <glyph glyph-name="K" unicode="&#x41a;" horiz-adv-x="588" 
d="M581 0h-130l-216 319l-103 -103v-216h-106v664h106v-319l305 319h139l-265 -266z" />
    <glyph glyph-name="K" unicode="&#x39a;" horiz-adv-x="588" 
d="M581 0h-130l-216 319l-103 -103v-216h-106v664h106v-319l305 319h139l-265 -266z" />
    <glyph glyph-name="L" unicode="L" 
d="M483 0h-457v664h107v-571h350v-93z" />
    <glyph glyph-name="M" unicode="M" horiz-adv-x="685" 
d="M654 0h-100v504l-161 -504h-107l-160 503v-503h-100v664h158l158 -529l158 529h154v-664z" />
    <glyph glyph-name="M" unicode="&#x41c;" horiz-adv-x="685" 
d="M654 0h-100v504l-161 -504h-107l-160 503v-503h-100v664h158l158 -529l158 529h154v-664z" />
    <glyph glyph-name="M" unicode="&#x39c;" horiz-adv-x="685" 
d="M654 0h-100v504l-161 -504h-107l-160 503v-503h-100v664h158l158 -529l158 529h154v-664z" />
    <glyph glyph-name="N" unicode="N" horiz-adv-x="583" 
d="M554 0h-99l-329 497v-497h-100v664h114l314 -483v483h100v-664z" />
    <glyph glyph-name="N" unicode="&#x39d;" horiz-adv-x="583" 
d="M554 0h-99l-329 497v-497h-100v664h114l314 -483v483h100v-664z" />
    <glyph glyph-name="O" unicode="O" horiz-adv-x="660" 
d="M327 68q96 0 151 64.5t55 194.5q0 127 -52.5 195.5t-151.5 68.5t-152 -69t-53 -197t53 -192.5t150 -64.5zM331 -23q-151 0 -232 90.5t-81 258.5q0 170 81.5 265t230.5 95q148 0 228.5 -95.5t80.5 -267.5q0 -170 -80 -258t-228 -88z" />
    <glyph glyph-name="O" unicode="&#x41e;" horiz-adv-x="660" 
d="M327 68q96 0 151 64.5t55 194.5q0 127 -52.5 195.5t-151.5 68.5t-152 -69t-53 -197t53 -192.5t150 -64.5zM331 -23q-151 0 -232 90.5t-81 258.5q0 170 81.5 265t230.5 95q148 0 228.5 -95.5t80.5 -267.5q0 -170 -80 -258t-228 -88z" />
    <glyph glyph-name="O" unicode="&#x39f;" horiz-adv-x="660" 
d="M327 68q96 0 151 64.5t55 194.5q0 127 -52.5 195.5t-151.5 68.5t-152 -69t-53 -197t53 -192.5t150 -64.5zM331 -23q-151 0 -232 90.5t-81 258.5q0 170 81.5 265t230.5 95q148 0 228.5 -95.5t80.5 -267.5q0 -170 -80 -258t-228 -88z" />
    <glyph glyph-name="P" unicode="P" horiz-adv-x="527" 
d="M133 0h-107v664h287q93 0 150 -61.5t57 -152.5t-56.5 -148.5t-150.5 -57.5h-180v-244zM133 331h164q63 0 96 33t33 88t-33 89t-96 34h-164v-244z" />
    <glyph glyph-name="P" unicode="&#x420;" horiz-adv-x="527" 
d="M133 0h-107v664h287q93 0 150 -61.5t57 -152.5t-56.5 -148.5t-150.5 -57.5h-180v-244zM133 331h164q63 0 96 33t33 88t-33 89t-96 34h-164v-244z" />
    <glyph glyph-name="P" unicode="&#x3a1;" horiz-adv-x="527" 
d="M133 0h-107v664h287q93 0 150 -61.5t57 -152.5t-56.5 -148.5t-150.5 -57.5h-180v-244zM133 331h164q63 0 96 33t33 88t-33 89t-96 34h-164v-244z" />
    <glyph glyph-name="Q" unicode="Q" horiz-adv-x="661" 
d="M557 -14h94q0 -98 -52.5 -158.5t-135.5 -60.5q-86 0 -132 63.5t-48 153.5q-128 13 -196.5 100t-68.5 241q0 170 81.5 265.5t229.5 95.5t229 -95.5t81 -260.5q0 -149 -66.5 -238t-190.5 -104q1 -64 24.5 -95.5t63.5 -31.5q41 0 64 32.5t23 92.5zM327 68q96 0 151 64.5
t55 194.5q0 127 -52.5 195.5t-151.5 68.5t-152 -69t-53 -197t53 -192.5t150 -64.5z" />
    <glyph glyph-name="R" unicode="R" horiz-adv-x="570" 
d="M130 360h200q63 0 93 29.5t30 78.5q0 50 -29 78.5t-87 28.5h-207v-215zM536 0h-104v172q0 54 -26 77.5t-95 23.5h-181v-273h-104v664h328q90 0 144.5 -52.5t54.5 -133.5q0 -60 -30.5 -103t-84.5 -57q53 -11 75.5 -41.5t22.5 -91.5v-185z" />
    <glyph glyph-name="S" unicode="S" horiz-adv-x="555" 
d="M524 468h-101q-6 127 -157 127q-143 0 -143 -100q0 -59 65 -87q37 -16 113.5 -29t110.5 -25q130 -45 130 -172q0 -98 -68.5 -151.5t-189.5 -53.5q-124 0 -198.5 56.5t-76.5 165.5h103q1 -64 47.5 -100t124.5 -36q72 0 113 30.5t41 85.5q0 64 -70 91q-31 12 -105 25
t-114 28q-64 24 -94 64t-30 101q0 90 61 144t177 54q121 0 190 -59t71 -159z" />
    <glyph glyph-name="S" unicode="&#x405;" horiz-adv-x="555" 
d="M524 468h-101q-6 127 -157 127q-143 0 -143 -100q0 -59 65 -87q37 -16 113.5 -29t110.5 -25q130 -45 130 -172q0 -98 -68.5 -151.5t-189.5 -53.5q-124 0 -198.5 56.5t-76.5 165.5h103q1 -64 47.5 -100t124.5 -36q72 0 113 30.5t41 85.5q0 64 -70 91q-31 12 -105 25
t-114 28q-64 24 -94 64t-30 101q0 90 61 144t177 54q121 0 190 -59t71 -159z" />
    <glyph glyph-name="T" unicode="T" horiz-adv-x="546" 
d="M324 0h-107v574h-210v90h527v-90h-210v-574z" />
    <glyph glyph-name="T" unicode="&#x422;" horiz-adv-x="546" 
d="M324 0h-107v574h-210v90h527v-90h-210v-574z" />
    <glyph glyph-name="T" unicode="&#x3a4;" horiz-adv-x="546" 
d="M324 0h-107v574h-210v90h527v-90h-210v-574z" />
    <glyph glyph-name="U" unicode="U" horiz-adv-x="578" 
d="M439 221v443h109v-443q0 -119 -69 -181.5t-196 -62.5q-122 0 -189.5 59.5t-67.5 176.5v451h109v-442q0 -75 38.5 -116t113.5 -41q72 0 112 39.5t40 116.5z" />
    <glyph glyph-name="V" unicode="V" horiz-adv-x="584" 
d="M339 0h-99l-234 664h114l171 -511l171 511h111z" />
    <glyph glyph-name="W" unicode="W" horiz-adv-x="841" 
d="M649 0h-104l-126 486l-128 -486h-101l-184 664h114l124 -485l118 485h112l125 -485l123 485h109z" />
    <glyph glyph-name="X" unicode="X" horiz-adv-x="596" 
d="M584 0h-130l-158 253l-164 -253h-125l226 339l-214 325h126l151 -241l151 241h124l-214 -321z" />
    <glyph glyph-name="X" unicode="&#x425;" horiz-adv-x="596" 
d="M584 0h-130l-158 253l-164 -253h-125l226 339l-214 325h126l151 -241l151 241h124l-214 -321z" />
    <glyph glyph-name="X" unicode="&#x3a7;" horiz-adv-x="596" 
d="M584 0h-130l-158 253l-164 -253h-125l226 339l-214 325h126l151 -241l151 241h124l-214 -321z" />
    <glyph glyph-name="Y" unicode="Y" horiz-adv-x="593" 
d="M351 0h-107v261l-238 403h125l168 -293l160 293h124l-232 -404v-260z" />
    <glyph glyph-name="Y" unicode="&#x4ae;" horiz-adv-x="593" 
d="M351 0h-107v261l-238 403h125l168 -293l160 293h124l-232 -404v-260z" />
    <glyph glyph-name="Y" unicode="&#x3a5;" horiz-adv-x="593" 
d="M351 0h-107v261l-238 403h125l168 -293l160 293h124l-232 -404v-260z" />
    <glyph glyph-name="Z" unicode="Z" horiz-adv-x="525" 
d="M513 0h-506v91l373 483h-363v90h496v-85l-374 -488h374v-91z" />
    <glyph glyph-name="Z" unicode="&#x396;" horiz-adv-x="525" 
d="M513 0h-506v91l373 483h-363v90h496v-85l-374 -488h374v-91z" />
    <glyph glyph-name="bracketleft" unicode="[" horiz-adv-x="307" 
d="M285 -130h-210v849h210v-70h-121v-712h121v-67z" />
    <glyph glyph-name="backslash" unicode="\" horiz-adv-x="292" 
d="M290 0h-83l-209 664h85z" />
    <glyph glyph-name="bracketright" unicode="]" horiz-adv-x="303" 
d="M225 -130h-212v67h123v712h-123v70h212v-849z" />
    <glyph glyph-name="asciicircum" unicode="^" horiz-adv-x="454" 
d="M433 473h-108l-99 110l-100 -110h-108l171 191h72z" />
    <glyph glyph-name="underscore" unicode="_" horiz-adv-x="466" 
d="M476 -122h-476v50h476v-50z" />
    <glyph glyph-name="grave" unicode="`" horiz-adv-x="346" 
d="M273 554l-223 106l40 70l210 -130z" />
    <glyph glyph-name="a" unicode="a" horiz-adv-x="481" 
d="M346 183l1 71q-3 -4 -7.5 -6.5t-12 -5t-13 -4.5t-17 -4t-17.5 -3t-21.5 -3t-21.5 -3q-65 -11 -93 -29.5t-28 -61.5q0 -75 85 -75q62 0 102.5 35.5t42.5 88.5zM447 0h-93q-1 2 -6 67q-47 -80 -171 -80q-161 0 -161 144q0 37 12.5 64.5t29.5 43t50.5 27t58 16t69.5 10.5
q33 5 47.5 7.5t31 8t23 14t7.5 21.5q0 84 -107 84q-105 0 -113 -95h-93q3 173 210 173q111 0 158 -48.5t47 -145.5v-311z" />
    <glyph glyph-name="a" unicode="&#x430;" horiz-adv-x="481" 
d="M346 183l1 71q-3 -4 -7.5 -6.5t-12 -5t-13 -4.5t-17 -4t-17.5 -3t-21.5 -3t-21.5 -3q-65 -11 -93 -29.5t-28 -61.5q0 -75 85 -75q62 0 102.5 35.5t42.5 88.5zM447 0h-93q-1 2 -6 67q-47 -80 -171 -80q-161 0 -161 144q0 37 12.5 64.5t29.5 43t50.5 27t58 16t69.5 10.5
q33 5 47.5 7.5t31 8t23 14t7.5 21.5q0 84 -107 84q-105 0 -113 -95h-93q3 173 210 173q111 0 158 -48.5t47 -145.5v-311z" />
    <glyph glyph-name="b" unicode="b" horiz-adv-x="518" 
d="M259 69q60 0 96.5 47.5t36.5 132.5q0 81 -34.5 125.5t-97.5 44.5q-67 0 -101.5 -48t-34.5 -126q0 -84 38 -130t97 -46zM126 0h-97v672h99v-272q48 105 164 105q92 0 147 -69.5t55 -186.5q0 -122 -59 -192t-153 -70q-115 0 -156 101v-88z" />
    <glyph glyph-name="c" unicode="c" horiz-adv-x="476" 
d="M360 178h101q-11 -86 -72 -138.5t-150 -52.5q-99 0 -159 68.5t-60 196.5q0 127 60 190t163 63q94 0 153 -50t66 -139h-101q-6 51 -38 78t-80 27q-56 0 -89.5 -40.5t-33.5 -127.5q0 -89 34 -135.5t89 -46.5q45 0 78.5 28.5t38.5 78.5z" />
    <glyph glyph-name="c" unicode="&#x441;" horiz-adv-x="476" 
d="M360 178h101q-11 -86 -72 -138.5t-150 -52.5q-99 0 -159 68.5t-60 196.5q0 127 60 190t163 63q94 0 153 -50t66 -139h-101q-6 51 -38 78t-80 27q-56 0 -89.5 -40.5t-33.5 -127.5q0 -89 34 -135.5t89 -46.5q45 0 78.5 28.5t38.5 78.5z" />
    <glyph glyph-name="d" unicode="d" horiz-adv-x="517" 
d="M254 69q59 0 97 46t38 130q0 78 -34.5 126t-101.5 48q-63 0 -97.5 -44.5t-34.5 -125.5q0 -85 36.5 -132.5t96.5 -47.5zM484 0h-97v88q-41 -101 -156 -101q-94 0 -153 70t-59 192q0 117 55 186.5t147 69.5q116 0 164 -105v272h99v-672z" />
    <glyph glyph-name="e" unicode="e" horiz-adv-x="497" 
d="M121 285h252q-1 66 -36 103t-89 37q-55 0 -89.5 -37.5t-37.5 -102.5zM476 221h-358q3 -73 38.5 -114t94.5 -41q43 0 73.5 21t40.5 58h104q-47 -158 -218 -158q-113 0 -173 68.5t-60 190.5q0 123 60.5 191t169.5 68q112 0 170 -73t58 -211z" />
    <glyph glyph-name="e" unicode="&#x435;" horiz-adv-x="497" 
d="M121 285h252q-1 66 -36 103t-89 37q-55 0 -89.5 -37.5t-37.5 -102.5zM476 221h-358q3 -73 38.5 -114t94.5 -41q43 0 73.5 21t40.5 58h104q-47 -158 -218 -158q-113 0 -173 68.5t-60 190.5q0 123 60.5 191t169.5 68q112 0 170 -73t58 -211z" />
    <glyph glyph-name="f" unicode="f" horiz-adv-x="293" 
d="M177 0h-99v420h-71v72h71q0 180 204 180v-82q-59 0 -82 -22.5t-23 -75.5h108v-72h-108v-420z" />
    <glyph glyph-name="g" unicode="g" horiz-adv-x="524" 
d="M258 75q61 0 98 45.5t37 127.5q0 80 -36 124.5t-100 44.5q-63 0 -98.5 -43.5t-35.5 -124.5q0 -84 37 -129t98 -45zM390 -13v107q-31 -98 -158 -98q-104 0 -158.5 70.5t-54.5 179.5q0 119 61.5 189t154.5 70q114 0 155 -102v89h100v-497q0 -107 -67.5 -167.5t-171.5 -60.5
q-102 0 -167 56t-65 150h94q0 -56 36.5 -88t95.5 -32q63 0 104 36.5t41 97.5z" />
    <glyph glyph-name="h" unicode="h" horiz-adv-x="496" 
d="M463 0h-101v308q0 63 -24.5 90t-73.5 27q-73 0 -104 -48t-31 -122v-255h-100v672h100v-272q16 49 60.5 77t105.5 28q75 0 121.5 -42.5t46.5 -122.5v-340z" />
    <glyph glyph-name="h" unicode="&#x4bb;" horiz-adv-x="496" 
d="M463 0h-101v308q0 63 -24.5 90t-73.5 27q-73 0 -104 -48t-31 -122v-255h-100v672h100v-272q16 49 60.5 77t105.5 28q75 0 121.5 -42.5t46.5 -122.5v-340z" />
    <glyph glyph-name="i" unicode="i" horiz-adv-x="168" 
d="M132 0h-100v492h100v-492zM132 551h-100v121h100v-121z" />
    <glyph glyph-name="i" unicode="&#x456;" horiz-adv-x="168" 
d="M132 0h-100v492h100v-492zM132 551h-100v121h100v-121z" />
    <glyph glyph-name="j" unicode="j" horiz-adv-x="197" 
d="M57 -30v522h101v-525q0 -90 -54 -145t-144 -55q-88 0 -136 54.5t-48 151.5h94q2 -118 93 -118q47 0 70.5 30.5t23.5 84.5zM158 551h-101v121h101v-121z" />
    <glyph glyph-name="j" unicode="&#x458;" horiz-adv-x="197" 
d="M57 -30v522h101v-525q0 -90 -54 -145t-144 -55q-88 0 -136 54.5t-48 151.5h94q2 -118 93 -118q47 0 70.5 30.5t23.5 84.5zM158 551h-101v121h101v-121z" />
    <glyph glyph-name="k" unicode="k" horiz-adv-x="478" 
d="M466 0h-112l-132 240l-92 -89v-151h-101v672h101v-406l217 226h123l-176 -183z" />
    <glyph glyph-name="l" unicode="l" horiz-adv-x="161" 
d="M129 0h-100v672h100v-672z" />
    <glyph glyph-name="m" unicode="m" horiz-adv-x="744" 
d="M716 0h-98v303q0 58 -24.5 89t-66.5 31q-46 0 -74.5 -35.5t-28.5 -87.5v-300h-100v301q0 66 -20.5 92.5t-65.5 26.5q-59 0 -84 -37.5t-25 -112.5v-270h-100v492h94v-98q41 111 152 111q52 0 84 -22.5t53 -74.5q35 97 143 97q72 0 116.5 -46t44.5 -124v-335z" />
    <glyph glyph-name="n" unicode="n" horiz-adv-x="498" 
d="M464 0h-100v303q0 65 -24.5 91t-76.5 26q-72 0 -103 -42t-31 -123v-255h-100v492h96v-98q42 111 172 111q76 0 121.5 -42.5t45.5 -127.5v-335z" />
    <glyph glyph-name="o" unicode="o" horiz-adv-x="532" 
d="M265 71q69 0 106 45t37 130q0 84 -36.5 129t-106.5 45t-107 -45t-37 -129t37 -129.5t107 -45.5zM264 -13q-114 0 -180 71.5t-66 187.5q0 118 67 188.5t180 70.5q112 0 178 -70.5t66 -187.5q0 -118 -66 -189t-179 -71z" />
    <glyph glyph-name="o" unicode="&#x43e;" horiz-adv-x="532" 
d="M265 71q69 0 106 45t37 130q0 84 -36.5 129t-106.5 45t-107 -45t-37 -129t37 -129.5t107 -45.5zM264 -13q-114 0 -180 71.5t-66 187.5q0 118 67 188.5t180 70.5q112 0 178 -70.5t66 -187.5q0 -118 -66 -189t-179 -71z" />
    <glyph glyph-name="o" unicode="&#x3bf;" horiz-adv-x="532" 
d="M265 71q69 0 106 45t37 130q0 84 -36.5 129t-106.5 45t-107 -45t-37 -129t37 -129.5t107 -45.5zM264 -13q-114 0 -180 71.5t-66 187.5q0 118 67 188.5t180 70.5q112 0 178 -70.5t66 -187.5q0 -118 -66 -189t-179 -71z" />
    <glyph glyph-name="p" unicode="p" horiz-adv-x="517" 
d="M260 72q63 0 97.5 44.5t34.5 125.5q0 85 -36.5 133t-97.5 48q-59 0 -96.5 -46t-37.5 -130q0 -78 35 -126.5t101 -48.5zM128 -233h-99v725h97v-89q42 102 156 102q94 0 153 -70t59 -193q0 -117 -55 -186t-148 -69q-115 0 -163 104v-324z" />
    <glyph glyph-name="p" unicode="&#x440;" horiz-adv-x="517" 
d="M260 72q63 0 97.5 44.5t34.5 125.5q0 85 -36.5 133t-97.5 48q-59 0 -96.5 -46t-37.5 -130q0 -78 35 -126.5t101 -48.5zM128 -233h-99v725h97v-89q42 102 156 102q94 0 153 -70t59 -193q0 -117 -55 -186t-148 -69q-115 0 -163 104v-324z" />
    <glyph glyph-name="q" unicode="q" horiz-adv-x="509" 
d="M645 -24h94q0 -97 -49 -153t-128 -56q-80 0 -129 56.5t-49 150.5v115q-49 -102 -162 -102q-93 0 -148 68.5t-55 186.5q0 123 59 193t153 70q114 0 156 -102v89h97v-519q0 -118 81 -118q80 0 80 121zM253 72q67 0 101.5 48.5t34.5 126.5q0 84 -37.5 130t-96.5 46
q-61 0 -97.5 -48t-36.5 -133q0 -81 34.5 -125.5t97.5 -44.5z" />
    <glyph glyph-name="r" unicode="r" horiz-adv-x="320" 
d="M129 0h-100v492h94v-88q47 101 162 101h22v-103q-17 3 -36 3q-70 0 -106 -41t-36 -111v-253z" />
    <glyph glyph-name="s" unicode="s" horiz-adv-x="467" 
d="M439 343h-96q-5 45 -31 65.5t-84 20.5q-101 0 -101 -61q0 -22 13.5 -35.5t43.5 -22.5q15 -5 78.5 -18.5t96.5 -25.5q45 -16 69.5 -43.5t24.5 -77.5q0 -74 -53.5 -116t-155.5 -42q-107 0 -168.5 46t-63.5 125h103q1 -46 35 -70.5t93 -24.5q56 0 84.5 20t28.5 51
q0 33 -41 53q-27 13 -89 27t-70 16q-126 36 -126 132q0 67 50 105t152 38q199 0 207 -162z" />
    <glyph glyph-name="s" unicode="&#x455;" horiz-adv-x="467" 
d="M439 343h-96q-5 45 -31 65.5t-84 20.5q-101 0 -101 -61q0 -22 13.5 -35.5t43.5 -22.5q15 -5 78.5 -18.5t96.5 -25.5q45 -16 69.5 -43.5t24.5 -77.5q0 -74 -53.5 -116t-155.5 -42q-107 0 -168.5 46t-63.5 125h103q1 -46 35 -70.5t93 -24.5q56 0 84.5 20t28.5 51
q0 33 -41 53q-27 13 -89 27t-70 16q-126 36 -126 132q0 67 50 105t152 38q199 0 207 -162z" />
    <glyph glyph-name="t" unicode="t" horiz-adv-x="449" 
d="M326 193v131h93v-140q0 -85 -49 -141t-145 -56q-99 0 -147.5 56t-48.5 142v440h99v-133h291v-72h-291v-226q0 -120 99 -120q49 0 74 32t25 87z" />
    <glyph glyph-name="u" unicode="u" 
d="M461 0h-94v95q-45 -108 -167 -108q-78 0 -124.5 47.5t-46.5 134.5v323h100v-293q0 -67 24.5 -97.5t77.5 -30.5q70 0 100.5 45.5t30.5 118.5v257h99v-492z" />
    <glyph glyph-name="v" unicode="v" 
d="M297 0h-104l-187 492h112l130 -363l129 363h106z" />
    <glyph glyph-name="v" unicode="&#x3bd;" 
d="M297 0h-104l-187 492h112l130 -363l129 363h106z" />
    <glyph glyph-name="w" unicode="w" horiz-adv-x="702" 
d="M547 0h-102l-96 332l-96 -332h-103l-144 492h106l97 -357l89 357h102l95 -357l93 357h104z" />
    <glyph glyph-name="x" unicode="x" horiz-adv-x="490" 
d="M479 0h-122l-116 171l-114 -171h-121l177 250l-172 242h121l113 -167l113 167h116l-174 -242z" />
    <glyph glyph-name="x" unicode="&#x445;" horiz-adv-x="490" 
d="M479 0h-122l-116 171l-114 -171h-121l177 250l-172 242h121l113 -167l113 167h116l-174 -242z" />
    <glyph glyph-name="y" unicode="y" horiz-adv-x="499" 
d="M364 -13v93q-13 -38 -52 -61.5t-97 -23.5q-82 0 -132.5 49t-50.5 136v312h100v-298q0 -118 107 -118q58 0 91.5 31.5t33.5 86.5v298h100v-503q0 -104 -62 -163t-164 -59q-98 0 -153.5 55t-55.5 151h94q0 -55 33 -87.5t86 -32.5q56 0 89 36t33 98z" />
    <glyph glyph-name="y" unicode="&#x443;" horiz-adv-x="499" 
d="M364 -13v93q-13 -38 -52 -61.5t-97 -23.5q-82 0 -132.5 49t-50.5 136v312h100v-298q0 -118 107 -118q58 0 91.5 31.5t33.5 86.5v298h100v-503q0 -104 -62 -163t-164 -59q-98 0 -153.5 55t-55.5 151h94q0 -55 33 -87.5t86 -32.5q56 0 89 36t33 98z" />
    <glyph glyph-name="z" unicode="z" horiz-adv-x="440" 
d="M426 0h-414v77l281 335h-264v80h390v-81l-282 -329h289v-82z" />
    <glyph glyph-name="braceleft" unicode="{" horiz-adv-x="327" 
d="M304 -131h-32q-101 0 -132.5 35.5t-31.5 122.5q0 12 2.5 66.5t2.5 63.5q0 58 -17.5 81t-62.5 23v67q45 0 62.5 23.5t17.5 81.5q0 9 -2.5 63t-2.5 66q0 87 31.5 122.5t132.5 35.5h32v-64h-21q-54 0 -72 -18.5t-18 -66.5q0 -27 3 -85.5t3 -86.5q0 -42 -27 -70.5t-67 -33.5
q41 -6 67.5 -34t26.5 -70q0 -28 -3 -87.5t-3 -86.5q0 -47 18 -65.5t72 -18.5h21v-64z" />
    <glyph glyph-name="bar" unicode="|" horiz-adv-x="321" 
d="M198 -125h-79v861h79v-861z" />
    <glyph glyph-name="braceright" unicode="}" horiz-adv-x="323" 
d="M46 -131h-33v64h22q53 0 71 18.5t18 65.5q0 27 -3 86.5t-3 87.5q0 42 27 70t68 34q-41 5 -68 33.5t-27 70.5q0 28 3 86.5t3 85.5q0 48 -17.5 66.5t-71.5 18.5h-22v64h33q100 0 131.5 -35.5t31.5 -122.5q0 -12 -2.5 -66t-2.5 -63q0 -58 17.5 -81.5t62.5 -23.5v-67
q-45 0 -62.5 -23t-17.5 -81q0 -9 2.5 -63.5t2.5 -66.5q0 -87 -31.5 -122.5t-131.5 -35.5z" />
    <glyph glyph-name="asciitilde" unicode="~" horiz-adv-x="548" 
d="M516 393v-80q-60 -67 -144 -67q-40 0 -108.5 31t-103.5 31q-74 0 -132 -75v79q57 67 129 67q49 0 119 -30t100 -30q85 0 140 74z" />
    <glyph glyph-name="nbspace" unicode="&#xa0;" horiz-adv-x="236" 
 />
    <glyph glyph-name="exclamdown" unicode="&#xa1;" horiz-adv-x="219" 
d="M59 664h106v-116h-106v116zM84 494h54q30 -227 30 -408q0 -71 -3 -86h-108q-3 51 -3 88q0 168 30 406z" />
    <glyph glyph-name="cent" unicode="&#xa2;" horiz-adv-x="476" 
d="M262 0h-38v69q-94 5 -149 73.5t-55 192.5q0 121 54 184.5t150 68.5v76h38v-76q86 -5 140 -55.5t60 -132.5h-102q-4 46 -30.5 71.5t-67.5 30.5v-347q40 6 67 34.5t31 71.5h101q-10 -80 -64.5 -133.5t-134.5 -57.5v-70zM224 155v348q-104 -12 -104 -166q0 -81 28.5 -128
t75.5 -54z" />
    <glyph glyph-name="sterling" unicode="&#xa3;" horiz-adv-x="477" 
d="M448 0h-419v484q0 93 55 147.5t158 54.5q101 0 153 -45.5t52 -158.5v-77h-101v76q0 63 -23.5 90t-80.5 27q-58 0 -82 -28.5t-24 -87.5v-142h312v-64h-312v-183h312v-93z" />
    <glyph glyph-name="currency" unicode="&#xa4;" horiz-adv-x="519" 
d="M440 105l-63 67q-53 -35 -115 -35q-64 0 -115 35l-63 -67l-61 61l67 63q-35 51 -35 115q0 62 35 115l-66 62l60 60l61 -65q53 36 117 36t116 -36l61 65l61 -60l-66 -61q36 -52 36 -116q0 -66 -36 -116l67 -62zM415 344q0 64 -44.5 108.5t-108.5 44.5t-108 -44.5
t-44 -108.5t44 -108t108 -44t108.5 44t44.5 108z" />
    <glyph glyph-name="yen" unicode="&#xa5;" horiz-adv-x="528" 
d="M456 87h-152v-87h-84v87h-152v59h152v79h-152v59h152v75l-200 305h91l150 -237l151 237h90l-198 -305v-75h152v-59h-152v-79h152v-59z" />
    <glyph glyph-name="brokenbar" unicode="&#xa6;" horiz-adv-x="321" 
d="M198 -125h-79v410h79v-410zM198 736v-383h-79v383h79z" />
    <glyph glyph-name="section" unicode="&#xa7;" horiz-adv-x="526" 
d="M30 45h92q1 -52 38 -82.5t97 -30.5q63 0 95 27t32 66q0 34 -30.5 53.5t-120.5 41.5q-107 26 -147.5 60t-40.5 106q0 76 54 118q-48 38 -48 114q0 69 52.5 113.5t147.5 44.5q103 0 156.5 -48.5t57.5 -135.5h-89q-5 54 -34 79t-91 25q-112 0 -112 -79q0 -35 28.5 -53.5
t113.5 -38.5q34 -8 48 -12t41 -12.5t38.5 -16t29 -20.5t24.5 -28t13 -36.5t6 -48.5q0 -70 -49 -116q42 -34 42 -113q0 -75 -57 -121.5t-152 -46.5q-111 0 -172 50t-63 141zM190 361q-58 -15 -58 -72q0 -32 26.5 -51.5t98.5 -37.5q79 -19 89 -22q44 23 44 79q0 21 -10.5 36
t-32 24t-43 15t-56.5 14t-58 15z" />
    <glyph glyph-name="dieresis" unicode="&#xa8;" horiz-adv-x="396" 
d="M161 584h-111v115h111v-115zM361 584h-110v115h110v-115z" />
    <glyph glyph-name="copyright" unicode="&#xa9;" horiz-adv-x="678" 
d="M335 -9q-131 0 -224.5 100.5t-93.5 241.5t93.5 241t224.5 100q132 0 225 -100t93 -241t-93 -241.5t-225 -100.5zM337 36q113 0 194 86.5t81 209.5q0 122 -81 209t-194 87q-114 0 -194.5 -87t-80.5 -209q0 -123 80 -209.5t195 -86.5zM405 296h55q-5 -42 -37.5 -70.5
t-82.5 -28.5q-58 0 -91 36.5t-33 98.5q0 64 33 99.5t92 35.5q52 0 83.5 -26.5t36.5 -70.5h-55q-4 22 -20 34.5t-39 12.5q-33 0 -54 -21t-21 -60q0 -44 18.5 -67.5t50.5 -23.5q25 0 43.5 13t20.5 38z" />
    <glyph glyph-name="ordfeminine" unicode="&#xaa;" horiz-adv-x="325" 
d="M220 401l1 39q-7 -8 -40.5 -12.5t-60 -16t-26.5 -38.5q0 -41 48 -41q31 0 54 19.5t24 49.5zM276 300h-51q-1 2 -1.5 9.5t-1.5 16.5t-1 11q-24 -44 -91 -44q-91 0 -91 75q0 50 28.5 67.5t92.5 25.5q32 4 46 9.5t14 18.5q0 46 -59 46t-62 -52h-51q2 95 115 95q61 0 87 -27
t26 -80v-171z" />
    <glyph glyph-name="guillemotleft" unicode="&#xab;" horiz-adv-x="450" 
d="M156 145l-141 172l141 174l53 -58l-99 -116l99 -115zM381 145l-141 172l141 174l53 -58l-99 -116l99 -115z" />
    <glyph glyph-name="logicalnot" unicode="&#xac;" horiz-adv-x="582" 
d="M548 0h-91v401h-429v91h520v-492z" />
    <glyph glyph-name="registered" unicode="&#xae;" horiz-adv-x="459" 
d="M427 494q0 -79 -56 -135t-136 -56q-79 0 -135 55.5t-56 135.5t56 136t135 56t135.5 -56t56.5 -136zM400 494q0 68 -48.5 116t-116.5 48t-116 -48t-48 -116t48 -116.5t116 -48.5t116.5 48.5t48.5 116.5zM200 509h52q30 0 30 27t-29 27h-53v-54zM308 412h-32v46
q0 26 -30 26h-46v-72h-31v178h89q24 0 39 -14.5t15 -36.5q0 -34 -28 -42q24 -6 24 -35v-50z" />
    <glyph glyph-name="macron" unicode="&#xaf;" horiz-adv-x="469" 
d="M424 609h-374v77h374v-77z" />
    <glyph glyph-name="degree" unicode="&#xb0;" horiz-adv-x="380" 
d="M185 355q-77 0 -114 44t-37 115t37 114.5t114 43.5t114.5 -43.5t37.5 -114.5t-37.5 -115t-114.5 -44zM185 409q47 0 70 29.5t23 76.5t-22.5 75.5t-70.5 28.5t-70.5 -28.5t-22.5 -75.5t23 -76.5t70 -29.5z" />
    <glyph glyph-name="plusminus" unicode="&#xb1;" horiz-adv-x="517" 
d="M486 306h-194v-193h-73v193h-193v73h193v193h73v-193h194v-73zM486 -1h-460v73h460v-73z" />
    <glyph glyph-name="twosuperior" unicode="&#xb2;" horiz-adv-x="259" 
d="M239 343h-221q2 52 21 84t81 76q41 29 55 44.5t14 41.5q0 54 -58 54q-60 0 -60 -73h-48q0 56 28 86t81 30q48 0 77 -24.5t29 -72.5q0 -38 -20.5 -61.5t-75.5 -62.5q-31 -22 -45.5 -39t-16.5 -40h159v-43z" />
    <glyph glyph-name="threesuperior" unicode="&#xb3;" horiz-adv-x="266" 
d="M106 498v35q45 0 62 14t17 40q0 27 -14.5 42.5t-38.5 15.5q-26 0 -41.5 -17.5t-15.5 -48.5h-47q0 48 28.5 77.5t75.5 29.5q44 0 72.5 -25.5t28.5 -66.5q0 -53 -49 -74q59 -18 59 -84q0 -48 -31.5 -76.5t-81.5 -28.5t-78.5 29.5t-28.5 79.5h48q0 -68 60 -68q28 0 44.5 17
t16.5 49t-19.5 46t-66.5 14z" />
    <glyph glyph-name="acute" unicode="&#xb4;" horiz-adv-x="346" 
d="M300 660l-224 -106l-26 46l209 130z" />
    <glyph glyph-name="paragraph" unicode="&#xb6;" horiz-adv-x="548" 
d="M485 -100h-84v716h-169v-716h-84v562q-63 7 -90.5 37.5t-27.5 72.5q0 50 40.5 82t120.5 32h339l-45 -71v-715z" />
    <glyph glyph-name="periodcentered" unicode="&#xb7;" horiz-adv-x="163" 
d="M135 271h-109v119h109v-119z" />
    <glyph glyph-name="cedilla" unicode="&#xb8;" horiz-adv-x="184" 
d="M50 -233v37q53 5 55 64h-55v78h98v-53q0 -116 -98 -126z" />
    <glyph glyph-name="onesuperior" unicode="&#xb9;" horiz-adv-x="165" 
d="M135 343h-50v239h-67v35q43 0 58.5 11.5t17.5 46.5h41v-332z" />
    <glyph glyph-name="ordmasculine" unicode="&#xba;" horiz-adv-x="352" 
d="M176 339q38 0 58 25t20 71q0 96 -78 96q-79 0 -79 -96q0 -46 20.5 -71t58.5 -25zM176 293q-63 0 -99.5 39t-36.5 103q0 65 36.5 104t99.5 39q61 0 97.5 -39t36.5 -104q0 -64 -36.5 -103t-97.5 -39z" />
    <glyph glyph-name="guillemotright" unicode="&#xbb;" horiz-adv-x="450" 
d="M69 145l-54 57l99 115l-99 116l54 58l140 -174zM294 145l-54 57l99 115l-99 116l54 58l140 -174z" />
    <glyph glyph-name="onequarter" unicode="&#xbc;" horiz-adv-x="621" 
d="M96 -20h-58l462 704h58zM138 343h-50v239h-67v35q43 0 58.5 11.5t17.5 46.5h41v-332zM518 105v146l-92 -146h92zM567 -10h-50v76h-140v44l133 212h57v-217h36v-39h-36v-76z" />
    <glyph glyph-name="onehalf" unicode="&#xbd;" horiz-adv-x="624" 
d="M88 -20h-58l462 704h58zM138 343h-50v239h-67v35q43 0 58.5 11.5t17.5 46.5h41v-332zM605 -10h-221q2 52 21 84t81 76q41 29 55 44.5t14 41.5q0 54 -58 54q-60 0 -60 -73h-48q0 56 28 86t81 30q48 0 77 -24.5t29 -72.5q0 -38 -20.5 -61.5t-75.5 -62.5q-31 -22 -45.5 -39
t-16.5 -40h159v-43z" />
    <glyph glyph-name="threequarters" unicode="&#xbe;" horiz-adv-x="632" 
d="M124 -20h-58l462 704h58zM527 105v146l-92 -146h92zM576 -10h-50v76h-140v44l133 212h57v-217h36v-39h-36v-76zM105 498v35q45 0 62 14t17 40q0 27 -14.5 42.5t-38.5 15.5q-26 0 -41.5 -17.5t-15.5 -48.5h-47q0 48 28.5 77.5t75.5 29.5q44 0 72.5 -25.5t28.5 -66.5
q0 -53 -49 -74q59 -18 59 -84q0 -48 -31.5 -76.5t-81.5 -28.5t-78.5 29.5t-28.5 79.5h48q0 -68 60 -68q28 0 44.5 17t16.5 49t-19.5 46t-66.5 14z" />
    <glyph glyph-name="questiondown" unicode="&#xbf;" horiz-adv-x="486" 
d="M197 487h94q0 -101 -39 -155q-15 -20 -49 -45t-54.5 -51.5t-20.5 -66.5q0 -109 118 -109q113 0 121 133h100q0 -99 -60 -157t-159 -58q-108 0 -167.5 46t-59.5 140q0 60 24 96.5t78 73.5q45 31 59.5 64.5t14.5 88.5zM190 664h105v-116h-105v116z" />
    <glyph glyph-name="Agrave" unicode="&#xc0;" horiz-adv-x="633" 
d="M424 237l-110 310l-111 -310h221zM622 0h-116l-51 149h-281l-55 -149h-113l249 664h122zM386 726l-223 106l40 70l210 -130z" />
    <glyph glyph-name="Aacute" unicode="&#xc1;" horiz-adv-x="633" 
d="M424 237l-110 310l-111 -310h221zM622 0h-116l-51 149h-281l-55 -149h-113l249 664h122zM473 832l-224 -106l-26 46l209 130z" />
    <glyph glyph-name="Acircumflex" unicode="&#xc2;" horiz-adv-x="633" 
d="M424 237l-110 310l-111 -310h221zM622 0h-116l-51 149h-281l-55 -149h-113l249 664h122zM456 733l-139 127l-138 -127l-39 43l132 142h91l132 -142z" />
    <glyph glyph-name="Atilde" unicode="&#xc3;" horiz-adv-x="633" 
d="M424 237l-110 310l-111 -310h221zM622 0h-116l-51 149h-281l-55 -149h-113l249 664h122zM424 868l64 -23q-30 -92 -106 -92q-27 0 -67.5 24t-61.5 24q-30 0 -46 -46l-59 32q29 83 96 83q32 0 74 -25.5t59 -25.5q14 0 28 12t19 37z" />
    <glyph glyph-name="Adieresis" unicode="&#xc4;" horiz-adv-x="633" 
d="M424 237l-110 310l-111 -310h221zM622 0h-116l-51 149h-281l-55 -149h-113l249 664h122zM279 756h-111v115h111v-115zM479 756h-110v115h110v-115z" />
    <glyph glyph-name="Aring" unicode="&#xc5;" horiz-adv-x="633" 
d="M424 237l-110 310l-111 -310h221zM622 0h-116l-51 149h-281l-55 -149h-113l249 664h122zM419 822q0 -96 -102 -96t-102 96t102 96t102 -96zM374 822q0 57 -57 57q-56 0 -56 -57q0 -56 56 -56q57 0 57 56z" />
    <glyph glyph-name="AE" unicode="&#xc6;" horiz-adv-x="870" 
d="M863 0h-481v150h-209l-53 -150h-114l242 664h600v-90h-360v-181h332v-90h-332v-212h375v-91zM382 238v336h-64l-117 -336h181z" />
    <glyph glyph-name="Ccedilla" unicode="&#xc7;" horiz-adv-x="604" 
d="M490 228h107q-22 -117 -95.5 -184t-186.5 -67q-131 0 -214 91t-83 259q0 165 81.5 262t220.5 97q118 0 192.5 -68t84.5 -172h-107q-7 68 -53 107.5t-117 39.5q-94 0 -143.5 -69.5t-49.5 -194.5t49.5 -192t141.5 -67q74 0 117.5 42t54.5 116zM273 -233v37q53 5 55 64h-55
v78h98v-53q0 -116 -98 -126z" />
    <glyph glyph-name="Egrave" unicode="&#xc8;" horiz-adv-x="525" 
d="M518 0h-492v664h476v-90h-372v-181h345v-90h-345v-212h388v-91zM332 726l-223 106l40 70l210 -130z" />
    <glyph glyph-name="Egrave" unicode="&#x400;" horiz-adv-x="525" 
d="M518 0h-492v664h476v-90h-372v-181h345v-90h-345v-212h388v-91zM332 726l-223 106l40 70l210 -130z" />
    <glyph glyph-name="Eacute" unicode="&#xc9;" horiz-adv-x="525" 
d="M518 0h-492v664h476v-90h-372v-181h345v-90h-345v-212h388v-91zM419 832l-224 -106l-26 46l209 130z" />
    <glyph glyph-name="Ecircumflex" unicode="&#xca;" horiz-adv-x="525" 
d="M518 0h-492v664h476v-90h-372v-181h345v-90h-345v-212h388v-91zM413 733l-139 127l-138 -127l-39 43l132 142h91l132 -142z" />
    <glyph glyph-name="Edieresis" unicode="&#xcb;" horiz-adv-x="525" 
d="M518 0h-492v664h476v-90h-372v-181h345v-90h-345v-212h388v-91zM233 756h-111v115h111v-115zM433 756h-110v115h110v-115z" />
    <glyph glyph-name="Edieresis" unicode="&#x401;" horiz-adv-x="525" 
d="M518 0h-492v664h476v-90h-372v-181h345v-90h-345v-212h388v-91zM233 756h-111v115h111v-115zM433 756h-110v115h110v-115z" />
    <glyph glyph-name="Igrave" unicode="&#xcc;" horiz-adv-x="161" 
d="M133 0h-107v664h107v-664zM151 726l-223 106l40 70l210 -130z" />
    <glyph glyph-name="Iacute" unicode="&#xcd;" horiz-adv-x="161" 
d="M133 0h-107v664h107v-664zM238 832l-224 -106l-26 46l209 130z" />
    <glyph glyph-name="Icircumflex" unicode="&#xce;" horiz-adv-x="161" 
d="M133 0h-107v664h107v-664zM221 733l-139 127l-138 -127l-39 43l132 142h91l132 -142z" />
    <glyph glyph-name="Idieresis" unicode="&#xcf;" horiz-adv-x="161" 
d="M133 0h-107v664h107v-664zM44 756h-111v115h111v-115zM244 756h-110v115h110v-115z" />
    <glyph glyph-name="Idieresis" unicode="&#x407;" horiz-adv-x="161" 
d="M133 0h-107v664h107v-664zM44 756h-111v115h111v-115zM244 756h-110v115h110v-115z" />
    <glyph glyph-name="Idieresis" unicode="&#x3aa;" horiz-adv-x="161" 
d="M133 0h-107v664h107v-664zM44 756h-111v115h111v-115zM244 756h-110v115h110v-115z" />
    <glyph glyph-name="Eth" unicode="&#xd0;" horiz-adv-x="598" 
d="M297 0h-271v293h-23v77h23v294h250q134 0 217.5 -88t83.5 -237q0 -152 -77 -245.5t-203 -93.5zM130 87h146q95 0 143.5 64.5t48.5 187.5q0 120 -50.5 178t-155.5 58h-132v-205h132v-77h-132v-206z" />
    <glyph glyph-name="Eth" unicode="&#x110;" horiz-adv-x="598" 
d="M297 0h-271v293h-23v77h23v294h250q134 0 217.5 -88t83.5 -237q0 -152 -77 -245.5t-203 -93.5zM130 87h146q95 0 143.5 64.5t48.5 187.5q0 120 -50.5 178t-155.5 58h-132v-205h132v-77h-132v-206z" />
    <glyph glyph-name="Ntilde" unicode="&#xd1;" horiz-adv-x="583" 
d="M554 0h-99l-329 497v-497h-100v664h114l314 -483v483h100v-664zM399 868l64 -23q-30 -92 -106 -92q-27 0 -67.5 24t-61.5 24q-30 0 -46 -46l-59 32q29 83 96 83q33 0 74 -25.5t59 -25.5q14 0 28 12t19 37z" />
    <glyph glyph-name="Ograve" unicode="&#xd2;" horiz-adv-x="660" 
d="M327 68q96 0 151 64.5t55 194.5q0 127 -52.5 195.5t-151.5 68.5t-152 -69t-53 -197t53 -192.5t150 -64.5zM331 -23q-151 0 -232 90.5t-81 258.5q0 170 81.5 265t230.5 95q148 0 228.5 -95.5t80.5 -267.5q0 -170 -80 -258t-228 -88zM400 726l-223 106l40 70l210 -130z" />
    <glyph glyph-name="Oacute" unicode="&#xd3;" horiz-adv-x="660" 
d="M327 68q96 0 151 64.5t55 194.5q0 127 -52.5 195.5t-151.5 68.5t-152 -69t-53 -197t53 -192.5t150 -64.5zM331 -23q-151 0 -232 90.5t-81 258.5q0 170 81.5 265t230.5 95q148 0 228.5 -95.5t80.5 -267.5q0 -170 -80 -258t-228 -88zM487 832l-224 -106l-26 46l209 130z
" />
    <glyph glyph-name="Ocircumflex" unicode="&#xd4;" horiz-adv-x="660" 
d="M327 68q96 0 151 64.5t55 194.5q0 127 -52.5 195.5t-151.5 68.5t-152 -69t-53 -197t53 -192.5t150 -64.5zM331 -23q-151 0 -232 90.5t-81 258.5q0 170 81.5 265t230.5 95q148 0 228.5 -95.5t80.5 -267.5q0 -170 -80 -258t-228 -88zM470 733l-139 127l-138 -127l-39 43
l132 142h91l132 -142z" />
    <glyph glyph-name="Otilde" unicode="&#xd5;" horiz-adv-x="660" 
d="M327 68q96 0 151 64.5t55 194.5q0 127 -52.5 195.5t-151.5 68.5t-152 -69t-53 -197t53 -192.5t150 -64.5zM331 -23q-151 0 -232 90.5t-81 258.5q0 170 81.5 265t230.5 95q148 0 228.5 -95.5t80.5 -267.5q0 -170 -80 -258t-228 -88zM434 867l64 -23q-30 -92 -106 -92
q-27 0 -67.5 24t-61.5 24q-30 0 -46 -46l-59 32q29 83 96 83q32 0 74 -25.5t59 -25.5q14 0 28 12t19 37z" />
    <glyph glyph-name="Odieresis" unicode="&#xd6;" horiz-adv-x="660" 
d="M327 68q96 0 151 64.5t55 194.5q0 127 -52.5 195.5t-151.5 68.5t-152 -69t-53 -197t53 -192.5t150 -64.5zM331 -23q-151 0 -232 90.5t-81 258.5q0 170 81.5 265t230.5 95q148 0 228.5 -95.5t80.5 -267.5q0 -170 -80 -258t-228 -88zM293 756h-111v115h111v-115zM493 756
h-110v115h110v-115z" />
    <glyph glyph-name="multiply" unicode="&#xd7;" horiz-adv-x="517" 
d="M444 479l-137 -137l136 -136l-51 -52l-137 136l-136 -136l-52 52l137 136l-137 136l52 52l136 -136l137 137z" />
    <glyph glyph-name="Oslash" unicode="&#xd8;" horiz-adv-x="660" 
d="M167 -41l-55 21l26 52q-120 88 -120 294q0 170 81.5 265t230.5 95q70 0 127 -23l26 52l58 -22l-30 -59q128 -91 128 -311q0 -170 -79.5 -258t-229.5 -88q-78 0 -141 26zM463 541l-231 -453q40 -20 98 -20q93 0 148 64.5t55 190.5q0 151 -70 218zM184 124l228 451
q-35 16 -82 16q-100 0 -153 -69t-53 -199q0 -134 60 -199z" />
    <glyph glyph-name="Ugrave" unicode="&#xd9;" horiz-adv-x="578" 
d="M439 221v443h109v-443q0 -119 -69 -181.5t-196 -62.5q-122 0 -189.5 59.5t-67.5 176.5v451h109v-442q0 -75 38.5 -116t113.5 -41q72 0 112 39.5t40 116.5zM359 726l-223 106l40 70l210 -130z" />
    <glyph glyph-name="Uacute" unicode="&#xda;" horiz-adv-x="578" 
d="M439 221v443h109v-443q0 -119 -69 -181.5t-196 -62.5q-122 0 -189.5 59.5t-67.5 176.5v451h109v-442q0 -75 38.5 -116t113.5 -41q72 0 112 39.5t40 116.5zM446 832l-224 -106l-26 46l209 130z" />
    <glyph glyph-name="Ucircumflex" unicode="&#xdb;" horiz-adv-x="578" 
d="M439 221v443h109v-443q0 -119 -69 -181.5t-196 -62.5q-122 0 -189.5 59.5t-67.5 176.5v451h109v-442q0 -75 38.5 -116t113.5 -41q72 0 112 39.5t40 116.5zM429 733l-139 127l-138 -127l-39 43l132 142h91l132 -142z" />
    <glyph glyph-name="Udieresis" unicode="&#xdc;" horiz-adv-x="578" 
d="M439 221v443h109v-443q0 -119 -69 -181.5t-196 -62.5q-122 0 -189.5 59.5t-67.5 176.5v451h109v-442q0 -75 38.5 -116t113.5 -41q72 0 112 39.5t40 116.5zM251 756h-111v115h111v-115zM451 756h-110v115h110v-115z" />
    <glyph glyph-name="Yacute" unicode="&#xdd;" horiz-adv-x="593" 
d="M351 0h-107v261l-238 403h125l168 -293l160 293h124l-232 -404v-260zM458 832l-224 -106l-26 46l209 130z" />
    <glyph glyph-name="Thorn" unicode="&#xde;" horiz-adv-x="527" 
d="M133 228h167q55 0 90.5 34t35.5 86q0 51 -35 85.5t-90 34.5h-168v-240zM323 140h-190v-140h-107v664h107v-107h195q83 0 137.5 -61t54.5 -150q0 -90 -55 -148t-142 -58z" />
    <glyph glyph-name="germandbls" unicode="&#xdf;" horiz-adv-x="504" 
d="M217 -9v81q19 -3 34 -3q64 0 101.5 38t37.5 98q0 128 -161 130v64q68 2 95 26.5t27 71.5q0 50 -30.5 75.5t-80.5 25.5q-51 0 -81.5 -27.5t-30.5 -78.5v-492h-99v498q0 83 55 132t160 49q103 0 155.5 -46.5t52.5 -124.5q0 -96 -83 -129q120 -44 120 -169
q0 -102 -58.5 -163t-157.5 -61q-31 0 -56 5z" />
    <glyph glyph-name="agrave" unicode="&#xe0;" horiz-adv-x="481" 
d="M346 183l1 71q-3 -4 -7.5 -6.5t-12 -5t-13 -4.5t-17 -4t-17.5 -3t-21.5 -3t-21.5 -3q-65 -11 -93 -29.5t-28 -61.5q0 -75 85 -75q62 0 102.5 35.5t42.5 88.5zM447 0h-93q-1 2 -6 67q-47 -80 -171 -80q-161 0 -161 144q0 37 12.5 64.5t29.5 43t50.5 27t58 16t69.5 10.5
q33 5 47.5 7.5t31 8t23 14t7.5 21.5q0 84 -107 84q-105 0 -113 -95h-93q3 173 210 173q111 0 158 -48.5t47 -145.5v-311zM310 554l-223 106l40 70l210 -130z" />
    <glyph glyph-name="aacute" unicode="&#xe1;" horiz-adv-x="481" 
d="M346 183l1 71q-3 -4 -7.5 -6.5t-12 -5t-13 -4.5t-17 -4t-17.5 -3t-21.5 -3t-21.5 -3q-65 -11 -93 -29.5t-28 -61.5q0 -75 85 -75q62 0 102.5 35.5t42.5 88.5zM447 0h-93q-1 2 -6 67q-47 -80 -171 -80q-161 0 -161 144q0 37 12.5 64.5t29.5 43t50.5 27t58 16t69.5 10.5
q33 5 47.5 7.5t31 8t23 14t7.5 21.5q0 84 -107 84q-105 0 -113 -95h-93q3 173 210 173q111 0 158 -48.5t47 -145.5v-311zM397 660l-224 -106l-26 46l209 130z" />
    <glyph glyph-name="acircumflex" unicode="&#xe2;" horiz-adv-x="481" 
d="M346 183l1 71q-3 -4 -7.5 -6.5t-12 -5t-13 -4.5t-17 -4t-17.5 -3t-21.5 -3t-21.5 -3q-65 -11 -93 -29.5t-28 -61.5q0 -75 85 -75q62 0 102.5 35.5t42.5 88.5zM447 0h-93q-1 2 -6 67q-47 -80 -171 -80q-161 0 -161 144q0 37 12.5 64.5t29.5 43t50.5 27t58 16t69.5 10.5
q33 5 47.5 7.5t31 8t23 14t7.5 21.5q0 84 -107 84q-105 0 -113 -95h-93q3 173 210 173q111 0 158 -48.5t47 -145.5v-311zM380 561l-139 127l-138 -127l-39 43l132 142h91l132 -142z" />
    <glyph glyph-name="atilde" unicode="&#xe3;" horiz-adv-x="481" 
d="M346 183l1 71q-3 -4 -7.5 -6.5t-12 -5t-13 -4.5t-17 -4t-17.5 -3t-21.5 -3t-21.5 -3q-65 -11 -93 -29.5t-28 -61.5q0 -75 85 -75q62 0 102.5 35.5t42.5 88.5zM447 0h-93q-1 2 -6 67q-47 -80 -171 -80q-161 0 -161 144q0 37 12.5 64.5t29.5 43t50.5 27t58 16t69.5 10.5
q33 5 47.5 7.5t31 8t23 14t7.5 21.5q0 84 -107 84q-105 0 -113 -95h-93q3 173 210 173q111 0 158 -48.5t47 -145.5v-311zM348 696l64 -23q-30 -92 -106 -92q-27 0 -67.5 24t-61.5 24q-30 0 -46 -46l-59 32q29 83 96 83q33 0 74.5 -25.5t58.5 -25.5q14 0 28 12t19 37z" />
    <glyph glyph-name="adieresis" unicode="&#xe4;" horiz-adv-x="481" 
d="M346 183l1 71q-3 -4 -7.5 -6.5t-12 -5t-13 -4.5t-17 -4t-17.5 -3t-21.5 -3t-21.5 -3q-65 -11 -93 -29.5t-28 -61.5q0 -75 85 -75q62 0 102.5 35.5t42.5 88.5zM447 0h-93q-1 2 -6 67q-47 -80 -171 -80q-161 0 -161 144q0 37 12.5 64.5t29.5 43t50.5 27t58 16t69.5 10.5
q33 5 47.5 7.5t31 8t23 14t7.5 21.5q0 84 -107 84q-105 0 -113 -95h-93q3 173 210 173q111 0 158 -48.5t47 -145.5v-311zM209 584h-111v115h111v-115zM409 584h-110v115h110v-115z" />
    <glyph glyph-name="aring" unicode="&#xe5;" horiz-adv-x="481" 
d="M346 183l1 71q-3 -4 -7.5 -6.5t-12 -5t-13 -4.5t-17 -4t-17.5 -3t-21.5 -3t-21.5 -3q-65 -11 -93 -29.5t-28 -61.5q0 -75 85 -75q62 0 102.5 35.5t42.5 88.5zM447 0h-93q-1 2 -6 67q-47 -80 -171 -80q-161 0 -161 144q0 37 12.5 64.5t29.5 43t50.5 27t58 16t69.5 10.5
q33 5 47.5 7.5t31 8t23 14t7.5 21.5q0 84 -107 84q-105 0 -113 -95h-93q3 173 210 173q111 0 158 -48.5t47 -145.5v-311zM343 650q0 -96 -102 -96t-102 96t102 96t102 -96zM298 650q0 57 -57 57q-56 0 -56 -57q0 -56 56 -56q57 0 57 56z" />
    <glyph glyph-name="ae" unicode="&#xe6;" horiz-adv-x="826" 
d="M805 221h-358q3 -74 38.5 -114.5t97.5 -40.5q41 0 71 21t40 58h104q-22 -75 -77.5 -116.5t-133.5 -41.5q-145 0 -203 101q-65 -101 -202 -101q-83 0 -124.5 36.5t-41.5 99.5q0 39 11 67.5t28 45.5t48.5 28.5t59 16.5t73.5 11q59 7 83.5 17.5t25.5 33.5q0 84 -107 84
q-103 0 -113 -95h-93q3 173 210 173q124 0 170 -67q61 67 168 67q110 0 167.5 -73t57.5 -211zM347 254q-14 -15 -110 -29q-66 -10 -93.5 -29.5t-27.5 -62.5q0 -74 88 -74q58 0 101 35.5t43 88.5q0 12 -0.5 35.5t-0.5 35.5zM450 285h252q-1 66 -36 103t-89 37
q-55 0 -89.5 -37.5t-37.5 -102.5z" />
    <glyph glyph-name="ccedilla" unicode="&#xe7;" horiz-adv-x="476" 
d="M360 178h101q-11 -86 -72 -138.5t-150 -52.5q-99 0 -159 68.5t-60 196.5q0 127 60 190t163 63q94 0 153 -50t66 -139h-101q-6 51 -38 78t-80 27q-56 0 -89.5 -40.5t-33.5 -127.5q0 -89 34 -135.5t89 -46.5q45 0 78.5 28.5t38.5 78.5zM205 -233v37q53 5 55 64h-55v78h98
v-53q0 -116 -98 -126z" />
    <glyph glyph-name="egrave" unicode="&#xe8;" horiz-adv-x="497" 
d="M121 285h252q-1 66 -36 103t-89 37q-55 0 -89.5 -37.5t-37.5 -102.5zM476 221h-358q3 -73 38.5 -114t94.5 -41q43 0 73.5 21t40.5 58h104q-47 -158 -218 -158q-113 0 -173 68.5t-60 190.5q0 123 60.5 191t169.5 68q112 0 170 -73t58 -211zM318 554l-223 106l40 70
l210 -130z" />
    <glyph glyph-name="egrave" unicode="&#x450;" horiz-adv-x="497" 
d="M121 285h252q-1 66 -36 103t-89 37q-55 0 -89.5 -37.5t-37.5 -102.5zM476 221h-358q3 -73 38.5 -114t94.5 -41q43 0 73.5 21t40.5 58h104q-47 -158 -218 -158q-113 0 -173 68.5t-60 190.5q0 123 60.5 191t169.5 68q112 0 170 -73t58 -211zM318 554l-223 106l40 70
l210 -130z" />
    <glyph glyph-name="eacute" unicode="&#xe9;" horiz-adv-x="497" 
d="M121 285h252q-1 66 -36 103t-89 37q-55 0 -89.5 -37.5t-37.5 -102.5zM476 221h-358q3 -73 38.5 -114t94.5 -41q43 0 73.5 21t40.5 58h104q-47 -158 -218 -158q-113 0 -173 68.5t-60 190.5q0 123 60.5 191t169.5 68q112 0 170 -73t58 -211zM405 660l-224 -106l-26 46
l209 130z" />
    <glyph glyph-name="ecircumflex" unicode="&#xea;" horiz-adv-x="497" 
d="M121 285h252q-1 66 -36 103t-89 37q-55 0 -89.5 -37.5t-37.5 -102.5zM476 221h-358q3 -73 38.5 -114t94.5 -41q43 0 73.5 21t40.5 58h104q-47 -158 -218 -158q-113 0 -173 68.5t-60 190.5q0 123 60.5 191t169.5 68q112 0 170 -73t58 -211zM389 561l-139 127l-138 -127
l-39 43l132 142h91l132 -142z" />
    <glyph glyph-name="edieresis" unicode="&#xeb;" horiz-adv-x="497" 
d="M121 285h252q-1 66 -36 103t-89 37q-55 0 -89.5 -37.5t-37.5 -102.5zM476 221h-358q3 -73 38.5 -114t94.5 -41q43 0 73.5 21t40.5 58h104q-47 -158 -218 -158q-113 0 -173 68.5t-60 190.5q0 123 60.5 191t169.5 68q112 0 170 -73t58 -211zM211 584h-111v115h111v-115z
M411 584h-110v115h110v-115z" />
    <glyph glyph-name="edieresis" unicode="&#x451;" horiz-adv-x="497" 
d="M121 285h252q-1 66 -36 103t-89 37q-55 0 -89.5 -37.5t-37.5 -102.5zM476 221h-358q3 -73 38.5 -114t94.5 -41q43 0 73.5 21t40.5 58h104q-47 -158 -218 -158q-113 0 -173 68.5t-60 190.5q0 123 60.5 191t169.5 68q112 0 170 -73t58 -211zM211 584h-111v115h111v-115z
M411 584h-110v115h110v-115z" />
    <glyph glyph-name="igrave" unicode="&#xec;" horiz-adv-x="248" 
d="M194 554l-223 106l40 70l210 -130zM172 0h-100v492h100v-492z" />
    <glyph glyph-name="iacute" unicode="&#xed;" horiz-adv-x="248" 
d="M281 660l-224 -106l-26 46l209 130zM172 0h-100v492h100v-492z" />
    <glyph glyph-name="icircumflex" unicode="&#xee;" horiz-adv-x="248" 
d="M172 0h-100v492h100v-492zM264 561l-139 127l-138 -127l-39 43l132 142h91l132 -142z" />
    <glyph glyph-name="idieresis" unicode="&#xef;" horiz-adv-x="248" 
d="M87 584h-111v115h111v-115zM287 584h-110v115h110v-115zM172 0h-100v492h100v-492z" />
    <glyph glyph-name="idieresis" unicode="&#x457;" horiz-adv-x="248" 
d="M87 584h-111v115h111v-115zM287 584h-110v115h110v-115zM172 0h-100v492h100v-492z" />
    <glyph glyph-name="eth" unicode="&#xf0;" horiz-adv-x="513" 
d="M456 655l-66 -40q94 -117 94 -331q0 -82 -19.5 -142t-53 -92.5t-70.5 -47.5t-80 -15q-123 0 -183 69.5t-60 184.5q0 109 57 175.5t158 66.5q105 0 151 -77q-10 93 -64 169l-96 -59l-15 23l95 58q-38 45 -86 75h108q24 -15 45 -36l70 42zM257 70q58 0 95 43t37 126
q0 70 -36.5 114t-98.5 44q-65 0 -99 -43.5t-34 -119.5t35.5 -120t100.5 -44z" />
    <glyph glyph-name="ntilde" unicode="&#xf1;" horiz-adv-x="498" 
d="M464 0h-100v303q0 65 -24.5 91t-76.5 26q-72 0 -103 -42t-31 -123v-255h-100v492h96v-98q42 111 172 111q76 0 121.5 -42.5t45.5 -127.5v-335zM367 696l64 -23q-30 -92 -106 -92q-27 0 -67.5 24t-61.5 24q-30 0 -46 -46l-59 32q29 83 96 83q33 0 74 -25.5t59 -25.5
q14 0 28 12t19 37z" />
    <glyph glyph-name="ograve" unicode="&#xf2;" horiz-adv-x="532" 
d="M265 71q69 0 106 45t37 130q0 84 -36.5 129t-106.5 45t-107 -45t-37 -129t37 -129.5t107 -45.5zM264 -13q-114 0 -180 71.5t-66 187.5q0 118 67 188.5t180 70.5q112 0 178 -70.5t66 -187.5q0 -118 -66 -189t-179 -71zM336 554l-223 106l40 70l210 -130z" />
    <glyph glyph-name="oacute" unicode="&#xf3;" horiz-adv-x="532" 
d="M265 71q69 0 106 45t37 130q0 84 -36.5 129t-106.5 45t-107 -45t-37 -129t37 -129.5t107 -45.5zM264 -13q-114 0 -180 71.5t-66 187.5q0 118 67 188.5t180 70.5q112 0 178 -70.5t66 -187.5q0 -118 -66 -189t-179 -71zM423 660l-224 -106l-26 46l209 130z" />
    <glyph glyph-name="ocircumflex" unicode="&#xf4;" horiz-adv-x="532" 
d="M265 71q69 0 106 45t37 130q0 84 -36.5 129t-106.5 45t-107 -45t-37 -129t37 -129.5t107 -45.5zM264 -13q-114 0 -180 71.5t-66 187.5q0 118 67 188.5t180 70.5q112 0 178 -70.5t66 -187.5q0 -118 -66 -189t-179 -71zM406 561l-139 127l-138 -127l-39 43l132 142h91
l132 -142z" />
    <glyph glyph-name="otilde" unicode="&#xf5;" horiz-adv-x="532" 
d="M265 71q69 0 106 45t37 130q0 84 -36.5 129t-106.5 45t-107 -45t-37 -129t37 -129.5t107 -45.5zM264 -13q-114 0 -180 71.5t-66 187.5q0 118 67 188.5t180 70.5q112 0 178 -70.5t66 -187.5q0 -118 -66 -189t-179 -71zM374 696l64 -23q-30 -92 -106 -92q-27 0 -67.5 24
t-61.5 24q-30 0 -46 -46l-59 32q29 83 96 83q32 0 74 -25.5t59 -25.5q14 0 28 12t19 37z" />
    <glyph glyph-name="odieresis" unicode="&#xf6;" horiz-adv-x="532" 
d="M265 71q69 0 106 45t37 130q0 84 -36.5 129t-106.5 45t-107 -45t-37 -129t37 -129.5t107 -45.5zM264 -13q-114 0 -180 71.5t-66 187.5q0 118 67 188.5t180 70.5q112 0 178 -70.5t66 -187.5q0 -118 -66 -189t-179 -71zM229 584h-111v115h111v-115zM429 584h-110v115h110
v-115z" />
    <glyph glyph-name="divide" unicode="&#xf7;" horiz-adv-x="517" 
d="M486 306h-460v73h460v-73zM311 492h-109v119h109v-119zM311 73h-109v119h109v-119z" />
    <glyph glyph-name="oslash" unicode="&#xf8;" horiz-adv-x="532" 
d="M153 -57l-46 20l26 56q-115 67 -115 227q0 118 67 188.5t180 70.5q43 0 85 -13l24 53l49 -21l-25 -53q111 -68 111 -225q0 -117 -66.5 -188t-177.5 -71q-44 0 -86 13zM171 103l142 310q-24 7 -48 7q-70 0 -107 -45t-37 -129q0 -99 50 -143zM359 387l-144 -309
q21 -7 50 -7q69 0 106 45t37 130q0 97 -49 141z" />
    <glyph glyph-name="ugrave" unicode="&#xf9;" 
d="M461 0h-94v95q-45 -108 -167 -108q-78 0 -124.5 47.5t-46.5 134.5v323h100v-293q0 -67 24.5 -97.5t77.5 -30.5q70 0 100.5 45.5t30.5 118.5v257h99v-492zM317 554l-223 106l40 70l210 -130z" />
    <glyph glyph-name="uacute" unicode="&#xfa;" 
d="M461 0h-94v95q-45 -108 -167 -108q-78 0 -124.5 47.5t-46.5 134.5v323h100v-293q0 -67 24.5 -97.5t77.5 -30.5q70 0 100.5 45.5t30.5 118.5v257h99v-492zM404 660l-224 -106l-26 46l209 130z" />
    <glyph glyph-name="ucircumflex" unicode="&#xfb;" 
d="M461 0h-94v95q-45 -108 -167 -108q-78 0 -124.5 47.5t-46.5 134.5v323h100v-293q0 -67 24.5 -97.5t77.5 -30.5q70 0 100.5 45.5t30.5 118.5v257h99v-492zM387 561l-139 127l-138 -127l-39 43l132 142h91l132 -142z" />
    <glyph glyph-name="udieresis" unicode="&#xfc;" 
d="M461 0h-94v95q-45 -108 -167 -108q-78 0 -124.5 47.5t-46.5 134.5v323h100v-293q0 -67 24.5 -97.5t77.5 -30.5q70 0 100.5 45.5t30.5 118.5v257h99v-492zM216 584h-111v115h111v-115zM416 584h-110v115h110v-115z" />
    <glyph glyph-name="yacute" unicode="&#xfd;" horiz-adv-x="499" 
d="M364 -13v93q-13 -38 -52 -61.5t-97 -23.5q-82 0 -132.5 49t-50.5 136v312h100v-298q0 -118 107 -118q58 0 91.5 31.5t33.5 86.5v298h100v-503q0 -104 -62 -163t-164 -59q-98 0 -153.5 55t-55.5 151h94q0 -55 33 -87.5t86 -32.5q56 0 89 36t33 98zM406 660l-224 -106
l-26 46l209 130z" />
    <glyph glyph-name="thorn" unicode="&#xfe;" horiz-adv-x="517" 
d="M258 69q59 0 96 47t37 126q0 177 -134 177q-63 0 -98.5 -46.5t-35.5 -135.5q0 -72 37 -120t98 -48zM128 -233h-99v905h99v-269q35 102 153 102q101 0 157 -74t56 -189q0 -117 -55 -186t-150 -69q-53 0 -97 25t-64 77v-322z" />
    <glyph glyph-name="ydieresis" unicode="&#xff;" horiz-adv-x="499" 
d="M364 -13v93q-13 -38 -52 -61.5t-97 -23.5q-82 0 -132.5 49t-50.5 136v312h100v-298q0 -118 107 -118q58 0 91.5 31.5t33.5 86.5v298h100v-503q0 -104 -62 -163t-164 -59q-98 0 -153.5 55t-55.5 151h94q0 -55 33 -87.5t86 -32.5q56 0 89 36t33 98zM212 584h-111v115h111
v-115zM412 584h-110v115h110v-115z" />
    <glyph glyph-name="Amacron" unicode="&#x100;" horiz-adv-x="633" 
d="M424 237l-110 310l-111 -310h221zM622 0h-116l-51 149h-281l-55 -149h-113l249 664h122zM505 781h-374v77h374v-77z" />
    <glyph glyph-name="amacron" unicode="&#x101;" horiz-adv-x="481" 
d="M346 183l1 71q-3 -4 -7.5 -6.5t-12 -5t-13 -4.5t-17 -4t-17.5 -3t-21.5 -3t-21.5 -3q-65 -11 -93 -29.5t-28 -61.5q0 -75 85 -75q62 0 102.5 35.5t42.5 88.5zM447 0h-93q-1 2 -6 67q-47 -80 -171 -80q-161 0 -161 144q0 37 12.5 64.5t29.5 43t50.5 27t58 16t69.5 10.5
q33 5 47.5 7.5t31 8t23 14t7.5 21.5q0 84 -107 84q-105 0 -113 -95h-93q3 173 210 173q111 0 158 -48.5t47 -145.5v-311zM429 609h-374v77h374v-77z" />
    <glyph glyph-name="Abreve" unicode="&#x102;" horiz-adv-x="633" 
d="M424 237l-110 310l-111 -310h221zM622 0h-116l-51 149h-281l-55 -149h-113l249 664h122zM408 918h69q0 -79 -46.5 -122.5t-112.5 -43.5t-112.5 43.5t-46.5 122.5h70q1 -47 25 -73t64 -26t64.5 26t25.5 73z" />
    <glyph glyph-name="abreve" unicode="&#x103;" horiz-adv-x="481" 
d="M346 183l1 71q-3 -4 -7.5 -6.5t-12 -5t-13 -4.5t-17 -4t-17.5 -3t-21.5 -3t-21.5 -3q-65 -11 -93 -29.5t-28 -61.5q0 -75 85 -75q62 0 102.5 35.5t42.5 88.5zM447 0h-93q-1 2 -6 67q-47 -80 -171 -80q-161 0 -161 144q0 37 12.5 64.5t29.5 43t50.5 27t58 16t69.5 10.5
q33 5 47.5 7.5t31 8t23 14t7.5 21.5q0 84 -107 84q-105 0 -113 -95h-93q3 173 210 173q111 0 158 -48.5t47 -145.5v-311zM332 746h69q0 -79 -46.5 -122.5t-112.5 -43.5t-112.5 43.5t-46.5 122.5h70q1 -47 25 -73t64 -26t64.5 26t25.5 73z" />
    <glyph glyph-name="Aogonek" unicode="&#x104;" horiz-adv-x="633" 
d="M622 -131v-76q-29 -26 -98 -26q-56 0 -84.5 22t-28.5 61q0 97 172 150h-77l-51 149h-281l-55 -149h-113l249 664h122l245 -664q-74 -31 -99.5 -53t-25.5 -45q0 -44 66 -44q33 0 59 11zM424 237l-110 310l-111 -310h221z" />
    <glyph glyph-name="aogonek" unicode="&#x105;" horiz-adv-x="481" 
d="M447 -131v-76q-29 -26 -98 -26q-56 0 -84.5 22t-28.5 61q0 97 172 150h-54q-1 2 -6 67q-47 -80 -171 -80q-161 0 -161 144q0 37 12.5 64.5t29.5 43t50.5 27t58 16t69.5 10.5q33 5 47.5 7.5t31 8t23 14t7.5 21.5q0 84 -107 84q-105 0 -113 -95h-93q3 173 210 173
q111 0 158 -48.5t47 -145.5v-311q-74 -31 -99.5 -53t-25.5 -45q0 -44 66 -44q33 0 59 11zM346 183l1 71q-3 -4 -7.5 -6.5t-12 -5t-13 -4.5t-17 -4t-17.5 -3t-21.5 -3t-21.5 -3q-65 -11 -93 -29.5t-28 -61.5q0 -75 85 -75q62 0 102.5 35.5t42.5 88.5z" />
    <glyph glyph-name="Cacute" unicode="&#x106;" horiz-adv-x="604" 
d="M490 228h107q-22 -117 -95.5 -184t-186.5 -67q-131 0 -214 91t-83 259q0 165 81.5 262t220.5 97q118 0 192.5 -68t84.5 -172h-107q-7 68 -53 107.5t-117 39.5q-94 0 -143.5 -69.5t-49.5 -194.5t49.5 -192t141.5 -67q74 0 117.5 42t54.5 116zM458 832l-224 -106l-26 46
l209 130z" />
    <glyph glyph-name="cacute" unicode="&#x107;" horiz-adv-x="476" 
d="M360 178h101q-11 -86 -72 -138.5t-150 -52.5q-99 0 -159 68.5t-60 196.5q0 127 60 190t163 63q94 0 153 -50t66 -139h-101q-6 51 -38 78t-80 27q-56 0 -89.5 -40.5t-33.5 -127.5q0 -89 34 -135.5t89 -46.5q45 0 78.5 28.5t38.5 78.5zM394 660l-224 -106l-26 46l209 130z
" />
    <glyph glyph-name="Cdotaccent" unicode="&#x10a;" horiz-adv-x="604" 
d="M490 228h107q-22 -117 -95.5 -184t-186.5 -67q-131 0 -214 91t-83 259q0 165 81.5 262t220.5 97q118 0 192.5 -68t84.5 -172h-107q-7 68 -53 107.5t-117 39.5q-94 0 -143.5 -69.5t-49.5 -194.5t49.5 -192t141.5 -67q74 0 117.5 42t54.5 116zM380 756h-111v115h111v-115z
" />
    <glyph glyph-name="cdotaccent" unicode="&#x10b;" horiz-adv-x="476" 
d="M360 178h101q-11 -86 -72 -138.5t-150 -52.5q-99 0 -159 68.5t-60 196.5q0 127 60 190t163 63q94 0 153 -50t66 -139h-101q-6 51 -38 78t-80 27q-56 0 -89.5 -40.5t-33.5 -127.5q0 -89 34 -135.5t89 -46.5q45 0 78.5 28.5t38.5 78.5zM309 584h-111v115h111v-115z" />
    <glyph glyph-name="Ccaron" unicode="&#x10c;" horiz-adv-x="604" 
d="M490 228h107q-22 -117 -95.5 -184t-186.5 -67q-131 0 -214 91t-83 259q0 165 81.5 262t220.5 97q118 0 192.5 -68t84.5 -172h-107q-7 68 -53 107.5t-117 39.5q-94 0 -143.5 -69.5t-49.5 -194.5t49.5 -192t141.5 -67q74 0 117.5 42t54.5 116zM360 733h-90l-133 142l39 43
l139 -128l138 128l40 -43z" />
    <glyph glyph-name="ccaron" unicode="&#x10d;" horiz-adv-x="476" 
d="M360 178h101q-11 -86 -72 -138.5t-150 -52.5q-99 0 -159 68.5t-60 196.5q0 127 60 190t163 63q94 0 153 -50t66 -139h-101q-6 51 -38 78t-80 27q-56 0 -89.5 -40.5t-33.5 -127.5q0 -89 34 -135.5t89 -46.5q45 0 78.5 28.5t38.5 78.5zM289 561h-90l-133 142l39 43
l139 -128l138 128l40 -43z" />
    <glyph glyph-name="Dcaron" unicode="&#x10e;" horiz-adv-x="599" 
d="M130 87h146q95 0 143.5 65t48.5 186t-50.5 179t-154.5 58h-133v-488zM297 0h-271v664h251q134 0 217 -88t83 -241q0 -148 -77.5 -241.5t-202.5 -93.5zM311 733h-90l-133 142l39 43l139 -128l138 128l40 -43z" />
    <glyph glyph-name="dcaron" unicode="&#x10f;" horiz-adv-x="620" 
d="M254 69q59 0 97 46t38 130q0 78 -34.5 126t-101.5 48q-63 0 -97.5 -44.5t-34.5 -125.5q0 -85 36.5 -132.5t96.5 -47.5zM484 0h-97v88q-41 -101 -156 -101q-94 0 -153 70t-59 192q0 117 55 186.5t147 69.5q116 0 164 -105v272h99v-672zM509 425v43q66 16 66 98h-66v124
h118v-95q0 -77 -26.5 -116.5t-91.5 -53.5z" />
    <glyph glyph-name="dcroat" unicode="&#x111;" horiz-adv-x="517" 
d="M484 0h-93l-1 104q-18 -61 -62 -89t-94 -28q-95 0 -153.5 70t-58.5 193q0 117 54.5 186t149.5 69q54 0 99.5 -27.5t62.5 -90.5v157h-177v65h177v63h96v-63h32v-65h-32v-544zM254 66q62 0 100 45.5t38 132.5q0 80 -36 128t-102 48q-63 0 -98.5 -43t-35.5 -132t36 -134
t98 -45z" />
    <glyph glyph-name="Emacron" unicode="&#x112;" horiz-adv-x="525" 
d="M518 0h-492v664h476v-90h-372v-181h345v-90h-345v-212h388v-91zM451 781h-374v77h374v-77z" />
    <glyph glyph-name="emacron" unicode="&#x113;" horiz-adv-x="497" 
d="M121 285h252q-1 66 -36 103t-89 37q-55 0 -89.5 -37.5t-37.5 -102.5zM476 221h-358q3 -73 38.5 -114t94.5 -41q43 0 73.5 21t40.5 58h104q-47 -158 -218 -158q-113 0 -173 68.5t-60 190.5q0 123 60.5 191t169.5 68q112 0 170 -73t58 -211zM437 609h-374v77h374v-77z" />
    <glyph glyph-name="Ebreve" unicode="&#x114;" horiz-adv-x="525" 
d="M518 0h-492v664h476v-90h-372v-181h345v-90h-345v-212h388v-91zM363 918h69q0 -79 -46.5 -122.5t-112.5 -43.5t-112.5 43.5t-46.5 122.5h70q1 -47 25 -73t64 -26t64.5 26t25.5 73z" />
    <glyph glyph-name="ebreve" unicode="&#x115;" horiz-adv-x="497" 
d="M121 285h252q-1 66 -36 103t-89 37q-55 0 -89.5 -37.5t-37.5 -102.5zM476 221h-358q3 -73 38.5 -114t94.5 -41q43 0 73.5 21t40.5 58h104q-47 -158 -218 -158q-113 0 -173 68.5t-60 190.5q0 123 60.5 191t169.5 68q112 0 170 -73t58 -211zM340 746h69q0 -79 -46.5 -122.5
t-112.5 -43.5t-112.5 43.5t-46.5 122.5h70q1 -47 25 -73t64 -26t64.5 26t25.5 73z" />
    <glyph glyph-name="Edotaccent" unicode="&#x116;" horiz-adv-x="525" 
d="M518 0h-492v664h476v-90h-372v-181h345v-90h-345v-212h388v-91zM334 756h-111v115h111v-115z" />
    <glyph glyph-name="edotaccent" unicode="&#x117;" horiz-adv-x="497" 
d="M121 285h252q-1 66 -36 103t-89 37q-55 0 -89.5 -37.5t-37.5 -102.5zM476 221h-358q3 -73 38.5 -114t94.5 -41q43 0 73.5 21t40.5 58h104q-47 -158 -218 -158q-113 0 -173 68.5t-60 190.5q0 123 60.5 191t169.5 68q112 0 170 -73t58 -211zM312 584h-111v115h111v-115z
" />
    <glyph glyph-name="Eogonek" unicode="&#x118;" horiz-adv-x="525" 
d="M518 -131v-76q-29 -26 -98 -26q-56 0 -84.5 22t-28.5 61q0 97 172 150h-453v664h476v-90h-372v-181h345v-90h-345v-212h388v-91q-74 -31 -99.5 -53t-25.5 -45q0 -44 66 -44q33 0 59 11z" />
    <glyph glyph-name="eogonek" unicode="&#x119;" horiz-adv-x="497" 
d="M337 -131v-76q-29 -26 -98 -26q-56 0 -84.5 22t-28.5 61q0 85 134 137h-2q-118 0 -179 67t-61 190q0 125 60.5 193t169.5 68q112 0 170 -73t58 -211h-358q3 -73 38.5 -114t94.5 -41q43 0 73.5 21t40.5 58h104q-33 -114 -137 -147q-68 -28 -94 -50t-26 -46q0 -44 67 -44
q32 0 58 11zM121 285h252q-1 66 -36 103t-89 37q-55 0 -89.5 -37.5t-37.5 -102.5z" />
    <glyph glyph-name="Ecaron" unicode="&#x11a;" horiz-adv-x="525" 
d="M518 0h-492v664h476v-90h-372v-181h345v-90h-345v-212h388v-91zM310 733h-90l-133 142l39 43l139 -128l138 128l40 -43z" />
    <glyph glyph-name="ecaron" unicode="&#x11b;" horiz-adv-x="497" 
d="M121 285h252q-1 66 -36 103t-89 37q-55 0 -89.5 -37.5t-37.5 -102.5zM476 221h-358q3 -73 38.5 -114t94.5 -41q43 0 73.5 21t40.5 58h104q-47 -158 -218 -158q-113 0 -173 68.5t-60 190.5q0 123 60.5 191t169.5 68q112 0 170 -73t58 -211zM296 561h-90l-133 142l39 43
l139 -128l138 128l40 -43z" />
    <glyph glyph-name="Gbreve" unicode="&#x11e;" horiz-adv-x="650" 
d="M621 0h-89l-2 101q-23 -54 -79 -89t-133 -35q-136 0 -218 104.5t-82 254.5t84 250t233 100q117 0 197 -63t88 -164h-107q-7 60 -58 99t-121 39q-94 0 -150.5 -72.5t-56.5 -188.5q0 -114 54 -191.5t153 -77.5q86 0 136.5 57.5t50.5 138.5h-170v86h270v-349zM423 918h69
q0 -79 -46.5 -122.5t-112.5 -43.5t-112.5 43.5t-46.5 122.5h70q1 -47 25 -73t64 -26t64.5 26t25.5 73z" />
    <glyph glyph-name="gbreve" unicode="&#x11f;" horiz-adv-x="524" 
d="M258 75q61 0 98 45.5t37 127.5q0 80 -36 124.5t-100 44.5q-63 0 -98.5 -43.5t-35.5 -124.5q0 -84 37 -129t98 -45zM390 -13v107q-31 -98 -158 -98q-104 0 -158.5 70.5t-54.5 179.5q0 119 61.5 189t154.5 70q114 0 155 -102v89h100v-497q0 -107 -67.5 -167.5t-171.5 -60.5
q-102 0 -167 56t-65 150h94q0 -56 36.5 -88t95.5 -32q63 0 104 36.5t41 97.5zM349 746h69q0 -79 -46.5 -122.5t-112.5 -43.5t-112.5 43.5t-46.5 122.5h70q1 -47 25 -73t64 -26t64.5 26t25.5 73z" />
    <glyph glyph-name="Gdotaccent" unicode="&#x120;" horiz-adv-x="650" 
d="M621 0h-89l-2 101q-23 -54 -79 -89t-133 -35q-136 0 -218 104.5t-82 254.5t84 250t233 100q117 0 197 -63t88 -164h-107q-7 60 -58 99t-121 39q-94 0 -150.5 -72.5t-56.5 -188.5q0 -114 54 -191.5t153 -77.5q86 0 136.5 57.5t50.5 138.5h-170v86h270v-349zM401 756h-111
v115h111v-115z" />
    <glyph glyph-name="gdotaccent" unicode="&#x121;" horiz-adv-x="524" 
d="M258 75q61 0 98 45.5t37 127.5q0 80 -36 124.5t-100 44.5q-63 0 -98.5 -43.5t-35.5 -124.5q0 -84 37 -129t98 -45zM390 -13v107q-31 -98 -158 -98q-104 0 -158.5 70.5t-54.5 179.5q0 119 61.5 189t154.5 70q114 0 155 -102v89h100v-497q0 -107 -67.5 -167.5t-171.5 -60.5
q-102 0 -167 56t-65 150h94q0 -56 36.5 -88t95.5 -32q63 0 104 36.5t41 97.5zM316 584h-111v115h111v-115z" />
    <glyph glyph-name="Gcommaaccent" unicode="&#x122;" horiz-adv-x="650" 
d="M621 0h-89l-2 101q-23 -54 -79 -89t-133 -35q-136 0 -218 104.5t-82 254.5t84 250t233 100q117 0 197 -63t88 -164h-107q-7 60 -58 99t-121 39q-94 0 -150.5 -72.5t-56.5 -188.5q0 -114 54 -191.5t153 -77.5q86 0 136.5 57.5t50.5 138.5h-170v86h270v-349zM282 -233v37
q53 5 55 64h-55v78h98v-53q0 -116 -98 -126z" />
    <glyph glyph-name="gcommaaccent" unicode="&#x123;" horiz-adv-x="524" 
d="M258 75q61 0 98 45.5t37 127.5q0 80 -36 124.5t-100 44.5q-63 0 -98.5 -43.5t-35.5 -124.5q0 -84 37 -129t98 -45zM390 -13v107q-31 -98 -158 -98q-104 0 -158.5 70.5t-54.5 179.5q0 119 61.5 189t154.5 70q114 0 155 -102v89h100v-497q0 -107 -67.5 -167.5t-171.5 -60.5
q-102 0 -167 56t-65 150h94q0 -56 36.5 -88t95.5 -32q63 0 104 36.5t41 97.5zM304 734v-37q-53 -5 -55 -64h55v-78h-98v53q0 116 98 126z" />
    <glyph glyph-name="Hbar" unicode="&#x126;" horiz-adv-x="579" 
d="M551 0h-108v311h-310v-311h-107v664h107v-94h310v94h108v-664zM133 401h310v92h-310v-92z" />
    <glyph glyph-name="hbar" unicode="&#x127;" horiz-adv-x="496" 
d="M304 540h-175v-140q15 49 60.5 77t100.5 28q80 0 126.5 -42t46.5 -123v-340h-101v308q0 66 -25 91.5t-80 25.5q-66 0 -97 -49t-31 -121v-255h-100v540h-29v77h29v55h100v-55h175v-77z" />
    <glyph glyph-name="hbar" unicode="&#x45b;" horiz-adv-x="496" 
d="M304 540h-175v-140q15 49 60.5 77t100.5 28q80 0 126.5 -42t46.5 -123v-340h-101v308q0 66 -25 91.5t-80 25.5q-66 0 -97 -49t-31 -121v-255h-100v540h-29v77h29v55h100v-55h175v-77z" />
    <glyph glyph-name="Itilde" unicode="&#x128;" horiz-adv-x="161" 
d="M133 0h-107v664h107v-664zM188 868l64 -23q-30 -92 -106 -92q-27 0 -67.5 24t-61.5 24q-30 0 -46 -46l-59 32q29 83 96 83q32 0 74 -25.5t59 -25.5q14 0 28 12t19 37z" />
    <glyph glyph-name="itilde" unicode="&#x129;" horiz-adv-x="248" 
d="M232 696l64 -23q-30 -92 -106 -92q-27 0 -67.5 24t-61.5 24q-30 0 -46 -46l-59 32q29 83 96 83q32 0 74 -25.5t59 -25.5q14 0 28 12t19 37zM172 0h-100v492h100v-492z" />
    <glyph glyph-name="Imacron" unicode="&#x12a;" horiz-adv-x="161" 
d="M133 0h-107v664h107v-664zM270 781h-374v77h374v-77z" />
    <glyph glyph-name="imacron" unicode="&#x12b;" horiz-adv-x="248" 
d="M313 609h-374v77h374v-77zM172 0h-100v492h100v-492z" />
    <glyph glyph-name="Ibreve" unicode="&#x12c;" horiz-adv-x="161" 
d="M133 0h-107v664h107v-664zM173 918h69q0 -79 -46.5 -122.5t-112.5 -43.5t-112.5 43.5t-46.5 122.5h70q1 -47 25 -73t64 -26t64.5 26t25.5 73z" />
    <glyph glyph-name="ibreve" unicode="&#x12d;" horiz-adv-x="248" 
d="M216 746h69q0 -79 -46.5 -122.5t-112.5 -43.5t-112.5 43.5t-46.5 122.5h70q1 -47 25 -73t64 -26t64.5 26t25.5 73zM172 0h-100v492h100v-492z" />
    <glyph glyph-name="Iogonek" unicode="&#x12e;" horiz-adv-x="161" 
d="M133 -131v-76q-29 -26 -98 -26q-56 0 -84.5 22t-28.5 61q0 97 172 150h-68v664h107v-664q-74 -31 -99.5 -53t-25.5 -45q0 -44 66 -44q33 0 59 11z" />
    <glyph glyph-name="iogonek" unicode="&#x12f;" horiz-adv-x="168" 
d="M132 -131v-76q-29 -26 -98 -26q-56 0 -84.5 22t-28.5 61q0 97 172 150h-61v492h100v-492q-74 -31 -99.5 -53t-25.5 -45q0 -44 66 -44q33 0 59 11zM132 551h-100v121h100v-121z" />
    <glyph glyph-name="Idotaccent" unicode="&#x130;" horiz-adv-x="161" 
d="M133 0h-107v664h107v-664zM145 756h-111v115h111v-115z" />
    <glyph glyph-name="dotlessi" unicode="&#x131;" horiz-adv-x="168" 
d="M132 0h-100v492h100v-492z" />
    <glyph glyph-name="IJ" unicode="&#x132;" horiz-adv-x="611" 
d="M133 0h-107v664h107v-664zM474 188v476h107v-485q0 -93 -55 -147.5t-156 -54.5q-97 0 -149.5 52.5t-52.5 153.5v68h97v-63q0 -64 25.5 -94t80.5 -30t79 30.5t24 93.5z" />
    <glyph glyph-name="ij" unicode="&#x133;" horiz-adv-x="339" 
d="M132 0h-100v492h100v-492zM132 551h-100v121h100v-121zM199 -30v522h101v-525q0 -90 -54 -145t-144 -55q-88 0 -136 54.5t-48 151.5h94q2 -118 93 -118q47 0 70.5 30.5t23.5 84.5zM300 551h-101v121h101v-121z" />
    <glyph glyph-name="Kcommaaccent" unicode="&#x136;" horiz-adv-x="588" 
d="M581 0h-130l-216 319l-103 -103v-216h-106v664h106v-319l305 319h139l-265 -266zM258 -233v37q53 5 55 64h-55v78h98v-53q0 -116 -98 -126z" />
    <glyph glyph-name="kcommaaccent" unicode="&#x137;" horiz-adv-x="478" 
d="M466 0h-112l-132 240l-92 -89v-151h-101v672h101v-406l217 226h123l-176 -183zM196 -233v37q53 5 55 64h-55v78h98v-53q0 -116 -98 -126z" />
    <glyph glyph-name="Lacute" unicode="&#x139;" 
d="M483 0h-457v664h107v-571h350v-93zM247 832l-224 -106l-26 46l209 130z" />
    <glyph glyph-name="lacute" unicode="&#x13a;" horiz-adv-x="161" 
d="M129 0h-100v672h100v-672zM238 832l-224 -106l-26 46l209 130z" />
    <glyph glyph-name="Lcommaaccent" unicode="&#x13b;" 
d="M483 0h-457v664h107v-571h350v-93zM218 -233v37q53 5 55 64h-55v78h98v-53q0 -116 -98 -126z" />
    <glyph glyph-name="lcommaaccent" unicode="&#x13c;" horiz-adv-x="161" 
d="M129 0h-100v672h100v-672zM38 -233v37q53 5 55 64h-55v78h98v-53q0 -116 -98 -126z" />
    <glyph glyph-name="Lcaron" unicode="&#x13d;" 
d="M483 0h-457v664h107v-571h350v-93zM181 426v43q66 17 66 98h-66v124h118v-95q0 -77 -26.5 -116.5t-91.5 -53.5z" />
    <glyph glyph-name="lcaron" unicode="&#x13e;" horiz-adv-x="271" 
d="M129 0h-100v672h100v-672zM158 422v43q66 17 66 98h-66v124h118v-95q0 -77 -26.5 -116.5t-91.5 -53.5z" />
    <glyph glyph-name="Lslash" unicode="&#x141;" 
d="M483 0h-457v664h107v-310l156 72v-70l-156 -71v-192h350v-93z" />
    <glyph glyph-name="lslash" unicode="&#x142;" horiz-adv-x="260" 
d="M177 0h-100v283l-74 -35v69l74 34v321h100v-277l75 36v-69l-75 -35v-327z" />
    <glyph glyph-name="Nacute" unicode="&#x143;" horiz-adv-x="583" 
d="M554 0h-99l-329 497v-497h-100v664h114l314 -483v483h100v-664zM448 832l-224 -106l-26 46l209 130z" />
    <glyph glyph-name="nacute" unicode="&#x144;" horiz-adv-x="498" 
d="M464 0h-100v303q0 65 -24.5 91t-76.5 26q-72 0 -103 -42t-31 -123v-255h-100v492h96v-98q42 111 172 111q76 0 121.5 -42.5t45.5 -127.5v-335zM405 660l-224 -106l-26 46l209 130z" />
    <glyph glyph-name="Ncommaaccent" unicode="&#x145;" horiz-adv-x="583" 
d="M554 0h-99l-329 497v-497h-100v664h114l314 -483v483h100v-664zM254 -233v37q53 5 55 64h-55v78h98v-53q0 -116 -98 -126z" />
    <glyph glyph-name="ncommaaccent" unicode="&#x146;" horiz-adv-x="498" 
d="M464 0h-100v303q0 65 -24.5 91t-76.5 26q-72 0 -103 -42t-31 -123v-255h-100v492h96v-98q42 111 172 111q76 0 121.5 -42.5t45.5 -127.5v-335zM209 -233v37q53 5 55 64h-55v78h98v-53q0 -116 -98 -126z" />
    <glyph glyph-name="Ncaron" unicode="&#x147;" horiz-adv-x="583" 
d="M554 0h-99l-329 497v-497h-100v664h114l314 -483v483h100v-664zM344 733h-90l-133 142l39 43l139 -128l138 128l40 -43z" />
    <glyph glyph-name="ncaron" unicode="&#x148;" horiz-adv-x="498" 
d="M464 0h-100v303q0 65 -24.5 91t-76.5 26q-72 0 -103 -42t-31 -123v-255h-100v492h96v-98q42 111 172 111q76 0 121.5 -42.5t45.5 -127.5v-335zM312 561h-90l-133 142l39 43l139 -128l138 128l40 -43z" />
    <glyph glyph-name="Eng" unicode="&#x14a;" horiz-adv-x="583" 
d="M454 -30v31l-328 496v-497h-100v664h114l314 -483v483h100v-697q0 -88 -54 -144t-133 -56q-6 0 -15 0.5t-13 0.5v89q12 -2 22 -2q45 0 69 30.5t24 84.5z" />
    <glyph glyph-name="eng" unicode="&#x14b;" horiz-adv-x="498" 
d="M364 -30v333q0 65 -24.5 91t-76.5 26q-72 0 -103 -42t-31 -123v-255h-100v492h96v-98q42 111 172 111q76 0 121.5 -42.5t45.5 -127.5v-368q0 -88 -54 -144t-133 -56q-6 0 -15 0.5t-13 0.5v89q12 -2 22 -2q45 0 69 30.5t24 84.5z" />
    <glyph glyph-name="Omacron" unicode="&#x14c;" horiz-adv-x="660" 
d="M327 68q96 0 151 64.5t55 194.5q0 127 -52.5 195.5t-151.5 68.5t-152 -69t-53 -197t53 -192.5t150 -64.5zM331 -23q-151 0 -232 90.5t-81 258.5q0 170 81.5 265t230.5 95q148 0 228.5 -95.5t80.5 -267.5q0 -170 -80 -258t-228 -88zM519 781h-374v77h374v-77z" />
    <glyph glyph-name="omacron" unicode="&#x14d;" horiz-adv-x="532" 
d="M265 71q69 0 106 45t37 130q0 84 -36.5 129t-106.5 45t-107 -45t-37 -129t37 -129.5t107 -45.5zM264 -13q-114 0 -180 71.5t-66 187.5q0 118 67 188.5t180 70.5q112 0 178 -70.5t66 -187.5q0 -118 -66 -189t-179 -71zM455 609h-374v77h374v-77z" />
    <glyph glyph-name="Obreve" unicode="&#x14e;" horiz-adv-x="660" 
d="M327 68q96 0 151 64.5t55 194.5q0 127 -52.5 195.5t-151.5 68.5t-152 -69t-53 -197t53 -192.5t150 -64.5zM331 -23q-151 0 -232 90.5t-81 258.5q0 170 81.5 265t230.5 95q148 0 228.5 -95.5t80.5 -267.5q0 -170 -80 -258t-228 -88zM422 918h69q0 -79 -46.5 -122.5
t-112.5 -43.5t-112.5 43.5t-46.5 122.5h70q1 -47 25 -73t64 -26t64.5 26t25.5 73z" />
    <glyph glyph-name="obreve" unicode="&#x14f;" horiz-adv-x="532" 
d="M265 71q69 0 106 45t37 130q0 84 -36.5 129t-106.5 45t-107 -45t-37 -129t37 -129.5t107 -45.5zM264 -13q-114 0 -180 71.5t-66 187.5q0 118 67 188.5t180 70.5q112 0 178 -70.5t66 -187.5q0 -118 -66 -189t-179 -71zM358 746h69q0 -79 -46.5 -122.5t-112.5 -43.5
t-112.5 43.5t-46.5 122.5h70q1 -47 25 -73t64 -26t64.5 26t25.5 73z" />
    <glyph glyph-name="Ohungarumlaut" unicode="&#x150;" horiz-adv-x="660" 
d="M327 68q96 0 151 64.5t55 194.5q0 127 -52.5 195.5t-151.5 68.5t-152 -69t-53 -197t53 -192.5t150 -64.5zM331 -23q-151 0 -232 90.5t-81 258.5q0 170 81.5 265t230.5 95q148 0 228.5 -95.5t80.5 -267.5q0 -170 -80 -258t-228 -88zM254 742l-32 28l136 149l38 -31z
M521 885l-149 -143l-32 28l142 147z" />
    <glyph glyph-name="ohungarumlaut" unicode="&#x151;" horiz-adv-x="532" 
d="M265 71q69 0 106 45t37 130q0 84 -36.5 129t-106.5 45t-107 -45t-37 -129t37 -129.5t107 -45.5zM264 -13q-114 0 -180 71.5t-66 187.5q0 118 67 188.5t180 70.5q112 0 178 -70.5t66 -187.5q0 -118 -66 -189t-179 -71zM184 570l-32 28l136 149l38 -31zM451 713l-149 -143
l-32 28l142 147z" />
    <glyph glyph-name="OE" unicode="&#x152;" horiz-adv-x="949" 
d="M988 0h-524q-60 -23 -134 -23q-149 0 -230.5 90.5t-81.5 258.5q0 170 81.5 265t230.5 95q67 0 125 -22h517v-90h-401q50 -69 64 -181h310v-90h-306q-4 -132 -60 -212h409v-91zM330 68q93 0 148 64.5t55 190.5q0 130 -52.5 199t-150.5 69q-100 0 -153 -69t-53 -199
q0 -127 53 -191t153 -64z" />
    <glyph glyph-name="oe" unicode="&#x153;" horiz-adv-x="881" 
d="M858 221h-357q2 -74 37.5 -114.5t97.5 -40.5q38 0 70 22t42 57h103q-22 -75 -77.5 -116.5t-132.5 -41.5q-137 0 -191 96q-58 -96 -185 -96q-115 0 -181 71.5t-66 187.5q0 118 67 188.5t180 70.5q127 0 186 -96q58 96 182 96q110 0 167.5 -73.5t57.5 -210.5zM265 71
q69 0 106 45t37 130q0 84 -36.5 129t-106.5 45t-107 -45t-37 -129t37 -129.5t107 -45.5zM504 285h251q-1 66 -36 103t-89 37q-55 0 -89.5 -37.5t-36.5 -102.5z" />
    <glyph glyph-name="Racute" unicode="&#x154;" horiz-adv-x="570" 
d="M130 360h200q63 0 93 29.5t30 78.5q0 50 -29 78.5t-87 28.5h-207v-215zM536 0h-104v172q0 54 -26 77.5t-95 23.5h-181v-273h-104v664h328q90 0 144.5 -52.5t54.5 -133.5q0 -60 -30.5 -103t-84.5 -57q53 -11 75.5 -41.5t22.5 -91.5v-185zM441 832l-224 -106l-26 46
l209 130z" />
    <glyph glyph-name="racute" unicode="&#x155;" horiz-adv-x="320" 
d="M129 0h-100v492h94v-88q47 101 162 101h22v-103q-17 3 -36 3q-70 0 -106 -41t-36 -111v-253zM327 660l-224 -106l-26 46l209 130z" />
    <glyph glyph-name="Rcommaaccent" unicode="&#x156;" horiz-adv-x="570" 
d="M130 360h200q63 0 93 29.5t30 78.5q0 50 -29 78.5t-87 28.5h-207v-215zM536 0h-104v172q0 54 -26 77.5t-95 23.5h-181v-273h-104v664h328q90 0 144.5 -52.5t54.5 -133.5q0 -60 -30.5 -103t-84.5 -57q53 -11 75.5 -41.5t22.5 -91.5v-185zM242 -233v37q53 5 55 64h-55v78
h98v-53q0 -116 -98 -126z" />
    <glyph glyph-name="rcommaaccent" unicode="&#x157;" horiz-adv-x="320" 
d="M129 0h-100v492h94v-88q47 101 162 101h22v-103q-17 3 -36 3q-70 0 -106 -41t-36 -111v-253zM39 -233v37q53 5 55 64h-55v78h98v-53q0 -116 -98 -126z" />
    <glyph glyph-name="Rcaron" unicode="&#x158;" horiz-adv-x="570" 
d="M130 360h200q63 0 93 29.5t30 78.5q0 50 -29 78.5t-87 28.5h-207v-215zM536 0h-104v172q0 54 -26 77.5t-95 23.5h-181v-273h-104v664h328q90 0 144.5 -52.5t54.5 -133.5q0 -60 -30.5 -103t-84.5 -57q53 -11 75.5 -41.5t22.5 -91.5v-185zM316 733h-90l-133 142l39 43
l139 -128l138 128l40 -43z" />
    <glyph glyph-name="rcaron" unicode="&#x159;" horiz-adv-x="320" 
d="M129 0h-100v492h94v-88q47 101 162 101h22v-103q-17 3 -36 3q-70 0 -106 -41t-36 -111v-253zM207 561h-90l-133 142l39 43l139 -128l138 128l40 -43z" />
    <glyph glyph-name="Sacute" unicode="&#x15a;" horiz-adv-x="555" 
d="M524 468h-101q-6 127 -157 127q-143 0 -143 -100q0 -59 65 -87q37 -16 113.5 -29t110.5 -25q130 -45 130 -172q0 -98 -68.5 -151.5t-189.5 -53.5q-124 0 -198.5 56.5t-76.5 165.5h103q1 -64 47.5 -100t124.5 -36q72 0 113 30.5t41 85.5q0 64 -70 91q-31 12 -105 25
t-114 28q-64 24 -94 64t-30 101q0 90 61 144t177 54q121 0 190 -59t71 -159zM434 832l-224 -106l-26 46l209 130z" />
    <glyph glyph-name="sacute" unicode="&#x15b;" horiz-adv-x="467" 
d="M439 343h-96q-5 45 -31 65.5t-84 20.5q-101 0 -101 -61q0 -22 13.5 -35.5t43.5 -22.5q15 -5 78.5 -18.5t96.5 -25.5q45 -16 69.5 -43.5t24.5 -77.5q0 -74 -53.5 -116t-155.5 -42q-107 0 -168.5 46t-63.5 125h103q1 -46 35 -70.5t93 -24.5q56 0 84.5 20t28.5 51
q0 33 -41 53q-27 13 -89 27t-70 16q-126 36 -126 132q0 67 50 105t152 38q199 0 207 -162zM390 660l-224 -106l-26 46l209 130z" />
    <glyph glyph-name="Scedilla" unicode="&#x15e;" horiz-adv-x="555" 
d="M524 468h-101q-6 127 -157 127q-143 0 -143 -100q0 -59 65 -87q37 -16 113.5 -29t110.5 -25q130 -45 130 -172q0 -98 -68.5 -151.5t-189.5 -53.5q-124 0 -198.5 56.5t-76.5 165.5h103q1 -64 47.5 -100t124.5 -36q72 0 113 30.5t41 85.5q0 64 -70 91q-31 12 -105 25
t-114 28q-64 24 -94 64t-30 101q0 90 61 144t177 54q121 0 190 -59t71 -159zM235 -233v37q53 5 55 64h-55v78h98v-53q0 -116 -98 -126z" />
    <glyph glyph-name="Scedilla" unicode="&#x218;" horiz-adv-x="555" 
d="M524 468h-101q-6 127 -157 127q-143 0 -143 -100q0 -59 65 -87q37 -16 113.5 -29t110.5 -25q130 -45 130 -172q0 -98 -68.5 -151.5t-189.5 -53.5q-124 0 -198.5 56.5t-76.5 165.5h103q1 -64 47.5 -100t124.5 -36q72 0 113 30.5t41 85.5q0 64 -70 91q-31 12 -105 25
t-114 28q-64 24 -94 64t-30 101q0 90 61 144t177 54q121 0 190 -59t71 -159zM235 -233v37q53 5 55 64h-55v78h98v-53q0 -116 -98 -126z" />
    <glyph glyph-name="scedilla" unicode="&#x15f;" horiz-adv-x="467" 
d="M439 343h-96q-5 45 -31 65.5t-84 20.5q-101 0 -101 -61q0 -22 13.5 -35.5t43.5 -22.5q15 -5 78.5 -18.5t96.5 -25.5q45 -16 69.5 -43.5t24.5 -77.5q0 -74 -53.5 -116t-155.5 -42q-107 0 -168.5 46t-63.5 125h103q1 -46 35 -70.5t93 -24.5q56 0 84.5 20t28.5 51
q0 33 -41 53q-27 13 -89 27t-70 16q-126 36 -126 132q0 67 50 105t152 38q199 0 207 -162zM201 -233v37q53 5 55 64h-55v78h98v-53q0 -116 -98 -126z" />
    <glyph glyph-name="scedilla" unicode="&#x219;" horiz-adv-x="467" 
d="M439 343h-96q-5 45 -31 65.5t-84 20.5q-101 0 -101 -61q0 -22 13.5 -35.5t43.5 -22.5q15 -5 78.5 -18.5t96.5 -25.5q45 -16 69.5 -43.5t24.5 -77.5q0 -74 -53.5 -116t-155.5 -42q-107 0 -168.5 46t-63.5 125h103q1 -46 35 -70.5t93 -24.5q56 0 84.5 20t28.5 51
q0 33 -41 53q-27 13 -89 27t-70 16q-126 36 -126 132q0 67 50 105t152 38q199 0 207 -162zM201 -233v37q53 5 55 64h-55v78h98v-53q0 -116 -98 -126z" />
    <glyph glyph-name="Scaron" unicode="&#x160;" horiz-adv-x="555" 
d="M524 468h-101q-6 127 -157 127q-143 0 -143 -100q0 -59 65 -87q37 -16 113.5 -29t110.5 -25q130 -45 130 -172q0 -98 -68.5 -151.5t-189.5 -53.5q-124 0 -198.5 56.5t-76.5 165.5h103q1 -64 47.5 -100t124.5 -36q72 0 113 30.5t41 85.5q0 64 -70 91q-31 12 -105 25
t-114 28q-64 24 -94 64t-30 101q0 90 61 144t177 54q121 0 190 -59t71 -159zM321 733h-90l-133 142l39 43l139 -128l138 128l40 -43z" />
    <glyph glyph-name="scaron" unicode="&#x161;" horiz-adv-x="467" 
d="M439 343h-96q-5 45 -31 65.5t-84 20.5q-101 0 -101 -61q0 -22 13.5 -35.5t43.5 -22.5q15 -5 78.5 -18.5t96.5 -25.5q45 -16 69.5 -43.5t24.5 -77.5q0 -74 -53.5 -116t-155.5 -42q-107 0 -168.5 46t-63.5 125h103q1 -46 35 -70.5t93 -24.5q56 0 84.5 20t28.5 51
q0 33 -41 53q-27 13 -89 27t-70 16q-126 36 -126 132q0 67 50 105t152 38q199 0 207 -162zM281 561h-90l-133 142l39 43l139 -128l138 128l40 -43z" />
    <glyph glyph-name="Tcommaaccent" unicode="&#x162;" horiz-adv-x="546" 
d="M324 0h-107v574h-210v90h527v-90h-210v-574zM230 -233v37q53 5 55 64h-55v78h98v-53q0 -116 -98 -126z" />
    <glyph glyph-name="Tcommaaccent" unicode="&#x21a;" horiz-adv-x="546" 
d="M324 0h-107v574h-210v90h527v-90h-210v-574zM230 -233v37q53 5 55 64h-55v78h98v-53q0 -116 -98 -126z" />
    <glyph glyph-name="tcommaaccent" unicode="&#x163;" horiz-adv-x="449" 
d="M326 193v131h93v-140q0 -85 -49 -141t-145 -56q-99 0 -147.5 56t-48.5 142v440h99v-133h291v-72h-291v-226q0 -120 99 -120q49 0 74 32t25 87zM182 -233v37q53 5 55 64h-55v78h98v-53q0 -116 -98 -126z" />
    <glyph glyph-name="tcommaaccent" unicode="&#x21b;" horiz-adv-x="449" 
d="M326 193v131h93v-140q0 -85 -49 -141t-145 -56q-99 0 -147.5 56t-48.5 142v440h99v-133h291v-72h-291v-226q0 -120 99 -120q49 0 74 32t25 87zM182 -233v37q53 5 55 64h-55v78h98v-53q0 -116 -98 -126z" />
    <glyph glyph-name="Tcaron" unicode="&#x164;" horiz-adv-x="546" 
d="M324 0h-107v574h-210v90h527v-90h-210v-574zM320 733h-90l-133 142l39 43l139 -128l138 128l40 -43z" />
    <glyph glyph-name="tcaron" unicode="&#x165;" horiz-adv-x="548" 
d="M326 193v131h93v-140q0 -85 -49 -141t-145 -56q-99 0 -147.5 56t-48.5 142v440h99v-133h291v-72h-291v-226q0 -120 99 -120q49 0 74 32t25 87zM437 426v43q66 17 66 98h-66v124h118v-95q0 -77 -26.5 -116.5t-91.5 -53.5z" />
    <glyph glyph-name="Tbar" unicode="&#x166;" horiz-adv-x="546" 
d="M324 0h-107v274h-97v79h97v221h-210v90h527v-90h-210v-221h98v-79h-98v-274z" />
    <glyph glyph-name="tbar" unicode="&#x167;" horiz-adv-x="449" 
d="M412 276h-284v-82q0 -120 99 -120q49 0 74 32t25 87v31h93v-40q0 -85 -48.5 -141t-146.5 -56t-146.5 56t-48.5 142v440h99v-133h291v-72h-291v-73h284v-71z" />
    <glyph glyph-name="Utilde" unicode="&#x168;" horiz-adv-x="578" 
d="M439 221v443h109v-443q0 -119 -69 -181.5t-196 -62.5q-122 0 -189.5 59.5t-67.5 176.5v451h109v-442q0 -75 38.5 -116t113.5 -41q72 0 112 39.5t40 116.5zM397 868l64 -23q-30 -92 -106 -92q-27 0 -67.5 24t-61.5 24q-30 0 -46 -46l-59 32q29 83 96 83q33 0 74 -25.5
t59 -25.5q14 0 28 12t19 37z" />
    <glyph glyph-name="utilde" unicode="&#x169;" 
d="M461 0h-94v95q-45 -108 -167 -108q-78 0 -124.5 47.5t-46.5 134.5v323h100v-293q0 -67 24.5 -97.5t77.5 -30.5q70 0 100.5 45.5t30.5 118.5v257h99v-492zM361 696l64 -23q-30 -92 -106 -92q-27 0 -67.5 24t-61.5 24q-30 0 -46 -46l-59 32q29 83 96 83q33 0 74 -25.5
t59 -25.5q14 0 28 12t19 37z" />
    <glyph glyph-name="Umacron" unicode="&#x16a;" horiz-adv-x="578" 
d="M439 221v443h109v-443q0 -119 -69 -181.5t-196 -62.5q-122 0 -189.5 59.5t-67.5 176.5v451h109v-442q0 -75 38.5 -116t113.5 -41q72 0 112 39.5t40 116.5zM478 781h-374v77h374v-77z" />
    <glyph glyph-name="umacron" unicode="&#x16b;" 
d="M461 0h-94v95q-45 -108 -167 -108q-78 0 -124.5 47.5t-46.5 134.5v323h100v-293q0 -67 24.5 -97.5t77.5 -30.5q70 0 100.5 45.5t30.5 118.5v257h99v-492zM437 609h-374v77h374v-77z" />
    <glyph glyph-name="Ubreve" unicode="&#x16c;" horiz-adv-x="578" 
d="M439 221v443h109v-443q0 -119 -69 -181.5t-196 -62.5q-122 0 -189.5 59.5t-67.5 176.5v451h109v-442q0 -75 38.5 -116t113.5 -41q72 0 112 39.5t40 116.5zM381 918h69q0 -79 -46.5 -122.5t-112.5 -43.5t-112.5 43.5t-46.5 122.5h70q1 -47 25 -73t64 -26t64.5 26t25.5 73z
" />
    <glyph glyph-name="ubreve" unicode="&#x16d;" 
d="M461 0h-94v95q-45 -108 -167 -108q-78 0 -124.5 47.5t-46.5 134.5v323h100v-293q0 -67 24.5 -97.5t77.5 -30.5q70 0 100.5 45.5t30.5 118.5v257h99v-492zM339 746h69q0 -79 -46.5 -122.5t-112.5 -43.5t-112.5 43.5t-46.5 122.5h70q1 -47 25 -73t64 -26t64.5 26t25.5 73z
" />
    <glyph glyph-name="Uring" unicode="&#x16e;" horiz-adv-x="578" 
d="M439 221v443h109v-443q0 -119 -69 -181.5t-196 -62.5q-122 0 -189.5 59.5t-67.5 176.5v451h109v-442q0 -75 38.5 -116t113.5 -41q72 0 112 39.5t40 116.5zM392 822q0 -96 -102 -96t-102 96t102 96t102 -96zM347 822q0 57 -57 57q-56 0 -56 -57q0 -56 56 -56q57 0 57 56z
" />
    <glyph glyph-name="uring" unicode="&#x16f;" 
d="M461 0h-94v95q-45 -108 -167 -108q-78 0 -124.5 47.5t-46.5 134.5v323h100v-293q0 -67 24.5 -97.5t77.5 -30.5q70 0 100.5 45.5t30.5 118.5v257h99v-492zM351 650q0 -96 -102 -96t-102 96t102 96t102 -96zM306 650q0 57 -57 57q-56 0 -56 -57q0 -56 56 -56q57 0 57 56z
" />
    <glyph glyph-name="Uhungarumlaut" unicode="&#x170;" horiz-adv-x="578" 
d="M439 221v443h109v-443q0 -119 -69 -181.5t-196 -62.5q-122 0 -189.5 59.5t-67.5 176.5v451h109v-442q0 -75 38.5 -116t113.5 -41q72 0 112 39.5t40 116.5zM207 742l-32 28l136 149l38 -31zM474 885l-149 -143l-32 28l142 147z" />
    <glyph glyph-name="uhungarumlaut" unicode="&#x171;" 
d="M461 0h-94v95q-45 -108 -167 -108q-78 0 -124.5 47.5t-46.5 134.5v323h100v-293q0 -67 24.5 -97.5t77.5 -30.5q70 0 100.5 45.5t30.5 118.5v257h99v-492zM165 570l-32 28l136 149l38 -31zM432 713l-149 -143l-32 28l142 147z" />
    <glyph glyph-name="Uogonek" unicode="&#x172;" horiz-adv-x="578" 
d="M415 -131v-76q-29 -26 -98 -26q-56 0 -84.5 22t-28.5 61q0 78 113 129q-22 -2 -39 -2q-118 0 -185 59.5t-67 176.5v451h109v-442q0 -75 38.5 -116t113.5 -41q72 0 112 39.5t40 116.5v443h109v-443q0 -174 -142 -224q-68 -29 -92 -51t-24 -44q0 -44 66 -44q33 0 59 11z
" />
    <glyph glyph-name="uogonek" unicode="&#x173;" 
d="M461 -131v-76q-29 -26 -98 -26q-56 0 -84.5 22t-28.5 61q0 97 172 150h-55v95q-45 -108 -167 -108q-78 0 -124.5 47.5t-46.5 134.5v323h100v-293q0 -67 24.5 -97.5t77.5 -30.5q70 0 100.5 45.5t30.5 118.5v257h99v-492q-74 -31 -99.5 -53t-25.5 -45q0 -44 66 -44
q33 0 59 11z" />
    <glyph glyph-name="Wcircumflex" unicode="&#x174;" horiz-adv-x="841" 
d="M649 0h-104l-126 486l-128 -486h-101l-184 664h114l124 -485l118 485h112l125 -485l123 485h109zM560 733l-139 127l-138 -127l-39 43l132 142h91l132 -142z" />
    <glyph glyph-name="wcircumflex" unicode="&#x175;" horiz-adv-x="702" 
d="M547 0h-102l-96 332l-96 -332h-103l-144 492h106l97 -357l89 357h102l95 -357l93 357h104zM491 561l-139 127l-138 -127l-39 43l132 142h91l132 -142z" />
    <glyph glyph-name="Ycircumflex" unicode="&#x176;" horiz-adv-x="593" 
d="M351 0h-107v261l-238 403h125l168 -293l160 293h124l-232 -404v-260zM443 733l-139 127l-138 -127l-39 43l132 142h91l132 -142z" />
    <glyph glyph-name="ycircumflex" unicode="&#x177;" horiz-adv-x="499" 
d="M364 -13v93q-13 -38 -52 -61.5t-97 -23.5q-82 0 -132.5 49t-50.5 136v312h100v-298q0 -118 107 -118q58 0 91.5 31.5t33.5 86.5v298h100v-503q0 -104 -62 -163t-164 -59q-98 0 -153.5 55t-55.5 151h94q0 -55 33 -87.5t86 -32.5q56 0 89 36t33 98zM389 561l-139 127
l-138 -127l-39 43l132 142h91l132 -142z" />
    <glyph glyph-name="Ydieresis" unicode="&#x178;" horiz-adv-x="593" 
d="M351 0h-107v261l-238 403h125l168 -293l160 293h124l-232 -404v-260zM255 756h-111v115h111v-115zM455 756h-110v115h110v-115z" />
    <glyph glyph-name="Ydieresis" unicode="&#x3ab;" horiz-adv-x="593" 
d="M351 0h-107v261l-238 403h125l168 -293l160 293h124l-232 -404v-260zM255 756h-111v115h111v-115zM455 756h-110v115h110v-115z" />
    <glyph glyph-name="Zacute" unicode="&#x179;" horiz-adv-x="525" 
d="M513 0h-506v91l373 483h-363v90h496v-85l-374 -488h374v-91zM419 832l-224 -106l-26 46l209 130z" />
    <glyph glyph-name="zacute" unicode="&#x17a;" horiz-adv-x="440" 
d="M426 0h-414v77l281 335h-264v80h390v-81l-282 -329h289v-82zM377 660l-224 -106l-26 46l209 130z" />
    <glyph glyph-name="Zdotaccent" unicode="&#x17b;" horiz-adv-x="525" 
d="M513 0h-506v91l373 483h-363v90h496v-85l-374 -488h374v-91zM328 756h-111v115h111v-115z" />
    <glyph glyph-name="zdotaccent" unicode="&#x17c;" horiz-adv-x="440" 
d="M426 0h-414v77l281 335h-264v80h390v-81l-282 -329h289v-82zM285 584h-111v115h111v-115z" />
    <glyph glyph-name="Zcaron" unicode="&#x17d;" horiz-adv-x="525" 
d="M513 0h-506v91l373 483h-363v90h496v-85l-374 -488h374v-91zM310 733h-90l-133 142l39 43l139 -128l138 128l40 -43z" />
    <glyph glyph-name="zcaron" unicode="&#x17e;" horiz-adv-x="440" 
d="M426 0h-414v77l281 335h-264v80h390v-81l-282 -329h289v-82zM268 561h-90l-133 142l39 43l139 -128l138 128l40 -43z" />
    <glyph glyph-name="uni018E" unicode="&#x18e;" horiz-adv-x="525" 
d="M495 0h-489v88h389v215h-347v89h347v184h-374v88h474v-664z" />
    <glyph glyph-name="uni018F" unicode="&#x18f;" horiz-adv-x="660" 
d="M335 -23q-308 0 -308 388h509q-5 110 -57 169t-146 59q-143 0 -188 -148h-109q26 116 101 178.5t194 62.5q148 0 228 -95t80 -267q0 -171 -79 -259t-225 -88zM332 66q91 0 145.5 56.5t58.5 166.5h-412q9 -110 63 -166.5t145 -56.5z" />
    <glyph glyph-name="uni018F" unicode="&#x4d8;" horiz-adv-x="660" 
d="M335 -23q-308 0 -308 388h509q-5 110 -57 169t-146 59q-143 0 -188 -148h-109q26 116 101 178.5t194 62.5q148 0 228 -95t80 -267q0 -171 -79 -259t-225 -88zM332 66q91 0 145.5 56.5t58.5 166.5h-412q9 -110 63 -166.5t145 -56.5z" />
    <glyph glyph-name="florin" unicode="&#x192;" horiz-adv-x="540" 
d="M69 -173h-44v86h56q83 0 97 104l50 359h-82v78h93l5 35q13 96 73.5 139.5t147.5 43.5h45v-87h-57q-82 0 -97 -103l-4 -28h95v-78h-107l-50 -356q-27 -193 -221 -193z" />
    <glyph glyph-name="uni0194" unicode="&#x194;" horiz-adv-x="584" 
d="M292 -233q-71 0 -102.5 29t-31.5 98q0 36 16 87t70 176l-235 507h111l171 -397l172 397h111l-235 -507q54 -125 70 -176t16 -87q0 -69 -31 -98t-102 -29zM291 55q-57 -123 -57 -171q0 -33 13 -48.5t44 -15.5t44 15.5t13 48.5q0 51 -57 171z" />
    <glyph glyph-name="uni019D" unicode="&#x19d;" horiz-adv-x="583" 
d="M555 0h-97l-332 502v-535q0 -88 -54 -144t-137 -56q-19 0 -37 3v91q13 -7 34 -7q46 0 71.5 31.5t25.5 84.5v694h111l318 -488v488h97v-664z" />
    <glyph glyph-name="Ohorn" unicode="&#x1a0;" horiz-adv-x="756" 
d="M682 702h55q21 -24 21 -79q0 -54 -24.5 -80t-67.5 -26q-35 0 -70 14q43 -86 43 -209q0 -169 -80 -257t-228 -88q-151 0 -232 90.5t-81 258.5q0 169 81.5 264.5t228.5 95.5q138 0 216 -87q40 -30 90 -30q60 0 60 71q0 38 -12 62zM327 68q96 0 151 64.5t55 194.5
q0 127 -52.5 195.5t-151.5 68.5t-152 -69t-53 -197t53 -192.5t150 -64.5z" />
    <glyph glyph-name="ohorn" unicode="&#x1a1;" horiz-adv-x="641" 
d="M567 543h55q21 -24 21 -79q0 -106 -89 -106q-38 0 -70 13q25 -56 25 -126q0 -117 -66.5 -187.5t-178.5 -70.5q-113 0 -179.5 71.5t-66.5 187.5q0 117 67 188t178 71q104 0 167 -65q45 -30 89 -30q60 0 60 71q0 38 -12 62zM265 71q69 0 106 45t37 130q0 84 -36.5 129
t-106.5 45t-107 -45t-37 -129t37 -129.5t107 -45.5z" />
    <glyph glyph-name="Uhorn" unicode="&#x1af;" horiz-adv-x="736" 
d="M439 221v443h109v-84q29 -11 57 -11q32 0 45.5 18t13.5 54q0 39 -11 61h55q20 -25 20 -79q0 -53 -24.5 -80t-66.5 -27t-89 25v-320q0 -119 -69 -181.5t-196 -62.5q-122 0 -189.5 59.5t-67.5 176.5v451h109v-442q0 -75 38.5 -116t113.5 -41q72 0 112 39.5t40 116.5z" />
    <glyph glyph-name="uhorn" unicode="&#x1b0;" horiz-adv-x="629" 
d="M461 0h-94v95q-45 -108 -167 -108q-78 0 -124.5 47.5t-46.5 134.5v323h100v-308q0 -113 102 -113q68 0 99.5 44t31.5 114v263h99v-75q19 -7 49 -7q55 0 55 71q0 37 -11 62h55q20 -25 20 -79t-24.5 -80t-67.5 -26q-36 0 -76 17v-375z" />
    <glyph glyph-name="uni01DD" unicode="&#x1dd;" horiz-adv-x="497" 
d="M376 207h-252q1 -66 36 -103t89 -37q55 0 89.5 37.5t37.5 102.5zM21 271h358q-3 73 -38.5 114t-94.5 41q-43 0 -73.5 -21t-40.5 -58h-104q47 158 218 158q113 0 173 -68.5t60 -190.5q0 -123 -60.5 -191t-169.5 -68q-112 0 -170 73t-58 211z" />
    <glyph glyph-name="uni01DD" unicode="&#x4d9;" horiz-adv-x="497" 
d="M376 207h-252q1 -66 36 -103t89 -37q55 0 89.5 37.5t37.5 102.5zM21 271h358q-3 73 -38.5 114t-94.5 41q-43 0 -73.5 -21t-40.5 -58h-104q47 158 218 158q113 0 173 -68.5t60 -190.5q0 -123 -60.5 -191t-169.5 -68q-112 0 -170 73t-58 211z" />
    <glyph glyph-name="uni01E6" unicode="&#x1e6;" horiz-adv-x="650" 
d="M621 0h-89l-2 101q-23 -54 -79 -89t-133 -35q-136 0 -218 104.5t-82 254.5t84 250t233 100q117 0 197 -63t88 -164h-107q-7 60 -58 99t-121 39q-94 0 -150.5 -72.5t-56.5 -188.5q0 -114 54 -191.5t153 -77.5q86 0 136.5 57.5t50.5 138.5h-170v86h270v-349zM372 733h-90
l-133 142l39 43l139 -128l138 128l40 -43z" />
    <glyph glyph-name="uni01E7" unicode="&#x1e7;" horiz-adv-x="524" 
d="M258 75q61 0 98 45.5t37 127.5q0 80 -36 124.5t-100 44.5q-63 0 -98.5 -43.5t-35.5 -124.5q0 -84 37 -129t98 -45zM390 -13v107q-31 -98 -158 -98q-104 0 -158.5 70.5t-54.5 179.5q0 119 61.5 189t154.5 70q114 0 155 -102v89h100v-497q0 -107 -67.5 -167.5t-171.5 -60.5
q-102 0 -167 56t-65 150h94q0 -56 36.5 -88t95.5 -32q63 0 104 36.5t41 97.5zM304 561h-90l-133 142l39 43l139 -128l138 128l40 -43z" />
    <glyph glyph-name="uni01F4" unicode="&#x1f4;" horiz-adv-x="650" 
d="M621 0h-89l-2 101q-23 -54 -79 -89t-133 -35q-136 0 -218 104.5t-82 254.5t84 250t233 100q117 0 197 -63t88 -164h-107q-7 60 -58 99t-121 39q-94 0 -150.5 -72.5t-56.5 -188.5q0 -114 54 -191.5t153 -77.5q86 0 136.5 57.5t50.5 138.5h-170v86h270v-349zM482 832
l-224 -106l-26 46l209 130z" />
    <glyph glyph-name="uni01F5" unicode="&#x1f5;" horiz-adv-x="524" 
d="M258 75q61 0 98 45.5t37 127.5q0 80 -36 124.5t-100 44.5q-63 0 -98.5 -43.5t-35.5 -124.5q0 -84 37 -129t98 -45zM390 -13v107q-31 -98 -158 -98q-104 0 -158.5 70.5t-54.5 179.5q0 119 61.5 189t154.5 70q114 0 155 -102v89h100v-497q0 -107 -67.5 -167.5t-171.5 -60.5
q-102 0 -167 56t-65 150h94q0 -56 36.5 -88t95.5 -32q63 0 104 36.5t41 97.5zM413 660l-224 -106l-26 46l209 130z" />
    <glyph glyph-name="uni01F8" unicode="&#x1f8;" horiz-adv-x="583" 
d="M554 0h-99l-329 497v-497h-100v664h114l314 -483v483h100v-664zM361 726l-223 106l40 70l210 -130z" />
    <glyph glyph-name="uni01F9" unicode="&#x1f9;" horiz-adv-x="498" 
d="M464 0h-100v303q0 65 -24.5 91t-76.5 26q-72 0 -103 -42t-31 -123v-255h-100v492h96v-98q42 111 172 111q76 0 121.5 -42.5t45.5 -127.5v-335zM318 554l-223 106l40 70l210 -130z" />
    <glyph glyph-name="dotlessj" unicode="&#x237;" horiz-adv-x="197" 
d="M65 -30v522h100v-525q0 -89 -53.5 -144.5t-139.5 -55.5q-92 0 -140.5 54.5t-48.5 151.5h94q2 -118 93 -118q47 0 71 30.5t24 84.5z" />
    <glyph glyph-name="uni0241" unicode="&#x241;" horiz-adv-x="486" 
d="M295 0h-105v186q0 62 19 106.5t68 77.5q3 2 17.5 11.5t21 14.5t18.5 16.5t17.5 22t10.5 27t5 35.5q0 55 -34 81.5t-89 26.5q-123 0 -128 -134h-94q0 102 56.5 158.5t170.5 56.5q103 0 160.5 -48t57.5 -141q0 -41 -14 -71t-30 -45t-53 -42q-45 -33 -60 -63.5t-15 -89.5
v-186z" />
    <glyph glyph-name="uni0242" unicode="&#x242;" horiz-adv-x="486" 
d="M292 0h-98v75q0 61 20.5 95t62.5 64q35 25 49 36.5t24.5 29t10.5 39.5q0 84 -109 84q-66 0 -97 -28.5t-31 -74.5h-98q0 88 55 136.5t168 48.5q101 0 156 -40.5t55 -121.5q0 -35 -13 -61t-29 -40t-52 -39q-31 -21 -43.5 -32.5t-21.5 -35t-9 -60.5v-75z" />
    <glyph glyph-name="uni024C" unicode="&#x24c;" horiz-adv-x="685" 
d="M651 0h-104v172q0 54 -26 77.5t-95 23.5h-181v-273h-104v273h-142v87h142v304h328q90 0 144.5 -52.5t54.5 -133.5q0 -60 -30.5 -103t-84.5 -57q53 -11 75.5 -41.5t22.5 -91.5v-185zM245 360h200q63 0 93 29.5t30 78.5q0 50 -29 78.5t-87 28.5h-207v-215z" />
    <glyph glyph-name="uni024D" unicode="&#x24d;" horiz-adv-x="385" 
d="M195 0h-100v187h-95v77h95v228h94v-88q47 101 162 101h22v-103q-17 3 -36 3q-67 0 -103 -38t-39 -103h179v-77h-179v-187z" />
    <glyph glyph-name="uni0263" unicode="&#x263;" 
d="M247 -233q-66 0 -98.5 26t-32.5 89q0 24 15 66.5t69 159.5l-191 384h106l130 -285l132 285h108l-194 -385q56 -121 71 -161.5t15 -66.5q0 -61 -32.5 -86.5t-97.5 -25.5zM246 16q-47 -93 -47 -138q0 -26 10.5 -38.5t37.5 -12.5q48 0 48 51q0 40 -49 138z" />
    <glyph glyph-name="uni0272" unicode="&#x272;" horiz-adv-x="498" 
d="M465 0h-98v310q0 114 -106 114q-35 0 -60 -11.5t-38.5 -29.5t-21.5 -47t-10 -55t-2 -64v-250q0 -88 -53.5 -144t-132.5 -56q-13 0 -29 2v90q8 -4 24 -4q55 0 74 37t19 109v491h94v-101q38 114 170 114q77 0 123.5 -42t46.5 -125v-338z" />
    <glyph glyph-name="circumflex" unicode="&#x2c6;" horiz-adv-x="451" 
d="M366 561l-139 127l-138 -127l-39 43l132 142h91l132 -142z" />
    <glyph glyph-name="caron" unicode="&#x2c7;" horiz-adv-x="450" 
d="M273 561h-90l-133 142l39 43l139 -128l138 128l40 -43z" />
    <glyph glyph-name="uni02C9" unicode="&#x2c9;" horiz-adv-x="469" 
d="M424 609h-374v77h374v-77z" />
    <glyph glyph-name="breve" unicode="&#x2d8;" horiz-adv-x="414" 
d="M299 746h69q0 -79 -46.5 -122.5t-112.5 -43.5t-112.5 43.5t-46.5 122.5h70q1 -47 25 -73t64 -26t64.5 26t25.5 73z" />
    <glyph glyph-name="dotaccent" unicode="&#x2d9;" horiz-adv-x="194" 
d="M161 584h-111v115h111v-115z" />
    <glyph glyph-name="ring" unicode="&#x2da;" horiz-adv-x="301" 
d="M254 650q0 -96 -102 -96t-102 96t102 96t102 -96zM209 650q0 57 -57 57q-56 0 -56 -57q0 -56 56 -56q57 0 57 56z" />
    <glyph glyph-name="ogonek" unicode="&#x2db;" horiz-adv-x="308" 
d="M261 -131v-76q-31 -26 -103 -26q-52 0 -80 22.5t-28 62.5q0 48 45.5 85.5t126.5 62.5h39q-76 -32 -100.5 -53.5t-24.5 -48.5q0 -40 68 -40q31 0 57 11z" />
    <glyph glyph-name="tilde" unicode="&#x2dc;" horiz-adv-x="436" 
d="M326 696l64 -23q-30 -92 -106 -92q-27 0 -67.5 24t-61.5 24q-30 0 -46 -46l-59 32q29 83 96 83q32 0 74 -25.5t59 -25.5q14 0 28 12t19 37z" />
    <glyph glyph-name="hungarumlaut" unicode="&#x2dd;" horiz-adv-x="387" 
d="M82 570l-32 28l136 149l38 -31zM349 713l-149 -143l-32 28l142 147z" />
    <glyph glyph-name="gravecomb" unicode="&#x300;" horiz-adv-x="0" 
d="M-178 554l-223 106l40 70l210 -130z" />
    <glyph glyph-name="acutecomb" unicode="&#x301;" horiz-adv-x="0" 
d="M-91 660l-224 -106l-26 46l209 130z" />
    <glyph glyph-name="uni0302" unicode="&#x302;" horiz-adv-x="0" 
d="M-108 561l-139 127l-138 -127l-39 43l132 142h91l132 -142z" />
    <glyph glyph-name="tildecomb" unicode="&#x303;" horiz-adv-x="363" 
d="M267 743l43 -12q-17 -59 -76 -59q-18 0 -52.5 12.5t-46.5 12.5q-19 0 -34 -35l-41 18q18 61 69 61q25 0 57 -14t47 -14q25 0 34 30zM317 579l-29 -25l-104 75l-104 -75l-30 25l99 85h69z" />
    <glyph glyph-name="uni0304" unicode="&#x304;" horiz-adv-x="0" 
d="M-60 609h-374v77h374v-77z" />
    <glyph glyph-name="uni0306" unicode="&#x306;" horiz-adv-x="0" 
d="M-157 746h69q0 -79 -46.5 -122.5t-112.5 -43.5t-112.5 43.5t-46.5 122.5h70q1 -47 25 -73t64 -26t64.5 26t25.5 73z" />
    <glyph glyph-name="uni0307" unicode="&#x307;" horiz-adv-x="0" 
d="M-185 584h-111v115h111v-115z" />
    <glyph glyph-name="uni0308" unicode="&#x308;" horiz-adv-x="0" 
d="M-285 584h-111v115h111v-115zM-85 584h-110v115h110v-115z" />
    <glyph glyph-name="hookabovecomb" unicode="&#x309;" horiz-adv-x="239" 
d="M131 581h-43q0 27 25.5 49t25.5 37q0 23 -30 23q-22 0 -44 -17l-15 48q28 25 68 25q34 0 53.5 -16.5t19.5 -44.5q0 -31 -30 -56t-30 -48z" />
    <glyph glyph-name="uni030A" unicode="&#x30a;" horiz-adv-x="0" 
d="M-145 650q0 -96 -102 -96t-102 96t102 96t102 -96zM-190 650q0 57 -57 57q-56 0 -56 -57q0 -56 56 -56q57 0 57 56z" />
    <glyph glyph-name="uni030B" unicode="&#x30b;" horiz-adv-x="0" 
d="M-342 570l-32 28l136 149l38 -31zM-75 713l-149 -143l-32 28l142 147z" />
    <glyph glyph-name="uni030C" unicode="&#x30c;" horiz-adv-x="0" 
d="M-201 561h-90l-133 142l39 43l139 -128l138 128l40 -43z" />
    <glyph glyph-name="uni0313" unicode="&#x313;" horiz-adv-x="0" 
d="M-207 734v-37q-53 -5 -55 -64h55v-78h-98v53q0 116 98 126z" />
    <glyph glyph-name="uni031B" unicode="&#x31b;" horiz-adv-x="141" 
d="M-34 379v39q26 -10 52 -10q61 0 61 70q0 35 -13 65h54q21 -24 21 -80q0 -53 -25 -79.5t-67 -26.5q-40 0 -83 22z" />
    <glyph glyph-name="dotbelowcomb" unicode="&#x323;" horiz-adv-x="194" 
d="M161 -202h-111v115h111v-115z" />
    <glyph glyph-name="uni0326" unicode="&#x326;" horiz-adv-x="0" 
d="M-291 -233v37q53 5 55 64h-55v78h98v-53q0 -116 -98 -126z" />
    <glyph glyph-name="uni0328" unicode="&#x328;" horiz-adv-x="0" 
d="M-142 -131v-76q-31 -26 -103 -26q-52 0 -80 22.5t-28 62.5q0 48 45.5 85.5t126.5 62.5h39q-76 -32 -100.5 -53.5t-24.5 -48.5q0 -40 68 -40q31 0 57 11z" />
    <glyph glyph-name="uni032D" unicode="&#x32d;" horiz-adv-x="0" 
d="M-108 -227l-139 127l-138 -127l-39 43l132 142h91l132 -142z" />
    <glyph glyph-name="tonos" unicode="&#x384;" horiz-adv-x="132" 
d="M85 414h-62l9 250h89z" />
    <glyph glyph-name="dieresistonos" unicode="&#x385;" horiz-adv-x="0" 
d="M-222 544h-62l9 250h89zM-297 584h-111v115h111v-115zM-75 584h-111v115h111v-115z" />
    <glyph glyph-name="Alphatonos" unicode="&#x386;" horiz-adv-x="656" 
d="M447 237l-110 310l-111 -310h221zM645 0h-116l-51 149h-281l-55 -149h-113l249 664h122zM85 414h-62l9 250h89z" />
    <glyph glyph-name="anoteleia" unicode="&#x387;" horiz-adv-x="163" 
d="M135 372h-109v119h109v-119z" />
    <glyph glyph-name="Epsilontonos" unicode="&#x388;" horiz-adv-x="656" 
d="M650 0h-492v664h476v-90h-372v-181h345v-90h-345v-212h388v-91zM85 414h-62l9 250h89z" />
    <glyph glyph-name="Etatonos" unicode="&#x389;" horiz-adv-x="711" 
d="M683 0h-108v311h-310v-311h-107v664h107v-263h310v263h108v-664zM85 414h-62l9 250h89z" />
    <glyph glyph-name="Iotatonos" unicode="&#x38a;" horiz-adv-x="293" 
d="M265 0h-107v664h107v-664zM85 414h-62l9 250h89z" />
    <glyph glyph-name="Omicrontonos" unicode="&#x38c;" horiz-adv-x="750" 
d="M416 68q96 0 151 64.5t55 194.5q0 127 -52.5 195.5t-151.5 68.5t-152 -69t-53 -197t53 -192.5t150 -64.5zM420 -23q-151 0 -232 90.5t-81 258.5q0 170 81.5 265t230.5 95q148 0 228.5 -95.5t80.5 -267.5q0 -170 -80 -258t-228 -88zM85 414h-62l9 250h89z" />
    <glyph glyph-name="Upsilontonos" unicode="&#x38e;" horiz-adv-x="719" 
d="M477 0h-107v261l-238 403h125l168 -293l160 293h124l-232 -404v-260zM85 414h-62l9 250h89z" />
    <glyph glyph-name="Omegatonos" unicode="&#x38f;" horiz-adv-x="741" 
d="M709 0h-212v77q109 102 109 316q0 207 -188 207t-188 -207q0 -205 108 -315v-78h-212v85h104q-48 38 -82 120.5t-34 188.5q0 139 76 215.5t228 76.5t227.5 -76.5t75.5 -215.5q0 -106 -34 -188.5t-82 -120.5h104v-85zM85 414h-62l9 250h89z" />
    <glyph glyph-name="iotadieresistonos" unicode="&#x390;" horiz-adv-x="350" 
d="M106 132v360h95v-349q0 -64 63 -64h26v-79h-52q-132 0 -132 132zM187 544h-62l9 250h89zM112 584h-111v115h111v-115zM334 584h-111v115h111v-115z" />
    <glyph glyph-name="uni0413" unicode="&#x393;" 
d="M21 664h456v-88h-351v-576h-105v664z" />
    <glyph glyph-name="uni0413" unicode="&#x413;" 
d="M21 664h456v-88h-351v-576h-105v664z" />
    <glyph glyph-name="Delta" unicode="&#x394;" horiz-adv-x="633" 
d="M622 0h-616l249 664h122zM314 547l-164 -459h325z" />
    <glyph glyph-name="Theta" unicode="&#x398;" horiz-adv-x="660" 
d="M328 67q100 0 157.5 63.5t57.5 195.5q0 128 -55 197.5t-157 69.5q-103 0 -158.5 -69.5t-55.5 -198.5t55 -193.5t156 -64.5zM333 -23q-151 0 -231.5 90.5t-80.5 258.5q0 170 81 265t229 95t228 -95.5t80 -267.5q0 -170 -79 -258t-227 -88zM183 303v79h294v-79h-294z" />
    <glyph glyph-name="Lambda" unicode="&#x39b;" horiz-adv-x="584" 
d="M244 664h99l234 -664h-114l-171 511l-171 -511h-111z" />
    <glyph glyph-name="Xi" unicode="&#x39e;" horiz-adv-x="525" 
d="M476 303h-428v89h428v-89zM504 576h-483v88h483v-88zM518 0h-512v88h512v-88z" />
    <glyph glyph-name="uni041F" unicode="&#x3a0;" horiz-adv-x="579" 
d="M552 0h-105v576h-314v-576h-104v664h523v-664z" />
    <glyph glyph-name="uni041F" unicode="&#x41f;" horiz-adv-x="579" 
d="M552 0h-105v576h-314v-576h-104v664h523v-664z" />
    <glyph glyph-name="Sigma" unicode="&#x3a3;" horiz-adv-x="525" 
d="M203 334l-194 248v82h494v-88h-368l190 -240l-191 -248h383v-88h-507v88z" />
    <glyph glyph-name="uni0424" unicode="&#x3a6;" horiz-adv-x="692" 
d="M396 0h-100v90q-279 18 -279 240q0 111 72 174.5t207 73.5v86h100v-86q134 -10 205.5 -73.5t71.5 -175.5q0 -221 -277 -240v-89zM112 330q0 -155 184 -172v349q-184 -18 -184 -177zM579 329q0 160 -183 178v-349q183 15 183 171z" />
    <glyph glyph-name="uni0424" unicode="&#x424;" horiz-adv-x="692" 
d="M396 0h-100v90q-279 18 -279 240q0 111 72 174.5t207 73.5v86h100v-86q134 -10 205.5 -73.5t71.5 -175.5q0 -221 -277 -240v-89zM112 330q0 -155 184 -172v349q-184 -18 -184 -177zM579 329q0 160 -183 178v-349q183 15 183 171z" />
    <glyph glyph-name="Psi" unicode="&#x3a8;" horiz-adv-x="641" 
d="M370 0h-100v172q-130 8 -189.5 64t-59.5 164v264h103v-254q0 -133 146 -151v405h100v-405q145 17 145 154v251h105v-260q0 -107 -60.5 -164.5t-189.5 -66.5v-173z" />
    <glyph glyph-name="Omega" unicode="&#x3a9;" horiz-adv-x="641" 
d="M610 0h-212v77q109 102 109 316q0 207 -188 207t-188 -207q0 -205 108 -315v-78h-212v85h104q-48 38 -82 120.5t-34 188.5q0 139 76 215.5t228 76.5t227.5 -76.5t75.5 -215.5q0 -106 -34 -188.5t-82 -120.5h104v-85z" />
    <glyph glyph-name="alphatonos" unicode="&#x3ac;" horiz-adv-x="583" 
d="M396 87q-56 -100 -169 -100q-96 0 -150.5 68.5t-54.5 184.5q0 123 58.5 194t150.5 71q54 0 96 -27t62 -85v99h95v-350q0 -63 63 -63h26v-79h-52q-105 0 -125 87zM253 70q67 0 103 48t36 129q0 85 -38 131t-100 46q-61 0 -97.5 -45t-36.5 -134q0 -88 35.5 -131.5
t97.5 -43.5zM301 544h-62l9 250h89z" />
    <glyph glyph-name="epsilontonos" unicode="&#x3ad;" horiz-adv-x="463" 
d="M272 226h-50q-113 0 -113 -79q0 -46 32 -68t88 -22q121 0 124 102h98q-4 -77 -59 -124.5t-163 -47.5q-100 0 -159 41.5t-59 111.5q0 53 33.5 84.5t84.5 38.5q-47 8 -74.5 37.5t-27.5 72.5q0 60 52.5 96t147.5 36q106 0 159.5 -45t59.5 -119h-98q0 96 -118 96
q-109 0 -109 -72q0 -35 26.5 -54t76.5 -19h48v-66zM252 544h-62l9 250h89z" />
    <glyph glyph-name="etatonos" unicode="&#x3ae;" horiz-adv-x="498" 
d="M464 -233h-100v536q0 65 -24.5 91t-76.5 26q-72 0 -103 -42t-31 -123v-255h-100v492h96v-98q42 111 172 111q76 0 121.5 -42.5t45.5 -127.5v-568zM283 544h-62l9 250h89z" />
    <glyph glyph-name="iotatonos" unicode="&#x3af;" horiz-adv-x="226" 
d="M32 132v360h95v-349q0 -64 63 -64h26v-79h-52q-132 0 -132 132zM104 544h-62l9 250h89z" />
    <glyph glyph-name="upsilondieresistonos" unicode="&#x3b0;" horiz-adv-x="492" 
d="M246 -13q-108 0 -161 41t-53 137v327h97v-312q0 -61 28 -87t90 -26t90.5 26t28.5 87v312h95v-327q0 -96 -53.5 -137t-161.5 -41zM265 544h-62l9 250h89zM190 584h-111v115h111v-115zM412 584h-111v115h111v-115z" />
    <glyph glyph-name="alpha" unicode="&#x3b1;" horiz-adv-x="583" 
d="M396 87q-56 -100 -169 -100q-96 0 -150.5 68.5t-54.5 184.5q0 123 58.5 194t150.5 71q54 0 96 -27t62 -85v99h95v-350q0 -63 63 -63h26v-79h-52q-105 0 -125 87zM253 70q67 0 103 48t36 129q0 85 -38 131t-100 46q-61 0 -97.5 -45t-36.5 -134q0 -88 35.5 -131.5
t97.5 -43.5z" />
    <glyph glyph-name="beta" unicode="&#x3b2;" horiz-adv-x="504" 
d="M276 -13q-85 0 -148 44v-264h-96v731q0 181 213 181q108 0 158 -45t50 -121q0 -109 -96 -134q65 -16 99 -63t34 -117q0 -95 -58 -153.5t-156 -58.5zM128 493v-378q54 -47 131 -47q67 0 101 37.5t34 98.5q0 67 -40 100t-111 33h-12v62h11q113 0 113 97q0 51 -29.5 77.5
t-82.5 26.5q-54 0 -84.5 -27.5t-30.5 -79.5z" />
    <glyph glyph-name="uni04AF" unicode="&#x3b3;" 
d="M295 -233h-95v229l-191 496h109l132 -366l131 366h104l-190 -496v-229z" />
    <glyph glyph-name="uni04AF" unicode="&#x4af;" 
d="M295 -233h-95v229l-191 496h109l132 -366l131 366h104l-190 -496v-229z" />
    <glyph glyph-name="delta" unicode="&#x3b4;" horiz-adv-x="532" 
d="M21 241q0 153 122 212q-69 38 -69 104q0 120 203 120q96 0 147 -19v-75q-48 24 -141 24q-123 0 -123 -52q0 -38 70 -57q12 -3 47 -12t49 -13.5t38 -14.5t45 -23q101 -62 101 -193q0 -116 -66 -185.5t-178 -69.5q-113 0 -179 70.5t-66 183.5zM364 357q-8 7 -19.5 14
t-19.5 11t-24.5 11t-22.5 9t-27.5 9.5t-24.5 8.5q-108 -39 -108 -176q0 -84 39.5 -129.5t108.5 -45.5t107 44.5t38 123.5q0 80 -47 120z" />
    <glyph glyph-name="epsilon" unicode="&#x3b5;" horiz-adv-x="463" 
d="M272 226h-50q-113 0 -113 -79q0 -46 32 -68t88 -22q121 0 124 102h98q-4 -77 -59 -124.5t-163 -47.5q-100 0 -159 41.5t-59 111.5q0 53 33.5 84.5t84.5 38.5q-47 8 -74.5 37.5t-27.5 72.5q0 60 52.5 96t147.5 36q106 0 159.5 -45t59.5 -119h-98q0 96 -118 96
q-109 0 -109 -72q0 -35 26.5 -54t76.5 -19h48v-66z" />
    <glyph glyph-name="zeta" unicode="&#x3b6;" horiz-adv-x="476" 
d="M432 592l-202 -178q-66 -59 -88 -103t-22 -89q0 -142 136 -142h29q61 0 89 -25.5t28 -83.5v-204h-98v178q0 30 -11.5 42.5t-41.5 12.5h-33q-90 0 -142.5 57t-52.5 149q0 133 141 257l149 131h-260v78h379v-80z" />
    <glyph glyph-name="eta" unicode="&#x3b7;" horiz-adv-x="498" 
d="M464 -233h-100v536q0 65 -24.5 91t-76.5 26q-72 0 -103 -42t-31 -123v-255h-100v492h96v-98q42 111 172 111q76 0 121.5 -42.5t45.5 -127.5v-568z" />
    <glyph glyph-name="theta" unicode="&#x3b8;" horiz-adv-x="541" 
d="M271 -17q-128 0 -187 84.5t-59 266.5t58.5 265.5t187.5 83.5q128 0 185.5 -83.5t57.5 -264.5t-58 -266.5t-185 -85.5zM271 65q71 0 106.5 54t40.5 175h-294q4 -123 39 -176t108 -53zM271 600q-74 0 -108.5 -51.5t-38.5 -173.5h294q-5 120 -40.5 172.5t-106.5 52.5z" />
    <glyph glyph-name="iota" unicode="&#x3b9;" horiz-adv-x="226" 
d="M32 132v360h95v-349q0 -64 63 -64h26v-79h-52q-132 0 -132 132z" />
    <glyph glyph-name="uni043A" unicode="&#x3ba;" horiz-adv-x="478" 
d="M466 0h-112l-132 240l-92 -89v-151h-101v492h101v-226l217 226h123l-176 -183z" />
    <glyph glyph-name="uni043A" unicode="&#x43a;" horiz-adv-x="478" 
d="M466 0h-112l-132 240l-92 -89v-151h-101v492h101v-226l217 226h123l-176 -183z" />
    <glyph glyph-name="lambda" unicode="&#x3bb;" horiz-adv-x="551" 
d="M72 672h34q76 0 115.5 -26.5t60.5 -83.5l158 -421q12 -33 32.5 -47.5t56.5 -14.5h11v-79h-55q-55 0 -88 26.5t-53 82.5l-92 260l-140 -369h-103l203 480l-17 50q-12 34 -34 48.5t-65 14.5h-24v79z" />
    <glyph glyph-name="mu" unicode="&#x3bc;" 
d="M461 0h-94v95q-45 -108 -167 -108q-53 0 -71 29v-249h-100v725h100v-295q0 -66 25.5 -96t79.5 -30q67 0 97.5 46t30.5 118v257h99v-492z" />
    <glyph glyph-name="xi" unicode="&#x3be;" horiz-adv-x="476" 
d="M283 412v-66h-50q-60 0 -87 -29.5t-27 -91.5q0 -146 135 -146h31q62 0 89.5 -24.5t27.5 -82.5v-205h-98v178q0 30 -11.5 42.5t-41.5 12.5h-33q-89 0 -142 57t-53 157q0 78 32.5 119t84.5 51q-99 26 -99 134q0 74 50.5 116.5t150.5 42.5q105 0 158.5 -45t58.5 -119h-98
q0 47 -29.5 71.5t-84.5 24.5q-113 0 -113 -99q0 -44 24.5 -71t77.5 -27h47z" />
    <glyph glyph-name="pi" unicode="&#x3c0;" horiz-adv-x="569" 
d="M365 132v281h-187v-413h-97v413h-71v79h549v-79h-97v-270q0 -64 62 -64h27v-79h-53q-133 0 -133 132z" />
    <glyph glyph-name="rho" unicode="&#x3c1;" horiz-adv-x="517" 
d="M32 -233v479q0 127 64.5 193t168.5 66q108 0 168.5 -69t60.5 -193q0 -118 -54 -187t-146 -69q-57 0 -103 27t-64 82v-329h-95zM124 248q0 -81 36 -129.5t103 -48.5q62 0 97 43.5t35 132.5t-35.5 133.5t-96.5 44.5q-65 0 -102 -47t-37 -129z" />
    <glyph glyph-name="sigma1" unicode="&#x3c2;" horiz-adv-x="476" 
d="M251 0h-33q-90 0 -142.5 63t-52.5 186q0 130 59 193t162 63q96 0 155 -51t64 -138h-99q-5 50 -37 78.5t-83 28.5q-125 0 -125 -174q0 -89 34 -129.5t107 -40.5h22q63 0 91.5 -25t28.5 -82v-205h-98v178q0 30 -11.5 42.5t-41.5 12.5z" />
    <glyph glyph-name="sigma" unicode="&#x3c3;" horiz-adv-x="574" 
d="M564 422h-154q94 -52 94 -189q0 -110 -65 -178t-176 -68q-112 0 -177 70t-65 183q0 115 66.5 183.5t179.5 68.5h297v-70zM267 67q70 0 107 45t37 128t-36.5 128t-106.5 45t-108.5 -45t-38.5 -128q0 -82 37.5 -127.5t108.5 -45.5z" />
    <glyph glyph-name="tau" unicode="&#x3c4;" horiz-adv-x="486" 
d="M476 422h-189v-278q0 -65 62 -65h27v-79h-52q-133 0 -133 132v290h-181v70h466v-70z" />
    <glyph glyph-name="upsilon" unicode="&#x3c5;" horiz-adv-x="492" 
d="M246 -13q-108 0 -161 41t-53 137v327h97v-312q0 -61 28 -87t90 -26t90.5 26t28.5 87v312h95v-327q0 -96 -53.5 -137t-161.5 -41z" />
    <glyph glyph-name="uni0444" unicode="&#x3c6;" horiz-adv-x="690" 
d="M392 -233h-95v223q-136 8 -207 76t-71 180q0 111 71.5 179t206.5 77v170h95v-170q136 -9 207 -76.5t71 -179.5t-71.5 -180t-206.5 -76v-223zM117 246q0 -79 45 -125t135 -53v354q-90 -6 -135 -51t-45 -125zM572 247q0 79 -45 124t-135 51v-354q89 7 134.5 53t45.5 126z
" />
    <glyph glyph-name="uni0444" unicode="&#x444;" horiz-adv-x="690" 
d="M392 -233h-95v223q-136 8 -207 76t-71 180q0 111 71.5 179t206.5 77v170h95v-170q136 -9 207 -76.5t71 -179.5t-71.5 -180t-206.5 -76v-223zM117 246q0 -79 45 -125t135 -53v354q-90 -6 -135 -51t-45 -125zM572 247q0 79 -45 124t-135 51v-354q89 7 134.5 53t45.5 126z
" />
    <glyph glyph-name="chi" unicode="&#x3c7;" horiz-adv-x="490" 
d="M481 -233h-111l-128 278l-125 -278h-108l177 369l-173 356h111l122 -271l124 271h106l-175 -356z" />
    <glyph glyph-name="psi" unicode="&#x3c8;" horiz-adv-x="638" 
d="M271 68v604h95v-604q77 1 110.5 26.5t33.5 82.5v315h95v-323q0 -92 -55.5 -135.5t-183.5 -43.5v-223h-95v223q-128 0 -183.5 43.5t-55.5 135.5v323h95v-315q0 -109 144 -109z" />
    <glyph glyph-name="omega" unicode="&#x3c9;" horiz-adv-x="705" 
d="M388 340v-88q0 -183 97 -183q98 0 98 181q0 77 -16 130t-49 112h100q65 -91 65 -240q0 -124 -46 -194.5t-137 -70.5q-117 0 -148 123q-34 -123 -148 -123q-91 0 -137 69.5t-46 194.5q0 150 65 241h100q-33 -59 -49 -112t-16 -131q0 -180 98 -180q97 0 97 183v88h72z" />
    <glyph glyph-name="iotadieresis" unicode="&#x3ca;" horiz-adv-x="275" 
d="M69 132v360h95v-349q0 -64 63 -64h26v-79h-52q-132 0 -132 132zM96 584h-111v115h111v-115zM273 584h-111v115h111v-115z" />
    <glyph glyph-name="upsilondieresis" unicode="&#x3cb;" horiz-adv-x="492" 
d="M246 -13q-108 0 -161 41t-53 137v327h97v-312q0 -61 28 -87t90 -26t90.5 26t28.5 87v312h95v-327q0 -96 -53.5 -137t-161.5 -41zM209 584h-111v115h111v-115zM409 584h-110v115h110v-115z" />
    <glyph glyph-name="omicrontonos" unicode="&#x3cc;" horiz-adv-x="532" 
d="M265 71q69 0 106 45t37 130q0 84 -36.5 129t-106.5 45t-107 -45t-37 -129t37 -129.5t107 -45.5zM264 -13q-114 0 -180 71.5t-66 187.5q0 118 67 188.5t180 70.5q112 0 178 -70.5t66 -187.5q0 -118 -66 -189t-179 -71zM294 544h-62l9 250h89z" />
    <glyph glyph-name="upsilontonos" unicode="&#x3cd;" horiz-adv-x="492" 
d="M274 544h-62l9 250h89zM246 -13q-108 0 -161 41t-53 137v327h97v-312q0 -61 28 -87t90 -26t90.5 26t28.5 87v312h95v-327q0 -96 -53.5 -137t-161.5 -41z" />
    <glyph glyph-name="omegatonos" unicode="&#x3ce;" horiz-adv-x="705" 
d="M388 340v-88q0 -183 97 -183q98 0 98 181q0 77 -16 130t-49 112h100q65 -91 65 -240q0 -124 -46 -194.5t-137 -70.5q-117 0 -148 123q-34 -123 -148 -123q-91 0 -137 69.5t-46 194.5q0 150 65 241h100q-33 -59 -49 -112t-16 -131q0 -180 98 -180q97 0 97 183v88h72z
M380 544h-62l9 250h89z" />
    <glyph glyph-name="uni0402" unicode="&#x402;" horiz-adv-x="756" 
d="M625 12v154q0 99 -30.5 133t-108.5 34q-101 0 -161 -34v-289h-105v566h-209v88h545v-88h-231v-194q76 38 196 38q103 0 156 -45t53 -167v-196q0 -119 -68 -182t-192 -63q-213 0 -242 181h99q9 -47 48.5 -71.5t95.5 -24.5q73 0 113.5 41t40.5 119z" />
    <glyph glyph-name="uni0403" unicode="&#x403;" 
d="M414 832l-224 -106l-26 46l209 130zM21 664h456v-88h-351v-576h-105v664z" />
    <glyph glyph-name="uni0404" unicode="&#x404;" horiz-adv-x="604" 
d="M490 228h107q-21 -114 -94 -182.5t-188 -68.5q-131 0 -214 91t-83 259q0 165 81.5 262t220.5 97q118 0 192.5 -68t84.5 -172h-107q-13 66 -58.5 106.5t-113.5 40.5q-77 0 -128 -53.5t-60 -148.5h248v-88h-251q6 -105 52 -169t135 -64q70 0 115 41.5t61 116.5z" />
    <glyph glyph-name="uni0409" unicode="&#x409;" horiz-adv-x="986" 
d="M592 416h166q103 0 162.5 -53t59.5 -153q0 -97 -56 -153.5t-152 -56.5h-285v576h-218l-11 -192q-10 -164 -34 -245.5t-67 -110t-126 -28.5h-20v91h14q48 0 74 20t43.5 86t24.5 195l14 272h411v-248zM764 333h-172v-247h172q56 0 89.5 35t33.5 90q0 54 -33 88t-90 34z" />
    <glyph glyph-name="uni040A" unicode="&#x40a;" horiz-adv-x="849" 
d="M483 416h151q96 0 152 -55t56 -152t-56 -153t-152 -56h-256v332h-246v-332h-103v664h103v-245h246v245h105v-248zM627 333h-144v-247h144q55 0 89 35t34 90q0 54 -33.5 88t-89.5 34z" />
    <glyph glyph-name="uni040B" unicode="&#x40b;" horiz-adv-x="756" 
d="M11 576v88h545v-88h-231v-194q76 38 196 38q103 0 156 -45t53 -167v-208h-105v206q0 73 -35 100t-104 27q-101 0 -161 -34v-299h-105v576h-209z" />
    <glyph glyph-name="uni040C" unicode="&#x40c;" horiz-adv-x="588" 
d="M581 0h-130l-216 319l-103 -103v-216h-106v664h106v-319l305 319h139l-265 -266zM451 832l-224 -106l-26 46l209 130z" />
    <glyph glyph-name="uni040D" unicode="&#x40d;" horiz-adv-x="579" 
d="M359 726l-223 106l40 70l210 -130zM129 0h-101v664h102v-488l310 488h112v-664h-100v502z" />
    <glyph glyph-name="uni040E" unicode="&#x40e;" horiz-adv-x="568" 
d="M375 918h69q0 -79 -46.5 -122.5t-112.5 -43.5t-112.5 43.5t-46.5 122.5h70q1 -47 25 -73t64 -26t64.5 26t25.5 73zM538 219q0 -119 -68 -180.5t-193 -61.5q-242 0 -245 231h94q1 -72 41.5 -109t112.5 -37q73 0 113.5 39.5t40.5 117.5v126q-20 -44 -72 -72.5t-122 -28.5
q-99 0 -155 60.5t-56 183.5v176h105v-175q0 -79 39 -118t105 -39q70 0 113 41.5t43 114.5v176h104v-445z" />
    <glyph glyph-name="uni040F" unicode="&#x40f;" horiz-adv-x="572" 
d="M328 -168h-77v168h-222v664h104v-573h314v573h105v-664h-224v-168z" />
    <glyph glyph-name="uni0411" unicode="&#x411;" horiz-adv-x="527" 
d="M132 416h181q96 0 151.5 -55t55.5 -152t-55.5 -153t-151.5 -56h-284v664h377v-92h-274v-156zM306 333h-174v-247h174q56 0 89.5 35t33.5 90q0 54 -33.5 88t-89.5 34z" />
    <glyph glyph-name="uni0414" unicode="&#x414;" horiz-adv-x="696" 
d="M90 -168h-77v259h36q43 0 67.5 21.5t41.5 88.5t23 191l14 272h411v-573h77v-259h-77v168h-516v-168zM501 576h-218l-9 -184q-11 -225 -69 -301h296v485z" />
    <glyph glyph-name="uni0416" unicode="&#x416;" horiz-adv-x="854" 
d="M843 0h-128l-238 287v-287h-100v287l-239 -287h-128l295 338l-282 326h125l229 -265v265h100v-265l228 265h125l-282 -326z" />
    <glyph glyph-name="uni0417" unicode="&#x417;" horiz-adv-x="555" 
d="M291 305h-69v88h65q67 0 102.5 30.5t35.5 76.5q0 47 -38 72.5t-108 25.5q-155 0 -155 -134h-101q0 102 63 162t194 60q119 0 183.5 -48.5t64.5 -130.5q0 -58 -32.5 -99.5t-94.5 -52.5q68 -8 108 -52.5t40 -116.5q0 -96 -73 -152.5t-199 -56.5q-134 0 -200 63t-66 170h103
q6 -145 166 -145q77 0 120.5 33t43.5 95q0 112 -153 112z" />
    <glyph glyph-name="uni0418" unicode="&#x418;" horiz-adv-x="579" 
d="M129 0h-101v664h102v-488l310 488h112v-664h-100v502z" />
    <glyph glyph-name="uni0419" unicode="&#x419;" horiz-adv-x="579" 
d="M381 918h69q0 -79 -46.5 -122.5t-112.5 -43.5t-112.5 43.5t-46.5 122.5h70q1 -47 25 -73t64 -26t64.5 26t25.5 73zM129 0h-101v664h102v-488l310 488h112v-664h-100v502z" />
    <glyph glyph-name="uni041B" unicode="&#x41b;" horiz-adv-x="620" 
d="M592 0h-105v576h-218l-9 -184q-8 -166 -34.5 -251.5t-69.5 -113t-124 -27.5h-21v91h14q49 0 75 20.5t43 86t24 194.5l15 272h410v-664z" />
    <glyph glyph-name="uni0423" unicode="&#x423;" horiz-adv-x="568" 
d="M538 219q0 -119 -68 -180.5t-193 -61.5q-242 0 -245 231h94q1 -72 41.5 -109t112.5 -37q73 0 113.5 39.5t40.5 117.5v126q-20 -44 -72 -72.5t-122 -28.5q-99 0 -155 60.5t-56 183.5v176h105v-175q0 -79 39 -118t105 -39q70 0 113 41.5t43 114.5v176h104v-445z" />
    <glyph glyph-name="uni0426" unicode="&#x426;" horiz-adv-x="642" 
d="M629 -168h-77v168h-523v664h104v-573h314v573h105v-573h77v-259z" />
    <glyph glyph-name="uni0427" unicode="&#x427;" horiz-adv-x="563" 
d="M534 0h-103v281q-76 -39 -197 -39q-103 0 -156 45.5t-53 167.5v209h105v-207q0 -73 34.5 -100t103.5 -27q101 0 163 34v300h103v-664z" />
    <glyph glyph-name="uni0428" unicode="&#x428;" horiz-adv-x="794" 
d="M764 0h-735v664h104v-573h211v573h105v-573h211v573h104v-664z" />
    <glyph glyph-name="uni0429" unicode="&#x429;" horiz-adv-x="855" 
d="M842 -168h-77v168h-736v664h104v-573h211v573h105v-573h211v573h104v-573h78v-259z" />
    <glyph glyph-name="uni042A" unicode="&#x42a;" horiz-adv-x="720" 
d="M325 416h166q104 0 163 -53t59 -153q0 -98 -56 -154t-152 -56h-284v576h-210v88h314v-248zM499 333h-174v-247h174q55 0 88.5 35t33.5 90q0 54 -33 88t-89 34z" />
    <glyph glyph-name="uni042B" unicode="&#x42b;" horiz-adv-x="689" 
d="M660 0h-107v664h107v-664zM306 333h-174v-247h174q56 0 89.5 35t33.5 90q0 54 -33.5 88t-89.5 34zM132 416h181q96 0 151.5 -55t55.5 -152t-55.5 -153t-151.5 -56h-284v664h103v-248z" />
    <glyph glyph-name="uni042C" unicode="&#x42c;" horiz-adv-x="527" 
d="M306 333h-174v-247h174q56 0 89.5 35t33.5 90q0 54 -33.5 88t-89.5 34zM132 416h181q96 0 151.5 -55t55.5 -152t-55.5 -153t-151.5 -56h-284v664h103v-248z" />
    <glyph glyph-name="uni042D" unicode="&#x42d;" horiz-adv-x="604" 
d="M7 228h107q16 -75 61 -116.5t115 -41.5q89 0 135 64t52 169h-251v88h248q-9 95 -60 148.5t-128 53.5q-68 0 -113.5 -40.5t-58.5 -106.5h-107q10 104 84.5 172t192.5 68q139 0 220.5 -97t81.5 -262q0 -168 -83 -259t-214 -91q-115 0 -188 68.5t-94 182.5z" />
    <glyph glyph-name="uni042E" unicode="&#x42e;" horiz-adv-x="823" 
d="M133 0h-107v664h107v-283h48q14 145 94 225t216 80q148 0 228.5 -95.5t80.5 -267.5q0 -170 -80 -258t-228 -88q-144 0 -224 82t-88 236h-47v-295zM488 68q96 0 151 64.5t55 194.5q0 127 -52.5 195.5t-151.5 68.5t-152 -69t-53 -197t53 -192.5t150 -64.5z" />
    <glyph glyph-name="uni042F" unicode="&#x42f;" horiz-adv-x="570" 
d="M436 273h-131l-174 -273h-121l183 274q-84 8 -129.5 58.5t-45.5 136.5q0 93 55 144t152 51h315v-664h-104v273zM235 354h201v222h-201q-58 0 -90 -29t-32 -80q0 -52 32.5 -82.5t89.5 -30.5z" />
    <glyph glyph-name="uni0431" unicode="&#x431;" horiz-adv-x="532" 
d="M266 -13q-115 0 -180 72t-65 197v85q0 171 52 249t177 78h53q40 0 61 13t29 53h60q-10 -68 -50.5 -107t-104.5 -39h-59q-128 0 -132 -196q51 99 181 99q103 0 162.5 -67t59.5 -180q0 -119 -65.5 -188t-178.5 -69zM264 69q72 0 109.5 45.5t37.5 131.5q0 85 -37.5 130
t-108.5 45t-109 -45.5t-38 -130.5q0 -84 37.5 -130t108.5 -46z" />
    <glyph glyph-name="uni0432" unicode="&#x432;" horiz-adv-x="498" 
d="M291 0h-259v492h281q83 0 121 -32.5t38 -85.5q0 -43 -23 -71.5t-61 -36.5q42 -8 71 -40.5t29 -86.5q0 -65 -48 -102t-149 -37zM127 71h150q111 0 111 81q0 79 -97 79h-164v-160zM127 289h161q86 0 86 67t-91 67h-156v-134z" />
    <glyph glyph-name="uni0433" unicode="&#x433;" horiz-adv-x="354" 
d="M131 0h-98v492h311v-81h-213v-411z" />
    <glyph glyph-name="uni0434" unicode="&#x434;" horiz-adv-x="584" 
d="M86 -149h-73v229h18q38 0 59 15.5t34.5 62t18.5 137.5l12 197h341v-412h75v-229h-73v149h-412v-149zM398 411h-171l-7 -121q-9 -154 -53 -210h231v331z" />
    <glyph glyph-name="uni0436" unicode="&#x436;" horiz-adv-x="672" 
d="M381 492v-200l157 200h115l-202 -241l211 -251h-119l-162 199v-199h-92v199l-162 -199h-118l210 251l-202 241h115l157 -200v200h92z" />
    <glyph glyph-name="uni0437" unicode="&#x437;" horiz-adv-x="463" 
d="M241 226h-50v66h48q50 0 76.5 19t26.5 54q0 72 -109 72q-118 0 -118 -96h-98q6 74 59.5 119t159.5 45q95 0 147.5 -36t52.5 -96q0 -43 -27.5 -72.5t-74.5 -37.5q51 -7 84.5 -38.5t33.5 -84.5q0 -70 -59 -111.5t-159 -41.5q-108 0 -163 47.5t-59 124.5h98q3 -102 124 -102
q56 0 88 22t32 68q0 79 -113 79z" />
    <glyph glyph-name="uni0438" unicode="&#x438;" horiz-adv-x="504" 
d="M128 0h-96v492h98v-360l236 360h105v-492h-98v370z" />
    <glyph glyph-name="uni0439" unicode="&#x439;" horiz-adv-x="504" 
d="M343 746h69q0 -79 -46.5 -122.5t-112.5 -43.5t-112.5 43.5t-46.5 122.5h70q1 -47 25 -73t64 -26t64.5 26t25.5 73zM128 0h-96v492h98v-360l236 360h105v-492h-98v370z" />
    <glyph glyph-name="uni043B" unicode="&#x43b;" horiz-adv-x="528" 
d="M496 0h-98v411h-171l-7 -121q-7 -123 -29 -185.5t-58 -83.5t-103 -21h-17v80h12q40 0 61.5 14t36.5 61.5t20 139.5l12 197h341v-492z" />
    <glyph glyph-name="uni043C" unicode="&#x43c;" horiz-adv-x="614" 
d="M582 0h-89v376l-137 -376h-98l-137 374v-374h-89v492h140l137 -383l137 383h136v-492z" />
    <glyph glyph-name="uni043D" unicode="&#x43d;" horiz-adv-x="504" 
d="M129 0h-97v492h97v-201h245v201h98v-492h-98v211h-245v-211z" />
    <glyph glyph-name="uni043F" unicode="&#x43f;" horiz-adv-x="504" 
d="M129 0h-97v492h440v-492h-98v411h-245v-411z" />
    <glyph glyph-name="uni0442" unicode="&#x442;" horiz-adv-x="486" 
d="M292 0h-98v411h-184v81h466v-81h-184v-411z" />
    <glyph glyph-name="uni0446" unicode="&#x446;" horiz-adv-x="560" 
d="M32 0v492h97v-413h244v413h98v-413h75v-228h-73v149h-441z" />
    <glyph glyph-name="uni0447" unicode="&#x447;" 
d="M462 0h-97v206q-67 -29 -165 -29q-88 0 -132.5 35.5t-44.5 131.5v148h98v-146q0 -54 27.5 -74t83.5 -20q86 0 133 25v215h97v-492z" />
    <glyph glyph-name="uni0448" unicode="&#x448;" horiz-adv-x="733" 
d="M701 0h-669v492h97v-412h190v412h95v-412h190v412h97v-492z" />
    <glyph glyph-name="uni0449" unicode="&#x449;" horiz-adv-x="789" 
d="M776 -149h-73v149h-671v492h97v-412h190v412h95v-412h190v412h97v-412h75v-229z" />
    <glyph glyph-name="uni044A" unicode="&#x44a;" horiz-adv-x="695" 
d="M320 492v-165h177q86 0 134.5 -40.5t48.5 -121.5t-47.5 -123t-132.5 -42h-278v411h-212v81h310zM505 255h-185v-180h185q41 0 65 24t24 66q0 43 -24 66.5t-65 23.5z" />
    <glyph glyph-name="uni044B" unicode="&#x44b;" horiz-adv-x="672" 
d="M32 492h97v-165h192q79 0 124 -43t45 -119q0 -77 -45 -121t-124 -44h-289v492zM315 255h-186v-180h186q41 0 65 24t24 66q0 43 -24 66.5t-65 23.5zM636 0h-100v492h100v-492z" />
    <glyph glyph-name="uni044C" unicode="&#x44c;" horiz-adv-x="504" 
d="M32 492h97v-165h192q79 0 124 -43t45 -119q0 -77 -45 -121t-124 -44h-289v492zM315 255h-186v-180h186q41 0 65 24t24 66q0 43 -24 66.5t-65 23.5z" />
    <glyph glyph-name="uni044D" unicode="&#x44d;" horiz-adv-x="481" 
d="M362 223h-166v58h165q-10 144 -128 144q-50 0 -82 -26.5t-37 -74.5h-100q10 88 72 134.5t149 46.5q101 0 162 -63t61 -192q0 -127 -60 -195t-162 -68q-86 0 -148 48t-74 134h100q3 -45 38 -74t83 -29q53 0 87.5 39t39.5 118z" />
    <glyph glyph-name="uni044E" unicode="&#x44e;" horiz-adv-x="701" 
d="M132 0h-100v492h100v-205h56q12 100 77.5 159t167.5 59q112 0 178 -70.5t66 -187.5q0 -118 -66 -189t-179 -71q-105 0 -170 61t-75 163h-55v-211zM433 71q69 0 106 45t37 130q0 84 -36.5 129t-106.5 45t-107 -45t-37 -129t37 -129.5t107 -45.5z" />
    <glyph glyph-name="uni044F" unicode="&#x44f;" horiz-adv-x="488" 
d="M456 0h-98v178h-125l-121 -178h-103l131 183q-122 25 -122 150q0 75 45 117t123 42h270v-492zM193 253h165v163h-165q-42 0 -66 -22t-24 -60t24 -59.5t66 -21.5z" />
    <glyph glyph-name="uni0452" unicode="&#x452;" horiz-adv-x="496" 
d="M463 340v-373q0 -88 -53.5 -144t-134.5 -56q-12 0 -28 2v90q8 -4 24 -4q91 0 91 141v312q0 64 -25 90.5t-77 26.5q-35 0 -60 -13.5t-38.5 -33t-21 -50.5t-9.5 -57.5t-2 -62.5v-208h-100v542h-29v77h29v53h100v-53h180v-77h-180v-142q16 50 61 77.5t101 27.5
q79 0 125.5 -42t46.5 -123z" />
    <glyph glyph-name="uni0453" unicode="&#x453;" horiz-adv-x="354" 
d="M344 660l-224 -106l-26 46l209 130zM131 0h-98v492h311v-81h-213v-411z" />
    <glyph glyph-name="uni0454" unicode="&#x454;" horiz-adv-x="481" 
d="M285 223h-166q5 -79 39.5 -118t87.5 -39q48 0 83 29t38 74h100q-12 -86 -74 -134t-148 -48q-102 0 -162 68t-60 195q0 129 61 192t162 63q87 0 149 -46.5t72 -134.5h-100q-5 48 -37 74.5t-82 26.5q-118 0 -128 -144h165v-58z" />
    <glyph glyph-name="uni0459" unicode="&#x459;" horiz-adv-x="870" 
d="M687 0h-290v411h-171l-6 -109q-6 -99 -17 -157t-35 -91t-54.5 -43.5t-83.5 -10.5h-18v79h13q38 0 60 16.5t37 66.5t21 143l12 187h340v-165h181q84 0 132 -41t48 -121q0 -77 -45.5 -121t-123.5 -44zM680 255h-185v-180h185q42 0 66 24t24 66q0 43 -24 66.5t-66 23.5z" />
    <glyph glyph-name="uni045A" unicode="&#x45a;" horiz-adv-x="776" 
d="M129 0h-97v492h97v-165h210v165h98v-165h146q84 0 131.5 -41t47.5 -122q0 -80 -47 -122t-132 -42h-244v255h-210v-255zM587 255h-150v-180h150q41 0 65 24t24 66q0 43 -24 66.5t-65 23.5z" />
    <glyph glyph-name="uni045C" unicode="&#x45c;" horiz-adv-x="478" 
d="M395 660l-224 -106l-26 46l209 130zM466 0h-112l-132 240l-92 -89v-151h-101v492h101v-226l217 226h123l-176 -183z" />
    <glyph glyph-name="uni045D" unicode="&#x45d;" horiz-adv-x="504" 
d="M321 554l-223 106l40 70l210 -130zM128 0h-96v492h98v-360l236 360h105v-492h-98v370z" />
    <glyph glyph-name="uni045E" unicode="&#x45e;" horiz-adv-x="499" 
d="M364 -13v93q-13 -38 -52 -61.5t-97 -23.5q-82 0 -132.5 49t-50.5 136v312h100v-298q0 -118 107 -118q58 0 91.5 31.5t33.5 86.5v298h100v-503q0 -104 -62 -163t-164 -59q-98 0 -153.5 55t-55.5 151h94q0 -55 33 -87.5t86 -32.5q56 0 89 36t33 98zM341 746h69
q0 -79 -46.5 -122.5t-112.5 -43.5t-112.5 43.5t-46.5 122.5h70q1 -47 25 -73t64 -26t64.5 26t25.5 73z" />
    <glyph glyph-name="uni045F" unicode="&#x45f;" horiz-adv-x="504" 
d="M32 0v492h97v-413h244v413h98v-492h-184v-149h-73v149h-182z" />
    <glyph glyph-name="uni0490" unicode="&#x490;" 
d="M21 664h378v168h78v-256h-351v-576h-105v664z" />
    <glyph glyph-name="uni0491" unicode="&#x491;" horiz-adv-x="354" 
d="M343 411h-213v-411h-98v492h238v148h73v-229z" />
    <glyph glyph-name="uni0492" unicode="&#x492;" horiz-adv-x="551" 
d="M372 288h-191v-288h-104v288h-75v65h75v311h455v-88h-351v-223h191v-65z" />
    <glyph glyph-name="uni0493" unicode="&#x493;" horiz-adv-x="395" 
d="M172 0h-97v192h-75v65h75v235h310v-81h-213v-154h197v-65h-197v-192z" />
    <glyph glyph-name="uni0496" unicode="&#x496;" horiz-adv-x="913" 
d="M900 -168h-77v168h-108l-238 287v-287h-100v287l-239 -287h-128l295 338l-282 326h125l229 -265v265h100v-265l228 265h125l-282 -326l215 -247h137v-259z" />
    <glyph glyph-name="uni0497" unicode="&#x497;" horiz-adv-x="731" 
d="M381 492v-200l157 200h115l-202 -241l143 -171h123v-229h-73v149h-101l-162 199v-199h-92v199l-162 -199h-118l210 251l-202 241h115l157 -200v200h92z" />
    <glyph glyph-name="uni0498" unicode="&#x498;" horiz-adv-x="555" 
d="M291 305h-69v88h65q67 0 102.5 30.5t35.5 76.5q0 47 -38 72.5t-108 25.5q-155 0 -155 -134h-101q0 102 63 162t194 60q119 0 183.5 -48.5t64.5 -130.5q0 -58 -32.5 -99.5t-94.5 -52.5q68 -8 108 -52.5t40 -116.5q0 -94 -70 -150t-191 -59q111 -49 111 -125
q0 -40 -27.5 -62.5t-78.5 -22.5q-70 0 -103 26v66q26 -14 56 -14q79 0 79 48q0 23 -18.5 43t-65.5 42q-116 9 -173 71t-57 161h103q6 -145 166 -145q77 0 120.5 33t43.5 95q0 112 -153 112z" />
    <glyph glyph-name="uni0499" unicode="&#x499;" horiz-adv-x="463" 
d="M241 226h-50v66h48q50 0 76.5 19t26.5 54q0 72 -109 72q-118 0 -118 -96h-98q6 74 59.5 119t159.5 45q95 0 147.5 -36t52.5 -96q0 -43 -27.5 -72.5t-74.5 -37.5q51 -7 84.5 -38.5t33.5 -84.5q0 -71 -60 -112t-163 -41q135 -51 135 -135q0 -40 -27.5 -62.5t-78.5 -22.5
q-71 0 -102 26v65q25 -14 63 -14q72 0 72 46q0 28 -23.5 50.5t-89.5 50.5q-80 11 -121.5 56.5t-44.5 111.5h98q3 -102 124 -102q56 0 88 22t32 68q0 79 -113 79z" />
    <glyph glyph-name="uni049A" unicode="&#x49a;" horiz-adv-x="652" 
d="M638 -168h-77v168h-110l-216 319l-103 -103v-216h-106v664h106v-319l305 319h139l-265 -266l208 -307h119v-259z" />
    <glyph glyph-name="uni049B" unicode="&#x49b;" horiz-adv-x="535" 
d="M522 -149h-73v149h-95l-132 240l-92 -89v-151h-101v492h101v-226l217 226h123l-176 -183l127 -229h101v-229z" />
    <glyph glyph-name="uni04A0" unicode="&#x4a0;" horiz-adv-x="781" 
d="M775 0h-127l-218 321l-106 -106v-215h-103v576h-210v88h313v-322l309 322h135l-265 -266z" />
    <glyph glyph-name="uni04A1" unicode="&#x4a1;" horiz-adv-x="668" 
d="M658 0h-110l-134 241l-94 -90v-151h-98v411h-212v81h310v-228l221 228h121l-178 -183z" />
    <glyph glyph-name="uni04A2" unicode="&#x4a2;" horiz-adv-x="642" 
d="M629 -168h-77v168h-105v313h-314v-313h-104v664h104v-264h314v264h105v-573h77v-259z" />
    <glyph glyph-name="uni04A3" unicode="&#x4a3;" horiz-adv-x="560" 
d="M546 -149h-73v149h-99v211h-245v-211h-97v492h97v-201h245v201h98v-412h74v-229z" />
    <glyph glyph-name="uni04AA" unicode="&#x4aa;" horiz-adv-x="604" 
d="M490 228h107q-22 -118 -97 -184.5t-193 -66.5q112 -50 112 -127q0 -39 -28 -61t-83 -22q-66 0 -97 26v65q25 -14 64 -14q71 0 71 48q0 24 -21.5 46t-74.5 46q-105 20 -168.5 108.5t-63.5 234.5q0 165 81.5 262t220.5 97q118 0 192.5 -68t84.5 -172h-107q-7 68 -53 107.5
t-117 39.5q-94 0 -143.5 -69.5t-49.5 -194.5t49.5 -192t141.5 -67q74 0 117.5 42t54.5 116z" />
    <glyph glyph-name="uni04AB" unicode="&#x4ab;" horiz-adv-x="476" 
d="M360 178h101q-11 -84 -69.5 -136.5t-145.5 -54.5q136 -52 136 -137q0 -38 -28.5 -60.5t-82.5 -22.5q-67 0 -98 26v65q26 -14 65 -14q70 0 70 49q0 25 -24.5 48t-86.5 50q-82 13 -129.5 80t-47.5 181q0 127 60 190t163 63q94 0 153 -50t66 -139h-101q-6 51 -38 78t-80 27
q-56 0 -89.5 -40.5t-33.5 -127.5q0 -89 34 -135.5t89 -46.5q45 0 78.5 28.5t38.5 78.5z" />
    <glyph glyph-name="uni04B2" unicode="&#x4b2;" horiz-adv-x="656" 
d="M643 -168h-77v168h-112l-158 253l-164 -253h-125l226 339l-214 325h126l151 -241l151 241h124l-214 -321l167 -252h119v-259z" />
    <glyph glyph-name="uni04B3" unicode="&#x4b3;" horiz-adv-x="547" 
d="M534 -149h-73v149h-104l-116 171l-114 -171h-121l177 250l-172 242h121l113 -167l113 167h116l-174 -242l121 -170h113v-229z" />
    <glyph glyph-name="uni04B6" unicode="&#x4b6;" horiz-adv-x="625" 
d="M612 -168h-77v168h-104v281q-76 -39 -197 -39q-103 0 -156 45.5t-53 167.5v209h105v-207q0 -73 34.5 -100t103.5 -27q101 0 163 34v300h103v-573h78v-259z" />
    <glyph glyph-name="uni04B7" unicode="&#x4b7;" horiz-adv-x="551" 
d="M538 -149h-73v149h-100v206q-67 -29 -165 -29q-88 0 -132.5 35.5t-44.5 131.5v148h98v-146q0 -54 27.5 -74t83.5 -20q86 0 133 25v215h97v-412h76v-229z" />
    <glyph glyph-name="uni04BA" unicode="&#x4ba;" horiz-adv-x="563" 
d="M29 664h103v-281q76 39 197 39q103 0 156 -45.5t53 -167.5v-209h-105v207q0 73 -34.5 100t-103.5 27q-101 0 -163 -34v-300h-103v664z" />
    <glyph glyph-name="uni04C3" unicode="&#x4c3;" horiz-adv-x="588" 
d="M564 -48q0 -81 -49.5 -133t-137.5 -52t-136.5 55t-48.5 151h92q2 -119 94 -119q43 0 67.5 25.5t24.5 69.5q0 33 -14 62.5t-49 77.5l-170 232l-106 -106v-215h-102v664h102v-323l309 323h136l-265 -266l183 -265q70 -103 70 -181z" />
    <glyph glyph-name="uni04C4" unicode="&#x4c4;" horiz-adv-x="478" 
d="M294 309l115 -208q45 -82 45 -155q0 -83 -49 -131t-129 -48q-81 0 -126.5 49t-49.5 136h85q7 -101 84 -101q40 0 63 27.5t23 71.5q0 45 -38 117l-93 174l-94 -90v-151h-98v492h98v-228l222 228h120z" />
    <glyph glyph-name="uni04C7" unicode="&#x4c7;" horiz-adv-x="579" 
d="M447 -30v343h-314v-313h-104v664h104v-264h314v264h105v-697q0 -89 -55.5 -144.5t-143.5 -55.5q-90 0 -139.5 54.5t-49.5 151.5h92q3 -119 96 -119q46 0 70.5 31t24.5 85z" />
    <glyph glyph-name="uni04C8" unicode="&#x4c8;" horiz-adv-x="504" 
d="M129 0h-97v492h97v-201h244v201h98v-538q0 -83 -51 -135t-133 -52q-84 0 -129.5 51t-45.5 141h92q2 -105 85 -105q84 0 84 104v252h-244v-210z" />
    <glyph glyph-name="uni04E8" unicode="&#x4e8;" horiz-adv-x="660" 
d="M331 -23q-151 0 -232 90.5t-81 258.5q0 170 81.5 265t230.5 95q148 0 228.5 -95.5t80.5 -267.5q0 -170 -80 -258t-228 -88zM327 68q89 0 142.5 55t61.5 167h-406q7 -111 59.5 -166.5t142.5 -55.5zM329 591q-88 0 -140 -54.5t-63 -157.5h404q-11 102 -62.5 157t-138.5 55z
" />
    <glyph glyph-name="uni04E9" unicode="&#x4e9;" horiz-adv-x="532" 
d="M264 -13q-114 0 -180 71.5t-66 187.5q0 118 67 188.5t180 70.5q112 0 178 -70.5t66 -187.5q0 -118 -66 -189t-179 -71zM265 420q-125 0 -142 -136h282q-8 66 -43.5 101t-96.5 35zM265 71q123 0 140 136h-282q17 -136 142 -136z" />
    <glyph glyph-name="uni04EE" unicode="&#x4ee;" horiz-adv-x="568" 
d="M473 781h-374v77h374v-77zM538 219q0 -119 -68 -180.5t-193 -61.5q-242 0 -245 231h94q1 -72 41.5 -109t112.5 -37q73 0 113.5 39.5t40.5 117.5v126q-20 -44 -72 -72.5t-122 -28.5q-99 0 -155 60.5t-56 183.5v176h105v-175q0 -79 39 -118t105 -39q70 0 113 41.5t43 114.5
v176h104v-445z" />
    <glyph glyph-name="uni04EF" unicode="&#x4ef;" horiz-adv-x="499" 
d="M364 -13v93q-13 -38 -52 -61.5t-97 -23.5q-82 0 -132.5 49t-50.5 136v312h100v-298q0 -118 107 -118q58 0 91.5 31.5t33.5 86.5v298h100v-503q0 -104 -62 -163t-164 -59q-98 0 -153.5 55t-55.5 151h94q0 -55 33 -87.5t86 -32.5q56 0 89 36t33 98zM438 609h-374v77h374
v-77z" />
    <glyph glyph-name="uni0512" unicode="&#x512;" horiz-adv-x="620" 
d="M487 -30v606h-218l-9 -184q-8 -166 -34.5 -251.5t-69.5 -113t-124 -27.5h-21v91h14q49 0 75 20.5t43 86t24 194.5l15 272h410v-697q0 -89 -57 -144.5t-147 -55.5q-88 0 -136 55t-48 151h92q2 -119 95 -119q48 0 72 30.5t24 85.5z" />
    <glyph glyph-name="uni0513" unicode="&#x513;" horiz-adv-x="528" 
d="M398 -42v453h-171l-7 -121q-7 -123 -29.5 -186.5t-58.5 -83.5t-102 -20h-17v80h12q40 0 61.5 14t36.5 61.5t20 139.5l12 197h341v-538q0 -84 -50.5 -135.5t-134.5 -51.5q-83 0 -128.5 51t-45.5 141h92q2 -105 82 -105q87 0 87 104z" />
    <glyph glyph-name="uni058F" unicode="&#x58f;" horiz-adv-x="484" 
d="M479 144h-58v-144h-104v144h-207v65h207v87h-207v65h207v120q0 120 -108 120q-105 0 -105 -121v-67h-94v68q0 104 52 155t148 51q102 0 156.5 -53.5t54.5 -148.5v-124h58v-65h-58v-87h58v-65z" />
    <glyph glyph-name="uni1E0C" unicode="&#x1e0c;" horiz-adv-x="599" 
d="M130 87h146q95 0 143.5 65t48.5 186t-50.5 179t-154.5 58h-133v-488zM297 0h-271v664h251q134 0 217 -88t83 -241q0 -148 -77.5 -241.5t-202.5 -93.5zM339 -202h-111v115h111v-115z" />
    <glyph glyph-name="uni1E0D" unicode="&#x1e0d;" horiz-adv-x="517" 
d="M254 69q59 0 97 46t38 130q0 78 -34.5 126t-101.5 48q-63 0 -97.5 -44.5t-34.5 -125.5q0 -85 36.5 -132.5t96.5 -47.5zM484 0h-97v88q-41 -101 -156 -101q-94 0 -153 70t-59 192q0 117 55 186.5t147 69.5q116 0 164 -105v272h99v-672zM312 -202h-111v115h111v-115z" />
    <glyph glyph-name="uni1E12" unicode="&#x1e12;" horiz-adv-x="599" 
d="M130 87h146q95 0 143.5 65t48.5 186t-50.5 179t-154.5 58h-133v-488zM297 0h-271v664h251q134 0 217 -88t83 -241q0 -148 -77.5 -241.5t-202.5 -93.5zM415 -227l-139 127l-138 -127l-39 43l132 142h91l132 -142z" />
    <glyph glyph-name="uni1E13" unicode="&#x1e13;" horiz-adv-x="517" 
d="M254 69q59 0 97 46t38 130q0 78 -34.5 126t-101.5 48q-63 0 -97.5 -44.5t-34.5 -125.5q0 -85 36.5 -132.5t96.5 -47.5zM484 0h-97v88q-41 -101 -156 -101q-94 0 -153 70t-59 192q0 117 55 186.5t147 69.5q116 0 164 -105v272h99v-672zM389 -227l-139 127l-138 -127
l-39 43l132 142h91l132 -142z" />
    <glyph glyph-name="uni1E24" unicode="&#x1e24;" horiz-adv-x="579" 
d="M551 0h-108v311h-310v-311h-107v664h107v-263h310v263h108v-664zM353 -202h-111v115h111v-115z" />
    <glyph glyph-name="uni1E25" unicode="&#x1e25;" horiz-adv-x="496" 
d="M463 0h-101v308q0 63 -24.5 90t-73.5 27q-73 0 -104 -48t-31 -122v-255h-100v672h100v-272q16 49 60.5 77t105.5 28q75 0 121.5 -42.5t46.5 -122.5v-340zM311 -202h-111v115h111v-115z" />
    <glyph glyph-name="uni1E3C" unicode="&#x1e3c;" 
d="M483 0h-457v664h107v-571h350v-93zM398 -227l-139 127l-138 -127l-39 43l132 142h91l132 -142z" />
    <glyph glyph-name="uni1E3D" unicode="&#x1e3d;" horiz-adv-x="220" 
d="M159 0h-100v672h100v-672zM251 -227l-139 127l-138 -127l-39 43l132 142h91l132 -142z" />
    <glyph glyph-name="uni1E44" unicode="&#x1e44;" horiz-adv-x="583" 
d="M554 0h-99l-329 497v-497h-100v664h114l314 -483v483h100v-664zM355 756h-111v115h111v-115z" />
    <glyph glyph-name="uni1E45" unicode="&#x1e45;" horiz-adv-x="498" 
d="M464 0h-100v303q0 65 -24.5 91t-76.5 26q-72 0 -103 -42t-31 -123v-255h-100v492h96v-98q42 111 172 111q76 0 121.5 -42.5t45.5 -127.5v-335zM313 584h-111v115h111v-115z" />
    <glyph glyph-name="uni1E4A" unicode="&#x1e4a;" horiz-adv-x="583" 
d="M554 0h-99l-329 497v-497h-100v664h114l314 -483v483h100v-664zM432 -227l-139 127l-138 -127l-39 43l132 142h91l132 -142z" />
    <glyph glyph-name="uni1E4B" unicode="&#x1e4b;" horiz-adv-x="498" 
d="M464 0h-100v303q0 65 -24.5 91t-76.5 26q-72 0 -103 -42t-31 -123v-255h-100v492h96v-98q42 111 172 111q76 0 121.5 -42.5t45.5 -127.5v-335zM389 -227l-139 127l-138 -127l-39 43l132 142h91l132 -142z" />
    <glyph glyph-name="uni1E5A" unicode="&#x1e5a;" horiz-adv-x="570" 
d="M130 360h200q63 0 93 29.5t30 78.5q0 50 -29 78.5t-87 28.5h-207v-215zM536 0h-104v172q0 54 -26 77.5t-95 23.5h-181v-273h-104v664h328q90 0 144.5 -52.5t54.5 -133.5q0 -60 -30.5 -103t-84.5 -57q53 -11 75.5 -41.5t22.5 -91.5v-185zM348 -202h-111v115h111v-115z" />
    <glyph glyph-name="uni1E5B" unicode="&#x1e5b;" horiz-adv-x="320" 
d="M129 0h-100v492h94v-88q47 101 162 101h22v-103q-17 3 -36 3q-70 0 -106 -41t-36 -111v-253zM145 -202h-111v115h111v-115z" />
    <glyph glyph-name="uni1E62" unicode="&#x1e62;" horiz-adv-x="555" 
d="M524 468h-101q-6 127 -157 127q-143 0 -143 -100q0 -59 65 -87q37 -16 113.5 -29t110.5 -25q130 -45 130 -172q0 -98 -68.5 -151.5t-189.5 -53.5q-124 0 -198.5 56.5t-76.5 165.5h103q1 -64 47.5 -100t124.5 -36q72 0 113 30.5t41 85.5q0 64 -70 91q-31 12 -105 25
t-114 28q-64 24 -94 64t-30 101q0 90 61 144t177 54q121 0 190 -59t71 -159zM341 -202h-111v115h111v-115z" />
    <glyph glyph-name="uni1E63" unicode="&#x1e63;" horiz-adv-x="467" 
d="M439 343h-96q-5 45 -31 65.5t-84 20.5q-101 0 -101 -61q0 -22 13.5 -35.5t43.5 -22.5q15 -5 78.5 -18.5t96.5 -25.5q45 -16 69.5 -43.5t24.5 -77.5q0 -74 -53.5 -116t-155.5 -42q-107 0 -168.5 46t-63.5 125h103q1 -46 35 -70.5t93 -24.5q56 0 84.5 20t28.5 51
q0 33 -41 53q-27 13 -89 27t-70 16q-126 36 -126 132q0 67 50 105t152 38q199 0 207 -162zM297 -202h-111v115h111v-115z" />
    <glyph glyph-name="uni1E6C" unicode="&#x1e6c;" horiz-adv-x="546" 
d="M324 0h-107v574h-210v90h527v-90h-210v-574zM337 -202h-111v115h111v-115z" />
    <glyph glyph-name="uni1E6D" unicode="&#x1e6d;" horiz-adv-x="449" 
d="M326 193v131h93v-140q0 -85 -49 -141t-145 -56q-99 0 -147.5 56t-48.5 142v440h99v-133h291v-72h-291v-226q0 -120 99 -120q49 0 74 32t25 87zM288 -202h-111v115h111v-115z" />
    <glyph glyph-name="Wgrave" unicode="&#x1e80;" horiz-adv-x="841" 
d="M649 0h-104l-126 486l-128 -486h-101l-184 664h114l124 -485l118 485h112l125 -485l123 485h109zM490 726l-223 106l40 70l210 -130z" />
    <glyph glyph-name="wgrave" unicode="&#x1e81;" horiz-adv-x="702" 
d="M547 0h-102l-96 332l-96 -332h-103l-144 492h106l97 -357l89 357h102l95 -357l93 357h104zM421 554l-223 106l40 70l210 -130z" />
    <glyph glyph-name="Wacute" unicode="&#x1e82;" horiz-adv-x="841" 
d="M649 0h-104l-126 486l-128 -486h-101l-184 664h114l124 -485l118 485h112l125 -485l123 485h109zM577 832l-224 -106l-26 46l209 130z" />
    <glyph glyph-name="wacute" unicode="&#x1e83;" horiz-adv-x="702" 
d="M547 0h-102l-96 332l-96 -332h-103l-144 492h106l97 -357l89 357h102l95 -357l93 357h104zM508 660l-224 -106l-26 46l209 130z" />
    <glyph glyph-name="Wdieresis" unicode="&#x1e84;" horiz-adv-x="841" 
d="M649 0h-104l-126 486l-128 -486h-101l-184 664h114l124 -485l118 485h112l125 -485l123 485h109zM383 756h-111v115h111v-115zM583 756h-110v115h110v-115z" />
    <glyph glyph-name="wdieresis" unicode="&#x1e85;" horiz-adv-x="702" 
d="M547 0h-102l-96 332l-96 -332h-103l-144 492h106l97 -357l89 357h102l95 -357l93 357h104zM313 584h-111v115h111v-115zM513 584h-110v115h110v-115z" />
    <glyph glyph-name="uni1E92" unicode="&#x1e92;" horiz-adv-x="525" 
d="M513 0h-506v91l373 483h-363v90h496v-85l-374 -488h374v-91zM326 -202h-111v115h111v-115z" />
    <glyph glyph-name="uni1E93" unicode="&#x1e93;" horiz-adv-x="440" 
d="M426 0h-414v77l281 335h-264v80h390v-81l-282 -329h289v-82zM283 -202h-111v115h111v-115z" />
    <glyph glyph-name="uni1E9E" unicode="&#x1e9e;" horiz-adv-x="596" 
d="M293 664h242v-82l-143 -160q91 -10 144 -65.5t53 -144.5q0 -100 -65 -162.5t-171 -62.5q-75 0 -126 27v82q47 -27 109 -27q70 0 110.5 39t40.5 103q0 66 -42.5 103.5t-104.5 37.5q-31 0 -60 -13v74l147 170h-134q-87 0 -122.5 -47t-35.5 -147v-389h-106v427q0 115 68 176
t196 61z" />
    <glyph glyph-name="uni1EA0" unicode="&#x1ea0;" horiz-adv-x="633" 
d="M424 237l-110 310l-111 -310h221zM622 0h-116l-51 149h-281l-55 -149h-113l249 664h122zM380 -202h-111v115h111v-115z" />
    <glyph glyph-name="uni1EA1" unicode="&#x1ea1;" horiz-adv-x="481" 
d="M346 183l1 71q-3 -4 -7.5 -6.5t-12 -5t-13 -4.5t-17 -4t-17.5 -3t-21.5 -3t-21.5 -3q-65 -11 -93 -29.5t-28 -61.5q0 -75 85 -75q62 0 102.5 35.5t42.5 88.5zM447 0h-93q-1 2 -6 67q-47 -80 -171 -80q-161 0 -161 144q0 37 12.5 64.5t29.5 43t50.5 27t58 16t69.5 10.5
q33 5 47.5 7.5t31 8t23 14t7.5 21.5q0 84 -107 84q-105 0 -113 -95h-93q3 173 210 173q111 0 158 -48.5t47 -145.5v-311zM302 -202h-111v115h111v-115z" />
    <glyph glyph-name="uni1EA2" unicode="&#x1ea2;" horiz-adv-x="633" 
d="M424 237l-110 310l-111 -310h221zM622 0h-116l-51 149h-281l-55 -149h-113l249 664h122zM337 753h-43q0 27 25.5 49t25.5 37q0 23 -30 23q-22 0 -44 -17l-15 48q28 25 68 25q34 0 53.5 -16.5t19.5 -44.5q0 -31 -30 -56t-30 -48z" />
    <glyph glyph-name="uni1EA3" unicode="&#x1ea3;" horiz-adv-x="481" 
d="M346 183l1 71q-3 -4 -7.5 -6.5t-12 -5t-13 -4.5t-17 -4t-17.5 -3t-21.5 -3t-21.5 -3q-65 -11 -93 -29.5t-28 -61.5q0 -75 85 -75q62 0 102.5 35.5t42.5 88.5zM447 0h-93q-1 2 -6 67q-47 -80 -171 -80q-161 0 -161 144q0 37 12.5 64.5t29.5 43t50.5 27t58 16t69.5 10.5
q33 5 47.5 7.5t31 8t23 14t7.5 21.5q0 84 -107 84q-105 0 -113 -95h-93q3 173 210 173q111 0 158 -48.5t47 -145.5v-311zM265 581h-43q0 27 25.5 49t25.5 37q0 23 -30 23q-22 0 -44 -17l-15 48q28 25 68 25q34 0 53.5 -16.5t19.5 -44.5q0 -31 -30 -56t-30 -48z" />
    <glyph glyph-name="uni1EA4" unicode="&#x1ea4;" horiz-adv-x="633" 
d="M424 237l-110 310l-111 -310h221zM622 0h-116l-51 149h-281l-55 -149h-113l249 664h122zM674 841l-180 -82l-22 39l169 101zM434 748l-116 101l-116 -101l-33 38l110 113h78l111 -113z" />
    <glyph glyph-name="uni1EA5" unicode="&#x1ea5;" horiz-adv-x="481" 
d="M346 183l1 71q-3 -4 -7.5 -6.5t-12 -5t-13 -4.5t-17 -4t-17.5 -3t-21.5 -3t-21.5 -3q-65 -11 -93 -29.5t-28 -61.5q0 -75 85 -75q62 0 102.5 35.5t42.5 88.5zM447 0h-93q-1 2 -6 67q-47 -80 -171 -80q-161 0 -161 144q0 37 12.5 64.5t29.5 43t50.5 27t58 16t69.5 10.5
q33 5 47.5 7.5t31 8t23 14t7.5 21.5q0 84 -107 84q-105 0 -113 -95h-93q3 173 210 173q111 0 158 -48.5t47 -145.5v-311zM601 669l-180 -82l-22 39l169 101zM361 576l-116 101l-116 -101l-33 38l110 113h78l111 -113z" />
    <glyph glyph-name="uni1EA6" unicode="&#x1ea6;" horiz-adv-x="633" 
d="M424 237l-110 310l-111 -310h221zM622 0h-116l-51 149h-281l-55 -149h-113l249 664h122zM446 749l-116 101l-116 -101l-34 37l111 113h78l111 -113zM636 759l-181 82l33 58l169 -100z" />
    <glyph glyph-name="uni1EA7" unicode="&#x1ea7;" horiz-adv-x="481" 
d="M346 183l1 71q-3 -4 -7.5 -6.5t-12 -5t-13 -4.5t-17 -4t-17.5 -3t-21.5 -3t-21.5 -3q-65 -11 -93 -29.5t-28 -61.5q0 -75 85 -75q62 0 102.5 35.5t42.5 88.5zM447 0h-93q-1 2 -6 67q-47 -80 -171 -80q-161 0 -161 144q0 37 12.5 64.5t29.5 43t50.5 27t58 16t69.5 10.5
q33 5 47.5 7.5t31 8t23 14t7.5 21.5q0 84 -107 84q-105 0 -113 -95h-93q3 173 210 173q111 0 158 -48.5t47 -145.5v-311zM364 577l-116 101l-116 -101l-34 37l111 113h78l111 -113zM554 587l-181 82l33 58l169 -100z" />
    <glyph glyph-name="uni1EA8" unicode="&#x1ea8;" horiz-adv-x="633" 
d="M424 237l-110 310l-111 -310h221zM622 0h-116l-51 149h-281l-55 -149h-113l249 664h122zM543 753h-44q4 30 29 52t25 34q0 23 -30 23q-22 0 -44 -17l-16 48q29 25 69 25q34 0 53.5 -16.5t19.5 -44.5q0 -19 -9.5 -33.5t-21.5 -22t-21.5 -20t-9.5 -28.5zM439 748l-116 101
l-116 -101l-34 38l110 113h78l111 -113z" />
    <glyph glyph-name="uni1EA9" unicode="&#x1ea9;" horiz-adv-x="481" 
d="M346 183l1 71q-3 -4 -7.5 -6.5t-12 -5t-13 -4.5t-17 -4t-17.5 -3t-21.5 -3t-21.5 -3q-65 -11 -93 -29.5t-28 -61.5q0 -75 85 -75q62 0 102.5 35.5t42.5 88.5zM447 0h-93q-1 2 -6 67q-47 -80 -171 -80q-161 0 -161 144q0 37 12.5 64.5t29.5 43t50.5 27t58 16t69.5 10.5
q33 5 47.5 7.5t31 8t23 14t7.5 21.5q0 84 -107 84q-105 0 -113 -95h-93q3 173 210 173q111 0 158 -48.5t47 -145.5v-311zM466 581h-44q4 30 29 52t25 34q0 23 -30 23q-22 0 -44 -17l-16 48q29 25 69 25q34 0 53.5 -16.5t19.5 -44.5q0 -19 -9.5 -33.5t-21.5 -22t-21.5 -20
t-9.5 -28.5zM362 576l-116 101l-116 -101l-34 38l110 113h78l111 -113z" />
    <glyph glyph-name="uni1EAA" unicode="&#x1eaa;" horiz-adv-x="633" 
d="M424 237l-110 310l-111 -310h221zM622 0h-116l-51 149h-281l-55 -149h-113l249 664h122zM401 915l43 -12q-17 -59 -76 -59q-18 0 -52.5 12.5t-46.5 12.5q-19 0 -34 -35l-41 18q18 61 69 61q25 0 57 -14t47 -14q25 0 34 30zM451 751l-29 -25l-104 75l-104 -75l-30 25
l99 85h69z" />
    <glyph glyph-name="uni1EAB" unicode="&#x1eab;" horiz-adv-x="481" 
d="M346 183l1 71q-3 -4 -7.5 -6.5t-12 -5t-13 -4.5t-17 -4t-17.5 -3t-21.5 -3t-21.5 -3q-65 -11 -93 -29.5t-28 -61.5q0 -75 85 -75q62 0 102.5 35.5t42.5 88.5zM447 0h-93q-1 2 -6 67q-47 -80 -171 -80q-161 0 -161 144q0 37 12.5 64.5t29.5 43t50.5 27t58 16t69.5 10.5
q33 5 47.5 7.5t31 8t23 14t7.5 21.5q0 84 -107 84q-105 0 -113 -95h-93q3 173 210 173q111 0 158 -48.5t47 -145.5v-311zM331 743l43 -12q-17 -59 -76 -59q-18 0 -52.5 12.5t-46.5 12.5q-19 0 -34 -35l-41 18q18 61 69 61q25 0 57 -14t47 -14q25 0 34 30zM381 579l-29 -25
l-104 75l-104 -75l-30 25l99 85h69z" />
    <glyph glyph-name="uni1EAC" unicode="&#x1eac;" horiz-adv-x="633" 
d="M424 237l-110 310l-111 -310h221zM622 0h-116l-51 149h-281l-55 -149h-113l249 664h122zM456 733l-139 127l-138 -127l-39 43l132 142h91l132 -142zM380 -202h-111v115h111v-115z" />
    <glyph glyph-name="uni1EAD" unicode="&#x1ead;" horiz-adv-x="481" 
d="M346 183l1 71q-3 -4 -7.5 -6.5t-12 -5t-13 -4.5t-17 -4t-17.5 -3t-21.5 -3t-21.5 -3q-65 -11 -93 -29.5t-28 -61.5q0 -75 85 -75q62 0 102.5 35.5t42.5 88.5zM447 0h-93q-1 2 -6 67q-47 -80 -171 -80q-161 0 -161 144q0 37 12.5 64.5t29.5 43t50.5 27t58 16t69.5 10.5
q33 5 47.5 7.5t31 8t23 14t7.5 21.5q0 84 -107 84q-105 0 -113 -95h-93q3 173 210 173q111 0 158 -48.5t47 -145.5v-311zM380 561l-139 127l-138 -127l-39 43l132 142h91l132 -142zM294 -202h-111v115h111v-115z" />
    <glyph glyph-name="uni1EAE" unicode="&#x1eae;" horiz-adv-x="633" 
d="M424 237l-110 310l-111 -310h221zM622 0h-116l-51 149h-281l-55 -149h-113l249 664h122zM377 840h49q0 -54 -32.5 -84t-77.5 -30t-77 30t-32 84h49q0 -32 16.5 -50t43.5 -18t43.5 18t17.5 50zM415 877l-131 -61l-16 29l124 73z" />
    <glyph glyph-name="uni1EAF" unicode="&#x1eaf;" horiz-adv-x="481" 
d="M346 183l1 71q-3 -4 -7.5 -6.5t-12 -5t-13 -4.5t-17 -4t-17.5 -3t-21.5 -3t-21.5 -3q-65 -11 -93 -29.5t-28 -61.5q0 -75 85 -75q62 0 102.5 35.5t42.5 88.5zM447 0h-93q-1 2 -6 67q-47 -80 -171 -80q-161 0 -161 144q0 37 12.5 64.5t29.5 43t50.5 27t58 16t69.5 10.5
q33 5 47.5 7.5t31 8t23 14t7.5 21.5q0 84 -107 84q-105 0 -113 -95h-93q3 173 210 173q111 0 158 -48.5t47 -145.5v-311zM302 668h49q0 -54 -32.5 -84t-77.5 -30t-77 30t-32 84h49q0 -32 16.5 -50t43.5 -18t43.5 18t17.5 50zM340 705l-131 -61l-16 29l124 73z" />
    <glyph glyph-name="uni1EB0" unicode="&#x1eb0;" horiz-adv-x="633" 
d="M424 237l-110 310l-111 -310h221zM622 0h-116l-51 149h-281l-55 -149h-113l249 664h122zM377 840h49q0 -54 -32 -84t-77 -30t-77.5 30t-32.5 84h49q1 -32 17.5 -50t43.5 -18q26 0 43 18t17 50zM349 816l-131 61l23 41l124 -73z" />
    <glyph glyph-name="uni1EB1" unicode="&#x1eb1;" horiz-adv-x="481" 
d="M346 183l1 71q-3 -4 -7.5 -6.5t-12 -5t-13 -4.5t-17 -4t-17.5 -3t-21.5 -3t-21.5 -3q-65 -11 -93 -29.5t-28 -61.5q0 -75 85 -75q62 0 102.5 35.5t42.5 88.5zM447 0h-93q-1 2 -6 67q-47 -80 -171 -80q-161 0 -161 144q0 37 12.5 64.5t29.5 43t50.5 27t58 16t69.5 10.5
q33 5 47.5 7.5t31 8t23 14t7.5 21.5q0 84 -107 84q-105 0 -113 -95h-93q3 173 210 173q111 0 158 -48.5t47 -145.5v-311zM305 668h49q0 -54 -32 -84t-77 -30t-77.5 30t-32.5 84h49q1 -32 17.5 -50t43.5 -18q26 0 43 18t17 50zM277 644l-131 61l23 41l124 -73z" />
    <glyph glyph-name="uni1EB2" unicode="&#x1eb2;" horiz-adv-x="633" 
d="M424 237l-110 310l-111 -310h221zM622 0h-116l-51 149h-281l-55 -149h-113l249 664h122zM377 840h49q0 -54 -32 -84t-77 -30t-77.5 30t-32.5 84h49q0 -33 16.5 -50.5t44.5 -17.5q27 0 43.5 18t16.5 50zM325 795h-32q0 21 19 38t19 26q0 17 -21 17q-15 0 -33 -12
q-7 20 -11 35q20 19 51 19q25 0 39.5 -12.5t14.5 -32.5q0 -22 -22.5 -41t-23.5 -37z" />
    <glyph glyph-name="uni1EB3" unicode="&#x1eb3;" horiz-adv-x="481" 
d="M346 183l1 71q-3 -4 -7.5 -6.5t-12 -5t-13 -4.5t-17 -4t-17.5 -3t-21.5 -3t-21.5 -3q-65 -11 -93 -29.5t-28 -61.5q0 -75 85 -75q62 0 102.5 35.5t42.5 88.5zM447 0h-93q-1 2 -6 67q-47 -80 -171 -80q-161 0 -161 144q0 37 12.5 64.5t29.5 43t50.5 27t58 16t69.5 10.5
q33 5 47.5 7.5t31 8t23 14t7.5 21.5q0 84 -107 84q-105 0 -113 -95h-93q3 173 210 173q111 0 158 -48.5t47 -145.5v-311zM303 668h49q0 -54 -32 -84t-77 -30t-77.5 30t-32.5 84h49q0 -33 16.5 -50.5t44.5 -17.5q27 0 43.5 18t16.5 50zM251 623h-32q0 21 19 38t19 26
q0 17 -21 17q-15 0 -33 -12q-7 20 -11 35q20 19 51 19q25 0 39.5 -12.5t14.5 -32.5q0 -22 -22.5 -41t-23.5 -37z" />
    <glyph glyph-name="uni1EB4" unicode="&#x1eb4;" horiz-adv-x="633" 
d="M424 237l-110 310l-111 -310h221zM622 0h-116l-51 149h-281l-55 -149h-113l249 664h122zM376 917l34 -9q-13 -53 -54 -53q-14 0 -36.5 13t-35.5 13t-22 -27l-32 16q14 46 51 46q15 0 37.5 -13.5t36.5 -13.5q17 0 21 28zM377 840h49q0 -54 -32 -84t-77 -30t-77.5 30
t-32.5 84h49q1 -32 17.5 -50t43.5 -18t43.5 18t16.5 50z" />
    <glyph glyph-name="uni1EB5" unicode="&#x1eb5;" horiz-adv-x="481" 
d="M346 183l1 71q-3 -4 -7.5 -6.5t-12 -5t-13 -4.5t-17 -4t-17.5 -3t-21.5 -3t-21.5 -3q-65 -11 -93 -29.5t-28 -61.5q0 -75 85 -75q62 0 102.5 35.5t42.5 88.5zM447 0h-93q-1 2 -6 67q-47 -80 -171 -80q-161 0 -161 144q0 37 12.5 64.5t29.5 43t50.5 27t58 16t69.5 10.5
q33 5 47.5 7.5t31 8t23 14t7.5 21.5q0 84 -107 84q-105 0 -113 -95h-93q3 173 210 173q111 0 158 -48.5t47 -145.5v-311zM300 745l34 -9q-13 -53 -54 -53q-14 0 -36.5 13t-35.5 13t-22 -27l-32 16q14 46 51 46q15 0 37.5 -13.5t36.5 -13.5q17 0 21 28zM301 668h49
q0 -54 -32 -84t-77 -30t-77.5 30t-32.5 84h49q1 -32 17.5 -50t43.5 -18t43.5 18t16.5 50z" />
    <glyph glyph-name="uni1EB6" unicode="&#x1eb6;" horiz-adv-x="633" 
d="M424 237l-110 310l-111 -310h221zM622 0h-116l-51 149h-281l-55 -149h-113l249 664h122zM408 918h69q0 -79 -46.5 -122.5t-112.5 -43.5t-112.5 43.5t-46.5 122.5h70q1 -47 25 -73t64 -26t64.5 26t25.5 73zM380 -202h-111v115h111v-115z" />
    <glyph glyph-name="uni1EB7" unicode="&#x1eb7;" horiz-adv-x="481" 
d="M346 183l1 71q-3 -4 -7.5 -6.5t-12 -5t-13 -4.5t-17 -4t-17.5 -3t-21.5 -3t-21.5 -3q-65 -11 -93 -29.5t-28 -61.5q0 -75 85 -75q62 0 102.5 35.5t42.5 88.5zM447 0h-93q-1 2 -6 67q-47 -80 -171 -80q-161 0 -161 144q0 37 12.5 64.5t29.5 43t50.5 27t58 16t69.5 10.5
q33 5 47.5 7.5t31 8t23 14t7.5 21.5q0 84 -107 84q-105 0 -113 -95h-93q3 173 210 173q111 0 158 -48.5t47 -145.5v-311zM332 746h69q0 -79 -46.5 -122.5t-112.5 -43.5t-112.5 43.5t-46.5 122.5h70q1 -47 25 -73t64 -26t64.5 26t25.5 73zM294 -202h-111v115h111v-115z" />
    <glyph glyph-name="uni1EB8" unicode="&#x1eb8;" horiz-adv-x="525" 
d="M518 0h-492v664h476v-90h-372v-181h345v-90h-345v-212h388v-91zM332 -202h-111v115h111v-115z" />
    <glyph glyph-name="uni1EB9" unicode="&#x1eb9;" horiz-adv-x="497" 
d="M121 285h252q-1 66 -36 103t-89 37q-55 0 -89.5 -37.5t-37.5 -102.5zM476 221h-358q3 -73 38.5 -114t94.5 -41q43 0 73.5 21t40.5 58h104q-47 -158 -218 -158q-113 0 -173 68.5t-60 190.5q0 123 60.5 191t169.5 68q112 0 170 -73t58 -211zM315 -202h-111v115h111v-115z
" />
    <glyph glyph-name="uni1EBA" unicode="&#x1eba;" horiz-adv-x="525" 
d="M518 0h-492v664h476v-90h-372v-181h345v-90h-345v-212h388v-91zM289 753h-43q0 27 25.5 49t25.5 37q0 23 -30 23q-22 0 -44 -17l-15 48q28 25 68 25q34 0 53.5 -16.5t19.5 -44.5q0 -31 -30 -56t-30 -48z" />
    <glyph glyph-name="uni1EBB" unicode="&#x1ebb;" horiz-adv-x="497" 
d="M121 285h252q-1 66 -36 103t-89 37q-55 0 -89.5 -37.5t-37.5 -102.5zM476 221h-358q3 -73 38.5 -114t94.5 -41q43 0 73.5 21t40.5 58h104q-47 -158 -218 -158q-113 0 -173 68.5t-60 190.5q0 123 60.5 191t169.5 68q112 0 170 -73t58 -211zM267 581h-43q0 27 25.5 49
t25.5 37q0 23 -30 23q-22 0 -44 -17l-15 48q28 25 68 25q34 0 53.5 -16.5t19.5 -44.5q0 -31 -30 -56t-30 -48z" />
    <glyph glyph-name="uni1EBC" unicode="&#x1ebc;" horiz-adv-x="525" 
d="M518 0h-492v664h476v-90h-372v-181h345v-90h-345v-212h388v-91zM375 868l64 -23q-30 -92 -106 -92q-27 0 -67.5 24t-61.5 24q-30 0 -46 -46l-59 32q29 83 96 83q33 0 74 -25.5t59 -25.5q14 0 28 12t19 37z" />
    <glyph glyph-name="uni1EBD" unicode="&#x1ebd;" horiz-adv-x="497" 
d="M121 285h252q-1 66 -36 103t-89 37q-55 0 -89.5 -37.5t-37.5 -102.5zM476 221h-358q3 -73 38.5 -114t94.5 -41q43 0 73.5 21t40.5 58h104q-47 -158 -218 -158q-113 0 -173 68.5t-60 190.5q0 123 60.5 191t169.5 68q112 0 170 -73t58 -211zM356 696l64 -23
q-30 -92 -106 -92q-27 0 -67.5 24t-61.5 24q-30 0 -46 -46l-59 32q29 83 96 83q32 0 74 -25.5t59 -25.5q14 0 28 12t19 37z" />
    <glyph glyph-name="uni1EBE" unicode="&#x1ebe;" horiz-adv-x="525" 
d="M518 0h-492v664h476v-90h-372v-181h345v-90h-345v-212h388v-91zM631 841l-180 -82l-22 39l169 101zM391 748l-116 101l-116 -101l-33 38l110 113h78l111 -113z" />
    <glyph glyph-name="uni1EBF" unicode="&#x1ebf;" horiz-adv-x="497" 
d="M121 285h252q-1 66 -36 103t-89 37q-55 0 -89.5 -37.5t-37.5 -102.5zM476 221h-358q3 -73 38.5 -114t94.5 -41q43 0 73.5 21t40.5 58h104q-47 -158 -218 -158q-113 0 -173 68.5t-60 190.5q0 123 60.5 191t169.5 68q112 0 170 -73t58 -211zM610 669l-180 -82l-22 39
l169 101zM370 576l-116 101l-116 -101l-33 38l110 113h78l111 -113z" />
    <glyph glyph-name="uni1EC0" unicode="&#x1ec0;" horiz-adv-x="525" 
d="M518 0h-492v664h476v-90h-372v-181h345v-90h-345v-212h388v-91zM397 749l-116 101l-116 -101l-34 37l111 113h78l111 -113zM587 759l-181 82l33 58l169 -100z" />
    <glyph glyph-name="uni1EC1" unicode="&#x1ec1;" horiz-adv-x="497" 
d="M121 285h252q-1 66 -36 103t-89 37q-55 0 -89.5 -37.5t-37.5 -102.5zM476 221h-358q3 -73 38.5 -114t94.5 -41q43 0 73.5 21t40.5 58h104q-47 -158 -218 -158q-113 0 -173 68.5t-60 190.5q0 123 60.5 191t169.5 68q112 0 170 -73t58 -211zM375 577l-116 101l-116 -101
l-34 37l111 113h78l111 -113zM565 587l-181 82l33 58l169 -100z" />
    <glyph glyph-name="uni1EC2" unicode="&#x1ec2;" horiz-adv-x="525" 
d="M518 0h-492v664h476v-90h-372v-181h345v-90h-345v-212h388v-91zM494 753h-44q4 30 29 52t25 34q0 23 -30 23q-22 0 -44 -17l-16 48q29 25 69 25q34 0 53.5 -16.5t19.5 -44.5q0 -19 -9.5 -33.5t-21.5 -22t-21.5 -20t-9.5 -28.5zM390 748l-116 101l-116 -101l-34 38
l110 113h78l111 -113z" />
    <glyph glyph-name="uni1EC3" unicode="&#x1ec3;" horiz-adv-x="497" 
d="M121 285h252q-1 66 -36 103t-89 37q-55 0 -89.5 -37.5t-37.5 -102.5zM476 221h-358q3 -73 38.5 -114t94.5 -41q43 0 73.5 21t40.5 58h104q-47 -158 -218 -158q-113 0 -173 68.5t-60 190.5q0 123 60.5 191t169.5 68q112 0 170 -73t58 -211zM473 581h-44q4 30 29 52t25 34
q0 23 -30 23q-22 0 -44 -17l-16 48q29 25 69 25q34 0 53.5 -16.5t19.5 -44.5q0 -19 -9.5 -33.5t-21.5 -22t-21.5 -20t-9.5 -28.5zM369 576l-116 101l-116 -101l-34 38l110 113h78l111 -113z" />
    <glyph glyph-name="uni1EC4" unicode="&#x1ec4;" horiz-adv-x="525" 
d="M518 0h-492v664h476v-90h-372v-181h345v-90h-345v-212h388v-91zM353 915l43 -12q-17 -59 -76 -59q-18 0 -52.5 12.5t-46.5 12.5q-19 0 -34 -35l-41 18q18 61 69 61q25 0 57 -14t47 -14q25 0 34 30zM403 751l-29 -25l-104 75l-104 -75l-30 25l99 85h69z" />
    <glyph glyph-name="uni1EC5" unicode="&#x1ec5;" horiz-adv-x="497" 
d="M121 285h252q-1 66 -36 103t-89 37q-55 0 -89.5 -37.5t-37.5 -102.5zM476 221h-358q3 -73 38.5 -114t94.5 -41q43 0 73.5 21t40.5 58h104q-47 -158 -218 -158q-113 0 -173 68.5t-60 190.5q0 123 60.5 191t169.5 68q112 0 170 -73t58 -211zM333 743l43 -12
q-17 -59 -76 -59q-18 0 -52.5 12.5t-46.5 12.5q-19 0 -34 -35l-41 18q18 61 69 61q25 0 57 -14t47 -14q25 0 34 30zM383 579l-29 -25l-104 75l-104 -75l-30 25l99 85h69z" />
    <glyph glyph-name="uni1EC6" unicode="&#x1ec6;" horiz-adv-x="525" 
d="M518 0h-492v664h476v-90h-372v-181h345v-90h-345v-212h388v-91zM404 733l-139 127l-138 -127l-39 43l132 142h91l132 -142zM326 -202h-111v115h111v-115z" />
    <glyph glyph-name="uni1EC7" unicode="&#x1ec7;" horiz-adv-x="497" 
d="M121 285h252q-1 66 -36 103t-89 37q-55 0 -89.5 -37.5t-37.5 -102.5zM476 221h-358q3 -73 38.5 -114t94.5 -41q43 0 73.5 21t40.5 58h104q-47 -158 -218 -158q-113 0 -173 68.5t-60 190.5q0 123 60.5 191t169.5 68q112 0 170 -73t58 -211zM389 561l-139 127l-138 -127
l-39 43l132 142h91l132 -142zM312 -202h-111v115h111v-115z" />
    <glyph glyph-name="uni1EC8" unicode="&#x1ec8;" horiz-adv-x="161" 
d="M133 0h-107v664h107v-664zM96 753h-43q0 27 25.5 49t25.5 37q0 23 -30 23q-22 0 -44 -17l-15 48q28 25 68 25q34 0 53.5 -16.5t19.5 -44.5q0 -31 -30 -56t-30 -48z" />
    <glyph glyph-name="uni1EC9" unicode="&#x1ec9;" horiz-adv-x="168" 
d="M132 0h-100v492h100v-492zM101 581h-43q0 27 25.5 49t25.5 37q0 23 -30 23q-22 0 -44 -17l-15 48q28 25 68 25q34 0 53.5 -16.5t19.5 -44.5q0 -31 -30 -56t-30 -48z" />
    <glyph glyph-name="uni1ECA" unicode="&#x1eca;" horiz-adv-x="161" 
d="M133 0h-107v664h107v-664zM145 -202h-111v115h111v-115z" />
    <glyph glyph-name="uni1ECB" unicode="&#x1ecb;" horiz-adv-x="168" 
d="M132 0h-100v492h100v-492zM132 551h-100v121h100v-121zM148 -202h-111v115h111v-115z" />
    <glyph glyph-name="uni1ECC" unicode="&#x1ecc;" horiz-adv-x="660" 
d="M327 68q96 0 151 64.5t55 194.5q0 127 -52.5 195.5t-151.5 68.5t-152 -69t-53 -197t53 -192.5t150 -64.5zM331 -23q-151 0 -232 90.5t-81 258.5q0 170 81.5 265t230.5 95q148 0 228.5 -95.5t80.5 -267.5q0 -170 -80 -258t-228 -88zM394 -202h-111v115h111v-115z" />
    <glyph glyph-name="uni1ECD" unicode="&#x1ecd;" horiz-adv-x="532" 
d="M265 71q69 0 106 45t37 130q0 84 -36.5 129t-106.5 45t-107 -45t-37 -129t37 -129.5t107 -45.5zM264 -13q-114 0 -180 71.5t-66 187.5q0 118 67 188.5t180 70.5q112 0 178 -70.5t66 -187.5q0 -118 -66 -189t-179 -71zM329 -202h-111v115h111v-115z" />
    <glyph glyph-name="uni1ECE" unicode="&#x1ece;" horiz-adv-x="660" 
d="M327 68q96 0 151 64.5t55 194.5q0 127 -52.5 195.5t-151.5 68.5t-152 -69t-53 -197t53 -192.5t150 -64.5zM331 -23q-151 0 -232 90.5t-81 258.5q0 170 81.5 265t230.5 95q148 0 228.5 -95.5t80.5 -267.5q0 -170 -80 -258t-228 -88zM347 753h-43q0 27 25.5 49t25.5 37
q0 23 -30 23q-22 0 -44 -17l-15 48q28 25 68 25q34 0 53.5 -16.5t19.5 -44.5q0 -31 -30 -56t-30 -48z" />
    <glyph glyph-name="uni1ECF" unicode="&#x1ecf;" horiz-adv-x="532" 
d="M265 71q69 0 106 45t37 130q0 84 -36.5 129t-106.5 45t-107 -45t-37 -129t37 -129.5t107 -45.5zM264 -13q-114 0 -180 71.5t-66 187.5q0 118 67 188.5t180 70.5q112 0 178 -70.5t66 -187.5q0 -118 -66 -189t-179 -71zM283 581h-43q0 27 25.5 49t25.5 37q0 23 -30 23
q-22 0 -44 -17l-15 48q28 25 68 25q34 0 53.5 -16.5t19.5 -44.5q0 -31 -30 -56t-30 -48z" />
    <glyph glyph-name="uni1ED0" unicode="&#x1ed0;" horiz-adv-x="660" 
d="M327 68q96 0 151 64.5t55 194.5q0 127 -52.5 195.5t-151.5 68.5t-152 -69t-53 -197t53 -192.5t150 -64.5zM331 -23q-151 0 -232 90.5t-81 258.5q0 170 81.5 265t230.5 95q148 0 228.5 -95.5t80.5 -267.5q0 -170 -80 -258t-228 -88zM695 841l-180 -82l-22 39l169 101z
M455 748l-116 101l-116 -101l-33 38l110 113h78l111 -113z" />
    <glyph glyph-name="uni1ED1" unicode="&#x1ed1;" horiz-adv-x="532" 
d="M265 71q69 0 106 45t37 130q0 84 -36.5 129t-106.5 45t-107 -45t-37 -129t37 -129.5t107 -45.5zM264 -13q-114 0 -180 71.5t-66 187.5q0 118 67 188.5t180 70.5q112 0 178 -70.5t66 -187.5q0 -118 -66 -189t-179 -71zM628 669l-180 -82l-22 39l169 101zM388 576l-116 101
l-116 -101l-33 38l110 113h78l111 -113z" />
    <glyph glyph-name="uni1ED2" unicode="&#x1ed2;" horiz-adv-x="660" 
d="M327 68q96 0 151 64.5t55 194.5q0 127 -52.5 195.5t-151.5 68.5t-152 -69t-53 -197t53 -192.5t150 -64.5zM331 -23q-151 0 -232 90.5t-81 258.5q0 170 81.5 265t230.5 95q148 0 228.5 -95.5t80.5 -267.5q0 -170 -80 -258t-228 -88zM459 749l-116 101l-116 -101l-34 37
l111 113h78l111 -113zM649 759l-181 82l33 58l169 -100z" />
    <glyph glyph-name="uni1ED3" unicode="&#x1ed3;" horiz-adv-x="532" 
d="M265 71q69 0 106 45t37 130q0 84 -36.5 129t-106.5 45t-107 -45t-37 -129t37 -129.5t107 -45.5zM264 -13q-114 0 -180 71.5t-66 187.5q0 118 67 188.5t180 70.5q112 0 178 -70.5t66 -187.5q0 -118 -66 -189t-179 -71zM396 577l-116 101l-116 -101l-34 37l111 113h78
l111 -113zM586 587l-181 82l33 58l169 -100z" />
    <glyph glyph-name="uni1ED4" unicode="&#x1ed4;" horiz-adv-x="660" 
d="M327 68q96 0 151 64.5t55 194.5q0 127 -52.5 195.5t-151.5 68.5t-152 -69t-53 -197t53 -192.5t150 -64.5zM331 -23q-151 0 -232 90.5t-81 258.5q0 170 81.5 265t230.5 95q148 0 228.5 -95.5t80.5 -267.5q0 -170 -80 -258t-228 -88zM552 753h-44q4 30 29 52t25 34
q0 23 -30 23q-22 0 -44 -17l-16 48q29 25 69 25q34 0 53.5 -16.5t19.5 -44.5q0 -19 -9.5 -33.5t-21.5 -22t-21.5 -20t-9.5 -28.5zM448 748l-116 101l-116 -101l-34 38l110 113h78l111 -113z" />
    <glyph glyph-name="uni1ED5" unicode="&#x1ed5;" horiz-adv-x="532" 
d="M265 71q69 0 106 45t37 130q0 84 -36.5 129t-106.5 45t-107 -45t-37 -129t37 -129.5t107 -45.5zM264 -13q-114 0 -180 71.5t-66 187.5q0 118 67 188.5t180 70.5q112 0 178 -70.5t66 -187.5q0 -118 -66 -189t-179 -71zM490 581h-44q4 30 29 52t25 34q0 23 -30 23
q-22 0 -44 -17l-16 48q29 25 69 25q34 0 53.5 -16.5t19.5 -44.5q0 -19 -9.5 -33.5t-21.5 -22t-21.5 -20t-9.5 -28.5zM386 576l-116 101l-116 -101l-34 38l110 113h78l111 -113z" />
    <glyph glyph-name="uni1ED6" unicode="&#x1ed6;" horiz-adv-x="660" 
d="M327 68q96 0 151 64.5t55 194.5q0 127 -52.5 195.5t-151.5 68.5t-152 -69t-53 -197t53 -192.5t150 -64.5zM331 -23q-151 0 -232 90.5t-81 258.5q0 170 81.5 265t230.5 95q148 0 228.5 -95.5t80.5 -267.5q0 -170 -80 -258t-228 -88zM415 915l43 -12q-17 -59 -76 -59
q-18 0 -52.5 12.5t-46.5 12.5q-19 0 -34 -35l-41 18q18 61 69 61q25 0 57 -14t47 -14q25 0 34 30zM465 751l-29 -25l-104 75l-104 -75l-30 25l99 85h69z" />
    <glyph glyph-name="uni1ED7" unicode="&#x1ed7;" horiz-adv-x="532" 
d="M265 71q69 0 106 45t37 130q0 84 -36.5 129t-106.5 45t-107 -45t-37 -129t37 -129.5t107 -45.5zM264 -13q-114 0 -180 71.5t-66 187.5q0 118 67 188.5t180 70.5q112 0 178 -70.5t66 -187.5q0 -118 -66 -189t-179 -71zM351 743l43 -12q-17 -59 -76 -59q-18 0 -52.5 12.5
t-46.5 12.5q-19 0 -34 -35l-41 18q18 61 69 61q25 0 57 -14t47 -14q25 0 34 30zM401 579l-29 -25l-104 75l-104 -75l-30 25l99 85h69z" />
    <glyph glyph-name="uni1ED8" unicode="&#x1ed8;" horiz-adv-x="660" 
d="M327 68q96 0 151 64.5t55 194.5q0 127 -52.5 195.5t-151.5 68.5t-152 -69t-53 -197t53 -192.5t150 -64.5zM331 -23q-151 0 -232 90.5t-81 258.5q0 170 81.5 265t230.5 95q148 0 228.5 -95.5t80.5 -267.5q0 -170 -80 -258t-228 -88zM470 733l-139 127l-138 -127l-39 43
l132 142h91l132 -142zM394 -202h-111v115h111v-115z" />
    <glyph glyph-name="uni1ED9" unicode="&#x1ed9;" horiz-adv-x="532" 
d="M265 71q69 0 106 45t37 130q0 84 -36.5 129t-106.5 45t-107 -45t-37 -129t37 -129.5t107 -45.5zM264 -13q-114 0 -180 71.5t-66 187.5q0 118 67 188.5t180 70.5q112 0 178 -70.5t66 -187.5q0 -118 -66 -189t-179 -71zM406 561l-139 127l-138 -127l-39 43l132 142h91
l132 -142zM329 -202h-111v115h111v-115z" />
    <glyph glyph-name="uni1EDA" unicode="&#x1eda;" horiz-adv-x="756" 
d="M682 702h55q21 -24 21 -79q0 -54 -24.5 -80t-67.5 -26q-35 0 -70 14q43 -86 43 -209q0 -169 -80 -257t-228 -88q-151 0 -232 90.5t-81 258.5q0 169 81.5 264.5t228.5 95.5q138 0 216 -87q40 -30 90 -30q60 0 60 71q0 38 -12 62zM327 68q96 0 151 64.5t55 194.5
q0 127 -52.5 195.5t-151.5 68.5t-152 -69t-53 -197t53 -192.5t150 -64.5zM488 832l-224 -106l-26 46l209 130z" />
    <glyph glyph-name="uni1EDB" unicode="&#x1edb;" horiz-adv-x="641" 
d="M422 660l-224 -106l-26 46l209 130zM567 543h55q21 -24 21 -79q0 -106 -89 -106q-38 0 -70 13q25 -56 25 -126q0 -117 -66.5 -187.5t-178.5 -70.5q-113 0 -179.5 71.5t-66.5 187.5q0 117 67 188t178 71q104 0 167 -65q45 -30 89 -30q60 0 60 71q0 38 -12 62zM265 71
q69 0 106 45t37 130q0 84 -36.5 129t-106.5 45t-107 -45t-37 -129t37 -129.5t107 -45.5z" />
    <glyph glyph-name="uni1EDC" unicode="&#x1edc;" horiz-adv-x="756" 
d="M682 702h55q21 -24 21 -79q0 -54 -24.5 -80t-67.5 -26q-35 0 -70 14q43 -86 43 -209q0 -169 -80 -257t-228 -88q-151 0 -232 90.5t-81 258.5q0 169 81.5 264.5t228.5 95.5q138 0 216 -87q40 -30 90 -30q60 0 60 71q0 38 -12 62zM327 68q96 0 151 64.5t55 194.5
q0 127 -52.5 195.5t-151.5 68.5t-152 -69t-53 -197t53 -192.5t150 -64.5zM401 726l-223 106l40 70l210 -130z" />
    <glyph glyph-name="uni1EDD" unicode="&#x1edd;" horiz-adv-x="641" 
d="M336 554l-223 106l40 70l210 -130zM567 543h55q21 -24 21 -79q0 -106 -89 -106q-38 0 -70 13q25 -56 25 -126q0 -117 -66.5 -187.5t-178.5 -70.5q-113 0 -179.5 71.5t-66.5 187.5q0 117 67 188t178 71q104 0 167 -65q45 -30 89 -30q60 0 60 71q0 38 -12 62zM265 71
q69 0 106 45t37 130q0 84 -36.5 129t-106.5 45t-107 -45t-37 -129t37 -129.5t107 -45.5z" />
    <glyph glyph-name="uni1EDE" unicode="&#x1ede;" horiz-adv-x="756" 
d="M682 702h55q21 -24 21 -79q0 -54 -24.5 -80t-67.5 -26q-35 0 -70 14q43 -86 43 -209q0 -169 -80 -257t-228 -88q-151 0 -232 90.5t-81 258.5q0 169 81.5 264.5t228.5 95.5q138 0 216 -87q40 -30 90 -30q60 0 60 71q0 38 -12 62zM327 68q96 0 151 64.5t55 194.5
q0 127 -52.5 195.5t-151.5 68.5t-152 -69t-53 -197t53 -192.5t150 -64.5zM349 753h-43q0 27 25.5 49t25.5 37q0 23 -30 23q-22 0 -44 -17l-15 48q28 25 68 25q34 0 53.5 -16.5t19.5 -44.5q0 -31 -30 -56t-30 -48z" />
    <glyph glyph-name="uni1EDF" unicode="&#x1edf;" horiz-adv-x="641" 
d="M567 543h55q21 -24 21 -79q0 -106 -89 -106q-38 0 -70 13q25 -56 25 -126q0 -117 -66.5 -187.5t-178.5 -70.5q-113 0 -179.5 71.5t-66.5 187.5q0 117 67 188t178 71q104 0 167 -65q45 -30 89 -30q60 0 60 71q0 38 -12 62zM265 71q69 0 106 45t37 130q0 84 -36.5 129
t-106.5 45t-107 -45t-37 -129t37 -129.5t107 -45.5zM290 581h-43q0 27 25.5 49t25.5 37q0 23 -30 23q-22 0 -44 -17l-15 48q28 25 68 25q34 0 53.5 -16.5t19.5 -44.5q0 -31 -30 -56t-30 -48z" />
    <glyph glyph-name="uni1EE0" unicode="&#x1ee0;" horiz-adv-x="756" 
d="M682 702h55q21 -24 21 -79q0 -54 -24.5 -80t-67.5 -26q-35 0 -70 14q43 -86 43 -209q0 -169 -80 -257t-228 -88q-151 0 -232 90.5t-81 258.5q0 169 81.5 264.5t228.5 95.5q138 0 216 -87q40 -30 90 -30q60 0 60 71q0 38 -12 62zM327 68q96 0 151 64.5t55 194.5
q0 127 -52.5 195.5t-151.5 68.5t-152 -69t-53 -197t53 -192.5t150 -64.5zM440 868l64 -23q-30 -92 -106 -92q-27 0 -67.5 24t-61.5 24q-30 0 -46 -46l-59 32q29 83 96 83q32 0 74 -25.5t59 -25.5q14 0 28 12t19 37z" />
    <glyph glyph-name="uni1EE1" unicode="&#x1ee1;" horiz-adv-x="641" 
d="M567 543h55q21 -24 21 -79q0 -106 -89 -106q-38 0 -70 13q25 -56 25 -126q0 -117 -66.5 -187.5t-178.5 -70.5q-113 0 -179.5 71.5t-66.5 187.5q0 117 67 188t178 71q104 0 167 -65q45 -30 89 -30q60 0 60 71q0 38 -12 62zM265 71q69 0 106 45t37 130q0 84 -36.5 129
t-106.5 45t-107 -45t-37 -129t37 -129.5t107 -45.5zM374 696l64 -23q-30 -92 -106 -92q-27 0 -67.5 24t-61.5 24q-30 0 -46 -46l-59 32q29 83 96 83q32 0 74 -25.5t59 -25.5q14 0 28 12t19 37z" />
    <glyph glyph-name="uni1EE2" unicode="&#x1ee2;" horiz-adv-x="756" 
d="M682 702h55q21 -24 21 -79q0 -54 -24.5 -80t-67.5 -26q-35 0 -70 14q43 -86 43 -209q0 -169 -80 -257t-228 -88q-151 0 -232 90.5t-81 258.5q0 169 81.5 264.5t228.5 95.5q138 0 216 -87q40 -30 90 -30q60 0 60 71q0 38 -12 62zM327 68q96 0 151 64.5t55 194.5
q0 127 -52.5 195.5t-151.5 68.5t-152 -69t-53 -197t53 -192.5t150 -64.5zM392 -202h-111v115h111v-115z" />
    <glyph glyph-name="uni1EE3" unicode="&#x1ee3;" horiz-adv-x="641" 
d="M567 543h55q21 -24 21 -79q0 -106 -89 -106q-38 0 -70 13q25 -56 25 -126q0 -117 -66.5 -187.5t-178.5 -70.5q-113 0 -179.5 71.5t-66.5 187.5q0 117 67 188t178 71q104 0 167 -65q45 -30 89 -30q60 0 60 71q0 38 -12 62zM265 71q69 0 106 45t37 130q0 84 -36.5 129
t-106.5 45t-107 -45t-37 -129t37 -129.5t107 -45.5zM331 -202h-111v115h111v-115z" />
    <glyph glyph-name="uni1EE4" unicode="&#x1ee4;" horiz-adv-x="578" 
d="M439 221v443h109v-443q0 -119 -69 -181.5t-196 -62.5q-122 0 -189.5 59.5t-67.5 176.5v451h109v-442q0 -75 38.5 -116t113.5 -41q72 0 112 39.5t40 116.5zM353 -202h-111v115h111v-115z" />
    <glyph glyph-name="uni1EE5" unicode="&#x1ee5;" 
d="M461 0h-94v95q-45 -108 -167 -108q-78 0 -124.5 47.5t-46.5 134.5v323h100v-293q0 -67 24.5 -97.5t77.5 -30.5q70 0 100.5 45.5t30.5 118.5v257h99v-492zM317 -202h-111v115h111v-115z" />
    <glyph glyph-name="uni1EE6" unicode="&#x1ee6;" horiz-adv-x="578" 
d="M439 221v443h109v-443q0 -119 -69 -181.5t-196 -62.5q-122 0 -189.5 59.5t-67.5 176.5v451h109v-442q0 -75 38.5 -116t113.5 -41q72 0 112 39.5t40 116.5zM306 753h-43q0 27 25.5 49t25.5 37q0 23 -30 23q-22 0 -44 -17l-15 48q28 25 68 25q34 0 53.5 -16.5t19.5 -44.5
q0 -31 -30 -56t-30 -48z" />
    <glyph glyph-name="uni1EE7" unicode="&#x1ee7;" 
d="M461 0h-94v95q-45 -108 -167 -108q-78 0 -124.5 47.5t-46.5 134.5v323h100v-293q0 -67 24.5 -97.5t77.5 -30.5q70 0 100.5 45.5t30.5 118.5v257h99v-492zM268 581h-43q0 27 25.5 49t25.5 37q0 23 -30 23q-22 0 -44 -17l-15 48q28 25 68 25q34 0 53.5 -16.5t19.5 -44.5
q0 -31 -30 -56t-30 -48z" />
    <glyph glyph-name="uni1EE8" unicode="&#x1ee8;" horiz-adv-x="736" 
d="M439 221v443h109v-84q29 -11 57 -11q32 0 45.5 18t13.5 54q0 39 -11 61h55q20 -25 20 -79q0 -53 -24.5 -80t-66.5 -27t-89 25v-320q0 -119 -69 -181.5t-196 -62.5q-122 0 -189.5 59.5t-67.5 176.5v451h109v-442q0 -75 38.5 -116t113.5 -41q72 0 112 39.5t40 116.5z
M451 832l-224 -106l-26 46l209 130z" />
    <glyph glyph-name="uni1EE9" unicode="&#x1ee9;" horiz-adv-x="629" 
d="M406 660l-224 -106l-26 46l209 130zM461 0h-94v95q-45 -108 -167 -108q-78 0 -124.5 47.5t-46.5 134.5v323h100v-308q0 -113 102 -113q68 0 99.5 44t31.5 114v263h99v-75q19 -7 49 -7q55 0 55 71q0 37 -11 62h55q20 -25 20 -79t-24.5 -80t-67.5 -26q-36 0 -76 17v-375z
" />
    <glyph glyph-name="uni1EEA" unicode="&#x1eea;" horiz-adv-x="736" 
d="M439 221v443h109v-84q29 -11 57 -11q32 0 45.5 18t13.5 54q0 39 -11 61h55q20 -25 20 -79q0 -53 -24.5 -80t-66.5 -27t-89 25v-320q0 -119 -69 -181.5t-196 -62.5q-122 0 -189.5 59.5t-67.5 176.5v451h109v-442q0 -75 38.5 -116t113.5 -41q72 0 112 39.5t40 116.5z
M366 726l-223 106l40 70l210 -130z" />
    <glyph glyph-name="uni1EEB" unicode="&#x1eeb;" horiz-adv-x="629" 
d="M318 554l-223 106l40 70l210 -130zM461 0h-94v95q-45 -108 -167 -108q-78 0 -124.5 47.5t-46.5 134.5v323h100v-308q0 -113 102 -113q68 0 99.5 44t31.5 114v263h99v-75q19 -7 49 -7q55 0 55 71q0 37 -11 62h55q20 -25 20 -79t-24.5 -80t-67.5 -26q-36 0 -76 17v-375z
" />
    <glyph glyph-name="uni1EEC" unicode="&#x1eec;" horiz-adv-x="736" 
d="M439 221v443h109v-84q29 -11 57 -11q32 0 45.5 18t13.5 54q0 39 -11 61h55q20 -25 20 -79q0 -53 -24.5 -80t-66.5 -27t-89 25v-320q0 -119 -69 -181.5t-196 -62.5q-122 0 -189.5 59.5t-67.5 176.5v451h109v-442q0 -75 38.5 -116t113.5 -41q72 0 112 39.5t40 116.5z
M316 753h-43q0 27 25.5 49t25.5 37q0 23 -30 23q-22 0 -44 -17l-15 48q28 25 68 25q34 0 53.5 -16.5t19.5 -44.5q0 -31 -30 -56t-30 -48z" />
    <glyph glyph-name="uni1EED" unicode="&#x1eed;" horiz-adv-x="629" 
d="M461 0h-94v95q-45 -108 -167 -108q-78 0 -124.5 47.5t-46.5 134.5v323h100v-308q0 -113 102 -113q68 0 99.5 44t31.5 114v263h99v-75q19 -7 49 -7q55 0 55 71q0 37 -11 62h55q20 -25 20 -79t-24.5 -80t-67.5 -26q-36 0 -76 17v-375zM268 581h-43q0 27 25.5 49t25.5 37
q0 23 -30 23q-22 0 -44 -17l-15 48q28 25 68 25q34 0 53.5 -16.5t19.5 -44.5q0 -31 -30 -56t-30 -48z" />
    <glyph glyph-name="uni1EEE" unicode="&#x1eee;" horiz-adv-x="736" 
d="M439 221v443h109v-84q29 -11 57 -11q32 0 45.5 18t13.5 54q0 39 -11 61h55q20 -25 20 -79q0 -53 -24.5 -80t-66.5 -27t-89 25v-320q0 -119 -69 -181.5t-196 -62.5q-122 0 -189.5 59.5t-67.5 176.5v451h109v-442q0 -75 38.5 -116t113.5 -41q72 0 112 39.5t40 116.5z
M400 868l64 -23q-30 -92 -106 -92q-27 0 -67.5 24t-61.5 24q-30 0 -46 -46l-59 32q29 83 96 83q32 0 74 -25.5t59 -25.5q14 0 28 12t19 37z" />
    <glyph glyph-name="uni1EEF" unicode="&#x1eef;" horiz-adv-x="629" 
d="M357 696l64 -23q-30 -92 -106 -92q-27 0 -67.5 24t-61.5 24q-30 0 -46 -46l-59 32q29 83 96 83q33 0 74 -25.5t59 -25.5q14 0 28 12t19 37zM461 0h-94v95q-45 -108 -167 -108q-78 0 -124.5 47.5t-46.5 134.5v323h100v-308q0 -113 102 -113q68 0 99.5 44t31.5 114v263h99
v-75q19 -7 49 -7q55 0 55 71q0 37 -11 62h55q20 -25 20 -79t-24.5 -80t-67.5 -26q-36 0 -76 17v-375z" />
    <glyph glyph-name="uni1EF0" unicode="&#x1ef0;" horiz-adv-x="736" 
d="M439 221v443h109v-84q29 -11 57 -11q32 0 45.5 18t13.5 54q0 39 -11 61h55q20 -25 20 -79q0 -53 -24.5 -80t-66.5 -27t-89 25v-320q0 -119 -69 -181.5t-196 -62.5q-122 0 -189.5 59.5t-67.5 176.5v451h109v-442q0 -75 38.5 -116t113.5 -41q72 0 112 39.5t40 116.5z
M355 -202h-111v115h111v-115z" />
    <glyph glyph-name="uni1EF1" unicode="&#x1ef1;" horiz-adv-x="629" 
d="M461 0h-94v95q-45 -108 -167 -108q-78 0 -124.5 47.5t-46.5 134.5v323h100v-308q0 -113 102 -113q68 0 99.5 44t31.5 114v263h99v-75q19 -7 49 -7q55 0 55 71q0 37 -11 62h55q20 -25 20 -79t-24.5 -80t-67.5 -26q-36 0 -76 17v-375zM307 -202h-111v115h111v-115z" />
    <glyph glyph-name="Ygrave" unicode="&#x1ef2;" horiz-adv-x="593" 
d="M351 0h-107v261l-238 403h125l168 -293l160 293h124l-232 -404v-260zM371 726l-223 106l40 70l210 -130z" />
    <glyph glyph-name="ygrave" unicode="&#x1ef3;" horiz-adv-x="499" 
d="M364 -13v93q-13 -38 -52 -61.5t-97 -23.5q-82 0 -132.5 49t-50.5 136v312h100v-298q0 -118 107 -118q58 0 91.5 31.5t33.5 86.5v298h100v-503q0 -104 -62 -163t-164 -59q-98 0 -153.5 55t-55.5 151h94q0 -55 33 -87.5t86 -32.5q56 0 89 36t33 98zM319 554l-223 106l40 70
l210 -130z" />
    <glyph glyph-name="uni1EF6" unicode="&#x1ef6;" horiz-adv-x="593" 
d="M351 0h-107v261l-238 403h125l168 -293l160 293h124l-232 -404v-260zM317 753h-43q0 27 25.5 49t25.5 37q0 23 -30 23q-22 0 -44 -17l-15 48q28 25 68 25q34 0 53.5 -16.5t19.5 -44.5q0 -31 -30 -56t-30 -48z" />
    <glyph glyph-name="uni1EF7" unicode="&#x1ef7;" horiz-adv-x="499" 
d="M364 -13v93q-13 -38 -52 -61.5t-97 -23.5q-82 0 -132.5 49t-50.5 136v312h100v-298q0 -118 107 -118q58 0 91.5 31.5t33.5 86.5v298h100v-503q0 -104 -62 -163t-164 -59q-98 0 -153.5 55t-55.5 151h94q0 -55 33 -87.5t86 -32.5q56 0 89 36t33 98zM270 581h-43
q0 27 25.5 49t25.5 37q0 23 -30 23q-22 0 -44 -17l-15 48q28 25 68 25q34 0 53.5 -16.5t19.5 -44.5q0 -31 -30 -56t-30 -48z" />
    <glyph glyph-name="endash" unicode="&#x2013;" horiz-adv-x="432" 
d="M411 268h-395v79h395v-79z" />
    <glyph glyph-name="emdash" unicode="&#x2014;" horiz-adv-x="608" 
d="M588 268h-572v79h572v-79z" />
    <glyph glyph-name="quoteleft" unicode="&#x2018;" horiz-adv-x="183" 
d="M148 731v-43q-65 -16 -66 -98h66v-124h-118v95q0 77 26.5 116.5t91.5 53.5z" />
    <glyph glyph-name="quoteright" unicode="&#x2019;" horiz-adv-x="183" 
d="M31 426v43q66 17 66 98h-66v124h118v-95q0 -77 -26.5 -116.5t-91.5 -53.5z" />
    <glyph glyph-name="quotesinglbase" unicode="&#x201a;" horiz-adv-x="194" 
d="M37 -141v43q66 16 66 98h-66v124h118v-95q0 -77 -26.5 -116.5t-91.5 -53.5z" />
    <glyph glyph-name="quotedblleft" unicode="&#x201c;" horiz-adv-x="356" 
d="M148 731v-43q-65 -16 -66 -98h66v-124h-118v95q0 77 26.5 116.5t91.5 53.5zM326 731v-43q-65 -16 -66 -98h66v-124h-118v95q0 77 26.5 116.5t91.5 53.5z" />
    <glyph glyph-name="quotedblright" unicode="&#x201d;" horiz-adv-x="366" 
d="M215 426v43q66 17 66 98h-66v124h118v-95q0 -77 -26.5 -116.5t-91.5 -53.5zM31 426v43q66 17 66 98h-66v124h118v-95q0 -77 -26.5 -116.5t-91.5 -53.5z" />
    <glyph glyph-name="quotedblbase" unicode="&#x201e;" horiz-adv-x="378" 
d="M37 -141v43q66 16 66 98h-66v124h118v-95q0 -77 -26.5 -116.5t-91.5 -53.5zM226 -141v43q66 16 66 98h-66v124h118v-95q0 -77 -26.5 -116.5t-91.5 -53.5z" />
    <glyph glyph-name="dagger" unicode="&#x2020;" horiz-adv-x="507" 
d="M296 0h-79v452h-179v63h179v149h79v-149h170v-63h-170v-452z" />
    <glyph glyph-name="daggerdbl" unicode="&#x2021;" horiz-adv-x="507" 
d="M466 149h-170v-149h-79v149h-179v62h179v241h-179v63h179v149h79v-149h170v-63h-170v-241h170v-62z" />
    <glyph glyph-name="bullet" unicode="&#x2022;" horiz-adv-x="400" 
d="M346 343q0 -55 -43 -92.5t-105 -37.5q-64 0 -107 37.5t-43 92.5q0 57 43 93.5t107 36.5q63 0 105.5 -37t42.5 -93z" />
    <glyph glyph-name="ellipsis" unicode="&#x2026;" horiz-adv-x="805" 
d="M135 0h-109v119h109v-119zM457 0h-109v119h109v-119zM779 0h-109v119h109v-119z" />
    <glyph glyph-name="perthousand" unicode="&#x2030;" horiz-adv-x="875" 
d="M132 372q60 0 60 137q0 136 -60 136t-60 -136q0 -137 60 -137zM129 331q-109 0 -109 179q0 176 110 176q112 0 112 -175q0 -180 -113 -180zM96 -20h-58l462 704h58zM469 19q60 0 60 137q0 136 -60 136t-60 -136q0 -137 60 -137zM466 -22q-109 0 -109 179q0 176 110 176
q112 0 112 -175q0 -180 -113 -180zM749 19q60 0 60 137q0 136 -60 136t-60 -136q0 -137 60 -137zM746 -22q-109 0 -109 179q0 176 110 176q112 0 112 -175q0 -180 -113 -180z" />
    <glyph glyph-name="guilsinglleft" unicode="&#x2039;" horiz-adv-x="221" 
d="M156 145l-141 172l141 174l53 -58l-99 -116l99 -115z" />
    <glyph glyph-name="guilsinglright" unicode="&#x203a;" horiz-adv-x="221" 
d="M69 145l-54 57l99 115l-99 116l54 58l140 -174z" />
    <glyph glyph-name="fraction" unicode="&#x2044;" horiz-adv-x="126" 
d="M-139 -20h-58l462 704h58z" />
    <glyph glyph-name="zerosuperior" unicode="&#x2070;" horiz-adv-x="272" 
d="M137 372q60 0 60 137q0 136 -60 136t-60 -136q0 -137 60 -137zM134 331q-109 0 -109 179q0 176 110 176q112 0 112 -175q0 -180 -113 -180z" />
    <glyph glyph-name="foursuperior" unicode="&#x2074;" horiz-adv-x="265" 
d="M159 458v146l-92 -146h92zM208 343h-50v76h-140v44l133 212h57v-217h36v-39h-36v-76z" />
    <glyph glyph-name="fivesuperior" unicode="&#x2075;" horiz-adv-x="272" 
d="M82 473h-52l7 202h200v-43h-155l-4 -113q25 35 73 35q44 0 71 -27.5t27 -76.5q0 -54 -31 -86.5t-80 -32.5q-45 0 -76 27t-33 70h51q2 -26 16.5 -41t40.5 -15q31 0 46.5 20.5t15.5 54.5q0 66 -58 66q-41 0 -59 -40z" />
    <glyph glyph-name="sixsuperior" unicode="&#x2076;" horiz-adv-x="270" 
d="M238 603h-49q-5 42 -47 42q-65 0 -69 -124q32 39 77 39q41 0 67.5 -29.5t26.5 -79.5q0 -53 -29.5 -86.5t-80.5 -33.5q-110 0 -110 174q0 181 118 181q42 0 66.5 -21.5t29.5 -61.5zM74 458q0 -40 16.5 -63t45.5 -23q28 0 43.5 21t15.5 54q0 34 -16 53.5t-42 19.5
q-24 0 -41 -17t-22 -45z" />
    <glyph glyph-name="sevensuperior" unicode="&#x2077;" horiz-adv-x="266" 
d="M121 343h-52q6 76 38 152.5t83 134.5h-172v45h227v-39q-54 -59 -87 -137t-37 -156z" />
    <glyph glyph-name="eightsuperior" unicode="&#x2078;" horiz-adv-x="274" 
d="M136 372q29 0 44.5 17.5t15.5 46.5q0 62 -60 62t-60 -61q0 -30 15.5 -47.5t44.5 -17.5zM136 538q51 0 51 53q0 25 -13.5 39.5t-37.5 14.5q-25 0 -38.5 -14.5t-13.5 -39.5q0 -53 52 -53zM189 523q27 -8 43 -31t16 -57q0 -45 -29 -74.5t-83 -29.5q-53 0 -82.5 29.5
t-29.5 74.5q0 67 61 85q-24 8 -35.5 29.5t-11.5 46.5q0 39 28 64.5t72 25.5q43 0 69 -25t26 -64q0 -60 -44 -74z" />
    <glyph glyph-name="ninesuperior" unicode="&#x2079;" horiz-adv-x="270" 
d="M30 414h49q4 -43 47 -43q65 0 69 125q-29 -39 -76 -39q-42 0 -68.5 29.5t-26.5 79.5q0 53 29.5 86.5t80.5 33.5q110 0 110 -173q0 -182 -118 -182q-85 0 -96 83zM194 558q0 41 -16.5 64t-44.5 23t-44 -21.5t-16 -54.5t15.5 -52.5t41.5 -19.5q25 0 42.5 17t21.5 44z" />
    <glyph glyph-name="zeroinferior" unicode="&#x2080;" horiz-adv-x="272" 
d="M137 19q60 0 60 137q0 136 -60 136t-60 -136q0 -137 60 -137zM134 -22q-109 0 -109 179q0 176 110 176q112 0 112 -175q0 -180 -113 -180z" />
    <glyph glyph-name="oneinferior" unicode="&#x2081;" horiz-adv-x="165" 
d="M135 -10h-50v239h-67v35q43 0 58.5 11.5t17.5 46.5h41v-332z" />
    <glyph glyph-name="twoinferior" unicode="&#x2082;" horiz-adv-x="259" 
d="M239 -10h-221q2 52 21 84t81 76q41 29 55 44.5t14 41.5q0 54 -58 54q-60 0 -60 -73h-48q0 56 28 86t81 30q48 0 77 -24.5t29 -72.5q0 -38 -20.5 -61.5t-75.5 -62.5q-31 -22 -45.5 -39t-16.5 -40h159v-43z" />
    <glyph glyph-name="threeinferior" unicode="&#x2083;" horiz-adv-x="266" 
d="M106 145v35q45 0 62 14t17 40q0 27 -14.5 42.5t-38.5 15.5q-26 0 -41.5 -17.5t-15.5 -48.5h-47q0 48 28.5 77.5t75.5 29.5q44 0 72.5 -25.5t28.5 -66.5q0 -53 -49 -74q59 -18 59 -84q0 -48 -31.5 -76.5t-81.5 -28.5t-78.5 29.5t-28.5 79.5h48q0 -68 60 -68q28 0 44.5 17
t16.5 49t-19.5 46t-66.5 14z" />
    <glyph glyph-name="fourinferior" unicode="&#x2084;" horiz-adv-x="265" 
d="M159 105v146l-92 -146h92zM208 -10h-50v76h-140v44l133 212h57v-217h36v-39h-36v-76z" />
    <glyph glyph-name="fiveinferior" unicode="&#x2085;" horiz-adv-x="272" 
d="M82 120h-52l7 202h200v-43h-155l-4 -113q25 35 73 35q44 0 71 -27.5t27 -76.5q0 -54 -31 -86.5t-80 -32.5q-45 0 -76 27t-33 70h51q2 -26 16.5 -41t40.5 -15q31 0 46.5 20.5t15.5 54.5q0 66 -58 66q-41 0 -59 -40z" />
    <glyph glyph-name="sixinferior" unicode="&#x2086;" horiz-adv-x="270" 
d="M238 250h-49q-5 42 -47 42q-65 0 -69 -124q32 39 77 39q41 0 67.5 -29.5t26.5 -79.5q0 -53 -29.5 -86.5t-80.5 -33.5q-110 0 -110 174q0 181 118 181q42 0 66.5 -21.5t29.5 -61.5zM74 105q0 -40 16.5 -63t45.5 -23q28 0 43.5 21t15.5 54q0 34 -16 53.5t-42 19.5
q-24 0 -41 -17t-22 -45z" />
    <glyph glyph-name="seveninferior" unicode="&#x2087;" horiz-adv-x="266" 
d="M121 -10h-52q6 76 38 152.5t83 134.5h-172v45h227v-39q-54 -59 -87 -137t-37 -156z" />
    <glyph glyph-name="eightinferior" unicode="&#x2088;" horiz-adv-x="274" 
d="M136 19q29 0 44.5 17.5t15.5 46.5q0 62 -60 62t-60 -61q0 -30 15.5 -47.5t44.5 -17.5zM136 185q51 0 51 53q0 25 -13.5 39.5t-37.5 14.5q-25 0 -38.5 -14.5t-13.5 -39.5q0 -53 52 -53zM189 170q27 -8 43 -31t16 -57q0 -46 -29 -75t-83 -29q-53 0 -82.5 29.5t-29.5 74.5
q0 67 61 85q-24 8 -35.5 29.5t-11.5 46.5q0 39 28 64.5t72 25.5q43 0 69 -25t26 -64q0 -60 -44 -74z" />
    <glyph glyph-name="nineinferior" unicode="&#x2089;" horiz-adv-x="270" 
d="M30 61h49q4 -43 47 -43q65 0 69 125q-29 -39 -76 -39q-42 0 -68.5 29.5t-26.5 79.5q0 53 29.5 86.5t80.5 33.5q110 0 110 -173q0 -182 -118 -182q-85 0 -96 83zM194 205q0 41 -16.5 64t-44.5 23t-44 -21.5t-16 -54.5t15.5 -52.5t41.5 -19.5q25 0 42.5 17t21.5 44z" />
    <glyph glyph-name="uni20A9" unicode="&#x20a9;" horiz-adv-x="729" 
d="M548 0h-83l-51 242h-102l-51 -242h-81l-54 242h-118v54h106l-17 79h-89v54h77l-52 235h91l48 -235h100l46 235h90l48 -235h103l48 235h87l-52 -235h76v-54h-88l-17 -79h105v-54h-117zM467 375l17 -79h48l16 79h-81zM340 375l-16 -79h79l-16 79h-47zM183 375l17 -79h46
l16 79h-79zM495 242l13 -63l13 63h-26zM211 242l13 -63l12 63h-25zM364 486l-12 -57h24z" />
    <glyph glyph-name="uni20AA" unicode="&#x20aa;" horiz-adv-x="612" 
d="M243 576h-138v-576h-76v664h168q65 0 104 -6.5t71 -27t45.5 -60t13.5 -104.5v-308h-76v309q0 109 -112 109zM377 86h138v578h77v-664h-168q-53 0 -86 3.5t-64.5 15t-48 33t-26.5 57t-10 88.5v308h77v-310q0 -109 111 -109z" />
    <glyph glyph-name="dong" unicode="&#x20ab;" horiz-adv-x="546" 
d="M412 110h-84l-3 64q-33 -75 -120 -75q-78 0 -126 58.5t-48 161.5q0 96 44.5 154t121.5 58q86 0 127 -78v120h-132v51h132v48h88v-48h99v-51h-99v-463zM225 173q44 0 73 37t29 96q0 69 -26 107.5t-76 38.5q-103 0 -103 -140q0 -63 28.5 -101t74.5 -38zM481 0h-448v50h448
v-50z" />
    <glyph glyph-name="Euro" unicode="&#x20ac;" horiz-adv-x="610" 
d="M501 151l90 -50q-37 -58 -98.5 -91t-136.5 -33q-107 0 -185.5 62t-103.5 176h-55l14 60h32q-2 28 -2 45q0 18 2 44h-46l14 61h39q29 125 102.5 193t190.5 68q90 0 168 -50l-49 -90q-47 47 -119 47q-69 0 -116.5 -44t-65.5 -124h240l-32 -61h-219q-1 -14 -1 -41
q0 -12 3 -48h170l-32 -60h-123q19 -69 64 -107t106 -38q101 0 149 81z" />
    <glyph glyph-name="uni20AD" unicode="&#x20ad;" horiz-adv-x="567" 
d="M537 306h-245l268 -306h-128l-239 287v-287h-102v306h-85v76h85v282h102v-265l229 265h125l-248 -282h238v-76z" />
    <glyph glyph-name="uni20AE" unicode="&#x20ae;" horiz-adv-x="546" 
d="M434 414l-110 -49v-102l110 50v-65l-110 -49v-199h-104v155l-116 -52v64l116 52v101l-116 -51v64l116 52v191h-210v88h525v-88h-211v-147l110 50v-65z" />
    <glyph glyph-name="uni20B1" unicode="&#x20b1;" horiz-adv-x="556" 
d="M548 354h-54q-19 -68 -70 -105.5t-127 -37.5h-144v-211h-101v354h-47v43h47v73h-47v42h47v152h245q77 0 128.5 -40t69.5 -112h53v-42h-46q2 -24 2 -35q0 -20 -3 -38h47v-43zM416 434q0 18 -3 36h-260v-73h260q3 17 3 37zM153 582v-70h247q-33 70 -107 70h-140zM153 286
h140q74 0 106 68h-246v-68z" />
    <glyph glyph-name="uni20B2" unicode="&#x20b2;" horiz-adv-x="650" 
d="M171 -81h-84l60 115q-62 48 -95.5 128t-33.5 174q0 150 84 250t233 100q73 0 137 -27l37 71h84l-199 -381h227v-349h-89l-2 101q-23 -54 -79 -89t-133 -35q-55 0 -107 21zM127 336q0 -135 68 -209l233 448q-42 22 -94 22q-94 0 -150.5 -72.5t-56.5 -188.5zM521 263h-171
l-94 -180q37 -16 78 -16q86 0 136.5 57.5t50.5 138.5z" />
    <glyph glyph-name="uni20B4" unicode="&#x20b4;" horiz-adv-x="555" 
d="M538 230h-396q-10 -23 -10 -51q0 -56 35 -88t102 -32q116 0 143 94h85q-12 -85 -71 -130.5t-156 -45.5q-105 0 -161.5 52.5t-56.5 146.5q0 34 5 54h-41v63h74q26 28 69 42.5t95.5 25t79.5 21.5h-318v63h384q8 22 8 50q0 52 -29.5 82t-89.5 30q-109 0 -134 -96h-80
q16 83 72 129t145 46q97 0 147.5 -53t50.5 -139q0 -26 -5 -49h53v-63h-82q-18 -22 -47 -37.5t-53.5 -22t-63.5 -15.5t-57 -14h303v-63z" />
    <glyph glyph-name="uni20B8" unicode="&#x20b8;" horiz-adv-x="493" 
d="M296 0h-98v388h-185v80h466v-80h-183v-388zM479 588h-466v76h466v-76z" />
    <glyph glyph-name="uni20B9" unicode="&#x20b9;" horiz-adv-x="530" 
d="M517 417h-90q-7 -76 -51.5 -121t-119.5 -55l136 -241h-114q-27 47 -75.5 132.5t-66.5 117.5v71q28 1 44 1.5t39 3.5t36.5 9.5t28.5 16.5t24 26.5t13 38.5h-312v77h310q-18 92 -128 92h-182v78h508v-78h-153q49 -30 59 -92h94v-77z" />
    <glyph glyph-name="uni20BA" unicode="&#x20ba;" horiz-adv-x="573" 
d="M173 85h123q62 0 105 38.5t57 104.5h105q-23 -106 -92 -167t-172 -61h-228v201l-66 -29v64l66 29v102l-66 -29v64l66 29v233h102v-188l162 71v-65l-162 -71v-101l162 71v-65l-162 -71v-160z" />
    <glyph glyph-name="uni20BC" unicode="&#x20bc;" horiz-adv-x="641" 
d="M271 664h100v-172q130 -8 189.5 -64t59.5 -164v-264h-103v254q0 133 -146 151v-405h-100v405q-145 -17 -145 -154v-251h-105v260q0 107 60.5 164.5t189.5 66.5v173z" />
    <glyph glyph-name="uni20BD" unicode="&#x20bd;" horiz-adv-x="527" 
d="M345 102h-169v-102h-104v102h-62v77h62v67h-62v77h62v341h241q96 0 151.5 -56.5t55.5 -154.5q0 -100 -57.5 -153.5t-158.5 -53.5h-128v-67h169v-77zM176 323h130q56 0 89.5 35t33.5 92q0 56 -34 92t-89 36h-130v-255z" />
    <glyph glyph-name="uni20BE" unicode="&#x20be;" horiz-adv-x="634" 
d="M425 736v-58q95 -17 138.5 -72.5t56.5 -159.5h-97q-5 62 -28 97.5t-70 50.5v-215h-58v224q-20 2 -32 2q-29 0 -51 -3v-223h-57v210q-101 -36 -101 -180q0 -118 57 -196.5t172 -136.5v-76h-326v82h201q-212 111 -212 340q0 108 50 172t159 84v58h57v-52q28 2 46 2
q7 0 19 -0.5t18 -0.5v51h58z" />
    <glyph glyph-name="litre" unicode="&#x2113;" horiz-adv-x="346" 
d="M256 52v-64q-17 -5 -33 -5q-92 0 -128 105q-44 -22 -93 -35v62q46 14 78 31q-8 53 -8 107q0 66 10 134.5t30.5 133t57.5 105.5t85 41q83 0 83 -142q0 -70 -15.5 -138t-60 -143t-113.5 -124q23 -72 78 -72q16 0 29 4zM132 258q0 -41 4 -76q139 107 139 333q0 36 -6.5 54.5
t-26.5 18.5q-51 0 -80.5 -104t-29.5 -226z" />
    <glyph glyph-name="uni2116" unicode="&#x2116;" horiz-adv-x="855" 
d="M554 0h-99l-329 497v-497h-100v664h114l314 -483v483h100v-664zM720 433q38 0 58 25t20 71q0 96 -78 96q-79 0 -79 -96q0 -46 20.5 -71t58.5 -25zM720 387q-63 0 -99.5 39t-36.5 103q0 65 36.5 104t99.5 39q61 0 97.5 -39t36.5 -104q0 -64 -36.5 -103t-97.5 -39z" />
    <glyph glyph-name="uni2117" unicode="&#x2117;" horiz-adv-x="678" 
d="M335 -9q-131 0 -224.5 100.5t-93.5 241.5t93.5 241t224.5 100q132 0 225 -100t93 -241t-93 -241.5t-225 -100.5zM337 36q113 0 194 86.5t81 209.5q0 122 -81 209t-194 87q-114 0 -194.5 -87t-80.5 -209q0 -123 80 -209.5t195 -86.5zM283 172h-57v320h141q46 0 74.5 -30
t28.5 -74t-28.5 -72t-74.5 -28h-84v-116zM283 334h76q30 0 45 15.5t15 40.5q0 24 -15 38.5t-45 14.5h-76v-109z" />
    <glyph glyph-name="trademark" unicode="&#x2122;" horiz-adv-x="462" 
d="M132 407h-47v213h-68v44h181v-44h-66v-213zM436 407h-45v159l-60 -159l-66 164v-163h-44v256h54l55 -149l54 149h52v-257z" />
    <glyph glyph-name="onethird" unicode="&#x2153;" horiz-adv-x="629" 
d="M88 -20h-58l462 704h58zM138 343h-50v239h-67v35q43 0 58.5 11.5t17.5 46.5h41v-332zM472 145v35q45 0 62 14t17 40q0 27 -14.5 42.5t-38.5 15.5q-26 0 -41.5 -17.5t-15.5 -48.5h-47q0 48 28.5 77.5t75.5 29.5q44 0 72.5 -25.5t28.5 -66.5q0 -53 -49 -74q59 -18 59 -84
q0 -48 -31.5 -76.5t-81.5 -28.5t-78.5 29.5t-28.5 79.5h48q0 -68 60 -68q28 0 44.5 17t16.5 49t-19.5 46t-66.5 14z" />
    <glyph glyph-name="twothirds" unicode="&#x2154;" horiz-adv-x="640" 
d="M118 -20h-58l462 704h58zM242 343h-221q2 52 21 84t81 76q41 29 55 44.5t14 41.5q0 54 -58 54q-60 0 -60 -73h-48q0 56 28 86t81 30q48 0 77 -24.5t29 -72.5q0 -38 -20.5 -61.5t-75.5 -62.5q-31 -22 -45.5 -39t-16.5 -40h159v-43zM483 145v35q45 0 62 14t17 40
q0 27 -14.5 42.5t-38.5 15.5q-26 0 -41.5 -17.5t-15.5 -48.5h-47q0 48 28.5 77.5t75.5 29.5q44 0 72.5 -25.5t28.5 -66.5q0 -53 -49 -74q59 -18 59 -84q0 -48 -31.5 -76.5t-81.5 -28.5t-78.5 29.5t-28.5 79.5h48q0 -68 60 -68q28 0 44.5 17t16.5 49t-19.5 46t-66.5 14z" />
    <glyph glyph-name="oneeighth" unicode="&#x215b;" horiz-adv-x="633" 
d="M84 -20h-58l462 704h58zM138 343h-50v239h-67v35q43 0 58.5 11.5t17.5 46.5h41v-332zM502 19q29 0 44.5 17.5t15.5 46.5q0 62 -60 62t-60 -61q0 -30 15.5 -47.5t44.5 -17.5zM502 185q51 0 51 53q0 25 -13.5 39.5t-37.5 14.5q-25 0 -38.5 -14.5t-13.5 -39.5q0 -53 52 -53z
M555 170q27 -8 43 -31t16 -57q0 -46 -29 -75t-83 -29q-53 0 -82.5 29.5t-29.5 74.5q0 67 61 85q-24 8 -35.5 29.5t-11.5 46.5q0 39 28 64.5t72 25.5q43 0 69 -25t26 -64q0 -60 -44 -74z" />
    <glyph glyph-name="threeeighths" unicode="&#x215c;" horiz-adv-x="641" 
d="M120 -20h-58l462 704h58zM510 19q29 0 44.5 17.5t15.5 46.5q0 62 -60 62t-60 -61q0 -30 15.5 -47.5t44.5 -17.5zM510 185q51 0 51 53q0 25 -13.5 39.5t-37.5 14.5q-25 0 -38.5 -14.5t-13.5 -39.5q0 -53 52 -53zM563 170q27 -8 43 -31t16 -57q0 -46 -29 -75t-83 -29
q-53 0 -82.5 29.5t-29.5 74.5q0 67 61 85q-24 8 -35.5 29.5t-11.5 46.5q0 39 28 64.5t72 25.5q43 0 69 -25t26 -64q0 -60 -44 -74zM105 498v35q45 0 62 14t17 40q0 27 -14.5 42.5t-38.5 15.5q-26 0 -41.5 -17.5t-15.5 -48.5h-47q0 48 28.5 77.5t75.5 29.5q44 0 72.5 -25.5
t28.5 -66.5q0 -53 -49 -74q59 -18 59 -84q0 -48 -31.5 -76.5t-81.5 -28.5t-78.5 29.5t-28.5 79.5h48q0 -68 60 -68q28 0 44.5 17t16.5 49t-19.5 46t-66.5 14z" />
    <glyph glyph-name="fiveeighths" unicode="&#x215d;" horiz-adv-x="626" 
d="M110 -20h-58l462 704h58zM74 473h-52l7 202h200v-43h-155l-4 -113q25 35 73 35q44 0 71 -27.5t27 -76.5q0 -54 -31 -86.5t-80 -32.5q-45 0 -76 27t-33 70h51q2 -26 16.5 -41t40.5 -15q31 0 46.5 20.5t15.5 54.5q0 66 -58 66q-41 0 -59 -40zM495 19q29 0 44.5 17.5
t15.5 46.5q0 62 -60 62t-60 -61q0 -30 15.5 -47.5t44.5 -17.5zM495 185q51 0 51 53q0 25 -13.5 39.5t-37.5 14.5q-25 0 -38.5 -14.5t-13.5 -39.5q0 -53 52 -53zM548 170q27 -8 43 -31t16 -57q0 -46 -29.5 -75t-82.5 -29t-82.5 29.5t-29.5 74.5q0 67 61 85q-24 8 -35.5 29.5
t-11.5 46.5q0 39 28 64.5t72 25.5q43 0 69 -25t26 -64q0 -60 -44 -74z" />
    <glyph glyph-name="seveneighths" unicode="&#x215e;" horiz-adv-x="641" 
d="M106 -20h-58l462 704h58zM511 19q29 0 44.5 17.5t15.5 46.5q0 62 -60 62t-60 -61q0 -30 15.5 -47.5t44.5 -17.5zM511 185q51 0 51 53q0 25 -13.5 39.5t-37.5 14.5q-25 0 -38.5 -14.5t-13.5 -39.5q0 -53 52 -53zM564 170q27 -8 43 -31t16 -57q0 -46 -29.5 -75t-82.5 -29
t-82.5 29.5t-29.5 74.5q0 67 61 85q-24 8 -35.5 29.5t-11.5 46.5q0 39 28 64.5t72 25.5q43 0 69 -25t26 -64q0 -60 -44 -74zM124 343h-52q6 76 38 152.5t83 134.5h-172v45h227v-39q-54 -59 -87 -137t-37 -156z" />
    <glyph glyph-name="partialdiff" unicode="&#x2202;" horiz-adv-x="565" 
d="M430 278q-22 34 -67.5 54t-95.5 20q-135 0 -135 -138q0 -73 39 -111t106 -38q70 0 111 56t42 157zM93 557l-34 79q57 50 194 50q62 0 109.5 -17t87.5 -57t61.5 -116t21.5 -185q0 -334 -270 -334q-111 0 -173.5 65.5t-62.5 174.5q0 107 61.5 165t170.5 58q46 0 91.5 -17
t73.5 -51q0 117 -47.5 171.5t-123.5 54.5q-103 0 -160 -41z" />
    <glyph glyph-name="product" unicode="&#x220f;" horiz-adv-x="591" 
d="M540 -233h-88v825h-318v-825h-88v897h494v-897z" />
    <glyph glyph-name="summation" unicode="&#x2211;" horiz-adv-x="520" 
d="M484 -182h-452v62l185 361l-185 361v62h452v-84h-329l167 -339l-167 -340h329v-83z" />
    <glyph glyph-name="minus" unicode="&#x2212;" horiz-adv-x="517" 
d="M486 306h-460v73h460v-73z" />
    <glyph glyph-name="radical" unicode="&#x221a;" horiz-adv-x="576" 
d="M323 0h-96l-114 304h-92v62h180l73 -238l169 536h107z" />
    <glyph glyph-name="infinity" unicode="&#x221e;" horiz-adv-x="660" 
d="M328 275q-41 -100 -146 -100q-61 0 -100.5 43t-39.5 122q0 80 39.5 123t100.5 43q54 0 88 -25t58 -76q23 51 57.5 76t88.5 25q61 0 100.5 -43t39.5 -123q0 -79 -39.5 -122t-100.5 -43q-107 0 -146 100zM297 337q-35 94 -102 94q-40 0 -63 -24.5t-23 -66.5q0 -93 86 -93
q73 0 102 90zM359 337q29 -90 103 -90q41 0 63 24t22 69q0 42 -22.5 66.5t-62.5 24.5q-37 0 -61 -23t-42 -71z" />
    <glyph glyph-name="integral" unicode="&#x222b;" horiz-adv-x="472" 
d="M94 -233h-48v86h48q83 0 83 103v533q0 96 53.5 139.5t141.5 43.5h48v-87h-48q-83 0 -83 -103v-532q0 -97 -53 -140t-142 -43z" />
    <glyph glyph-name="approxequal" unicode="&#x2248;" horiz-adv-x="548" 
d="M516 274v-80q-60 -67 -144 -67q-40 0 -108.5 31t-103.5 31q-74 0 -132 -75v79q57 67 129 67q49 0 119 -30t100 -30q85 0 140 74zM516 512v-80q-60 -67 -144 -67q-40 0 -108.5 31t-103.5 31q-74 0 -132 -75v79q57 67 129 67q49 0 119 -30t100 -30q85 0 140 74z" />
    <glyph glyph-name="notequal" unicode="&#x2260;" horiz-adv-x="517" 
d="M486 407h-152l-84 -128h236v-73h-284l-148 -226h-58l148 226h-118v73h166l84 128h-250v73h298l134 204h58l-134 -204h104v-73z" />
    <glyph glyph-name="lessequal" unicode="&#x2264;" horiz-adv-x="517" 
d="M486 96l-460 210v73l460 211v-81l-378 -166l378 -166v-81zM486 -6h-460v73h460v-73z" />
    <glyph glyph-name="greaterequal" unicode="&#x2265;" horiz-adv-x="517" 
d="M486 -6h-460v73h460v-73zM486 306l-460 -210v81l378 166l-378 166v81l460 -211v-73z" />
    <glyph glyph-name="dotmath" unicode="&#x22c5;" horiz-adv-x="163" 
d="M135 271h-109v119h109v-119z" />
    <glyph glyph-name="lozenge" unicode="&#x25ca;" horiz-adv-x="549" 
d="M331 0h-108l-181 332l181 332h108l171 -332zM276 94l125 238l-125 237l-130 -237z" />
    <glyph glyph-name="uniE000" unicode="&#xe000;" horiz-adv-x="655" 
d="M797 -14h93q0 -106 -50.5 -162.5t-133.5 -56.5q-85 0 -135 55t-50 149v117q-59 -111 -206 -111q-133 0 -215 101.5t-82 254.5q0 154 84 253.5t235 99.5q116 0 196 -64t87 -163h-107q-6 59 -57 98.5t-119 39.5q-97 0 -153.5 -72t-56.5 -197q0 -118 57 -189.5t150 -71.5
q86 0 136.5 57.5t50.5 138.5h-170v86h270v-374q0 -119 88 -119q40 0 64 33t24 97z" />
    <glyph glyph-name="uniE001" unicode="&#xe001;" horiz-adv-x="517" 
d="M255 72q66 0 100 49t34 134q0 76 -38 122t-96 46q-60 0 -97 -47.5t-37 -127.5q0 -176 134 -176zM484 -233h-99v324q-48 -104 -161 -104q-95 0 -150 68.5t-55 185.5q0 123 59 193.5t154 70.5q114 0 155 -102v89h97v-725z" />
    <glyph glyph-name="uniE002" unicode="&#xe002;" horiz-adv-x="459" 
d="M429 294h-230l109 -116l-63 -65l-220 228l220 227l63 -65l-109 -115h230v-94z" />
    <glyph glyph-name="uniE003" unicode="&#xe003;" horiz-adv-x="460" 
d="M209 113l-64 65l110 116h-229v94h229l-110 115l64 65l221 -227z" />
    <glyph glyph-name="uniE004" unicode="&#xe004;" horiz-adv-x="1083" 
d="M797 -14h93q0 -106 -50.5 -162.5t-133.5 -56.5q-85 0 -135 55t-50 149v117q-59 -111 -206 -111q-133 0 -215 101.5t-82 254.5q0 154 84 253.5t235 99.5q116 0 196 -64t87 -163h-107q-6 59 -57 98.5t-119 39.5q-97 0 -153.5 -72t-56.5 -197q0 -118 57 -189.5t150 -71.5
q86 0 136.5 57.5t50.5 138.5h-170v86h270v-374q0 -61 24.5 -90t63.5 -29q40 0 64 33t24 97zM896 0h-107v574h-181v90h464v-90h-176v-574z" />
    <glyph glyph-name="uniE005" unicode="&#xe005;" horiz-adv-x="569" 
d="M560 664l-276 -525q-42 -81 -89 -110t-142 -29h-28v91h28q61 0 90.5 19t57.5 74l32 62l-224 418h113l163 -318l165 318h110z" />
    <glyph glyph-name="uniE006" unicode="&#xe006;" horiz-adv-x="293" 
d="M10 492h59v132h96v-132h122v-70h-122v-267q0 -35 19.5 -55.5t56.5 -20.5h34v-79h-59q-73 0 -110 38t-37 105v279h-59v70z" />
    <glyph glyph-name="fi" unicode="&#xfb01;" horiz-adv-x="454" 
d="M177 0h-99v420h-71v72h71q0 86 50 133t147 47h149v-121h-100v32h-35q-61 0 -86.5 -20t-25.5 -71h108v-72h-108v-420zM424 0h-100v492h100v-492z" />
    <glyph glyph-name="fl" unicode="&#xfb02;" horiz-adv-x="454" 
d="M422 0h-100v420h-145v-420h-99v420h-71v72h71q0 180 204 180v-82q-59 0 -82 -22.5t-23 -75.5h145v180h100v-672z" />
    <glyph glyph-name="circumflexhook" horiz-adv-x="525" 
d="M420 581h-44q4 30 29 52t25 34q0 23 -30 23q-22 0 -44 -17l-16 48q29 25 69 25q34 0 53.5 -16.5t19.5 -44.5q0 -19 -9.5 -33.5t-21.5 -22t-21.5 -20t-9.5 -28.5zM316 576l-116 101l-116 -101l-34 38l110 113h78l111 -113z" />
    <glyph glyph-name="breveacute" horiz-adv-x="316" 
d="M220 668h49q0 -54 -32.5 -84t-77.5 -30t-77 30t-32 84h49q0 -32 16.5 -50t43.5 -18t43.5 18t17.5 50zM258 705l-131 -61l-16 29l124 73z" />
    <glyph glyph-name="brevetilde" horiz-adv-x="317" 
d="M219 745l34 -9q-13 -53 -54 -53q-14 0 -36.5 13t-35.5 13t-22 -27l-32 16q14 46 51 46q15 0 37.5 -13.5t36.5 -13.5q17 0 21 28zM220 668h49q0 -54 -32 -84t-77 -30t-77.5 30t-32.5 84h49q1 -32 17.5 -50t43.5 -18t43.5 18t16.5 50z" />
    <glyph glyph-name="brevehook" horiz-adv-x="316" 
d="M220 668h49q0 -54 -32 -84t-77 -30t-77.5 30t-32.5 84h49q0 -33 16.5 -50.5t44.5 -17.5q27 0 43.5 18t16.5 50zM168 623h-32q0 21 19 38t19 26q0 17 -21 17q-15 0 -33 -12q-7 20 -11 35q20 19 51 19q25 0 39.5 -12.5t14.5 -32.5q0 -22 -22.5 -41t-23.5 -37z" />
    <glyph glyph-name="circumflexacute" horiz-adv-x="614" 
d="M555 669l-180 -82l-22 39l169 101zM315 576l-116 101l-116 -101l-33 38l110 113h78l111 -113z" />
    <glyph glyph-name="gravecircumflex" horiz-adv-x="613" 
d="M546 577l-116 101l-116 -101l-34 37l111 113h78l111 -113zM736 587l-181 82l33 58l169 -100z" />
    <glyph glyph-name="CR" horiz-adv-x="0" 
 />
    </font>
</defs>
</svg>
