<svg width="510" height="510" viewBox="0 0 510 510" fill="none" xmlns="http://www.w3.org/2000/svg">
<circle cx="255" cy="255" r="250" fill="#28CC74"/>
<g filter="url(#filter0_d_135_148)">
<rect x="112.501" y="127.5" width="284.999" height="255" rx="7.5" stroke="white" stroke-width="5"/>
<line x1="110" y1="170.5" x2="396.067" y2="170.5" stroke="white" stroke-width="5"/>
<path d="M290.348 149.5C290.348 155.616 285.485 160.5 279.577 160.5C273.668 160.5 268.806 155.616 268.806 149.5C268.806 143.384 273.668 138.5 279.577 138.5C285.485 138.5 290.348 143.384 290.348 149.5Z" stroke="white" stroke-width="5"/>
<path d="M331.636 149.5C331.636 155.616 326.774 160.5 320.865 160.5C314.956 160.5 310.094 155.616 310.094 149.5C310.094 143.384 314.956 138.5 320.865 138.5C326.774 138.5 331.636 143.384 331.636 149.5Z" stroke="white" stroke-width="5"/>
<path d="M372.924 149.5C372.924 155.616 368.061 160.5 362.152 160.5C356.244 160.5 351.381 155.616 351.381 149.5C351.381 143.384 356.244 138.5 362.152 138.5C368.061 138.5 372.924 143.384 372.924 149.5Z" stroke="white" stroke-width="5"/>
<path d="M179.967 274.5H190.441C194.583 274.5 197.941 277.858 197.941 282V318C197.941 322.142 194.583 325.5 190.441 325.5H179.967C175.825 325.5 172.467 322.142 172.467 318V282C172.467 277.858 175.825 274.5 179.967 274.5Z" fill="#28CC74" stroke="white" stroke-width="5"/>
<path d="M332 325.5H321.526C317.383 325.5 314.026 322.142 314.026 318V282C314.026 277.858 317.383 274.5 321.526 274.5H332C336.142 274.5 339.5 277.858 339.5 282V318C339.5 322.142 336.142 325.5 332 325.5Z" fill="#28CC74" stroke="white" stroke-width="5"/>
<path d="M205.526 267.5H217.966C222.109 267.5 225.466 270.858 225.466 275V327C225.466 331.142 222.109 334.5 217.966 334.5H205.526C201.384 334.5 198.026 331.142 198.026 327V275C198.026 270.858 201.384 267.5 205.526 267.5Z" fill="#28CC74" stroke="white" stroke-width="5"/>
<path d="M294 267.5H306.441C310.583 267.5 313.941 270.858 313.941 275V327C313.941 331.142 310.583 334.5 306.441 334.5H294C289.858 334.5 286.5 331.142 286.5 327V275C286.5 270.858 289.858 267.5 294 267.5Z" fill="#28CC74" stroke="white" stroke-width="5"/>
<path d="M179.472 276C179.472 276 177.992 255.285 179.472 239.117C180.953 222.949 188.356 214.36 194.773 206.781C201.189 199.203 217.476 188.593 229.321 186.572C241.166 184.55 246.596 185.056 258.441 185.056" stroke="white" stroke-width="5"/>
<path d="M192.138 274C192.138 274 190.913 256.927 192.138 243.602C193.363 230.277 199.486 223.197 204.794 216.952C210.101 210.706 223.573 201.961 233.371 200.295C243.169 198.629 247.66 199.047 257.458 199.046" stroke="white" stroke-width="5"/>
<path d="M331.512 276C331.512 276 332.992 255.285 331.512 239.117C330.032 222.949 322.628 214.359 316.212 206.781C309.795 199.203 293.508 188.593 281.663 186.572C269.818 184.55 264.388 185.056 252.543 185.056" stroke="white" stroke-width="5"/>
<path d="M317.863 274C317.863 274 319.088 256.927 317.863 243.602C316.638 230.277 310.515 223.197 305.207 216.952C299.9 210.706 286.428 201.961 276.63 200.295C266.832 198.629 262.341 199.047 252.543 199.046" stroke="white" stroke-width="5"/>
<path d="M179.366 325.048C179.366 325.048 179.306 332.5 183.238 340.5C187.17 348.5 193.5 355.87 204.865 360.5C213.509 364.021 228.519 365.048 228.519 365.048" stroke="white" stroke-width="5"/>
<path d="M190.612 327.499C190.612 327.499 190.568 331.905 193.565 338.002C196.561 344.098 203.085 348.972 211.747 352.5C218.334 355.183 229.442 356 229.442 356" stroke="white" stroke-width="5"/>
<rect x="227.518" y="350.5" width="34.3219" height="19" rx="7.5" stroke="white" stroke-width="5"/>
</g>
<defs>
<filter id="filter0_d_135_148" x="110" y="125" width="306" height="276" filterUnits="userSpaceOnUse" color-interpolation-filters="sRGB">
<feFlood flood-opacity="0" result="BackgroundImageFix"/>
<feColorMatrix in="SourceAlpha" type="matrix" values="0 0 0 0 0 0 0 0 0 0 0 0 0 0 0 0 0 0 127 0" result="hardAlpha"/>
<feOffset dx="8" dy="8"/>
<feGaussianBlur stdDeviation="4"/>
<feComposite in2="hardAlpha" operator="out"/>
<feColorMatrix type="matrix" values="0 0 0 0 0 0 0 0 0 0 0 0 0 0 0 0 0 0 0.16 0"/>
<feBlend mode="normal" in2="BackgroundImageFix" result="effect1_dropShadow_135_148"/>
<feBlend mode="normal" in="SourceGraphic" in2="effect1_dropShadow_135_148" result="shape"/>
</filter>
</defs>
</svg>
