<svg width="510" height="510" viewBox="0 0 510 510" fill="none" xmlns="http://www.w3.org/2000/svg">
<circle cx="255" cy="255" r="250" fill="#28CC74"/>
<g filter="url(#filter0_d_135_149)">
<rect x="112.5" y="127.5" width="285" height="211" rx="17.5" stroke="white" stroke-width="5"/>
<rect x="251" y="311" width="8" height="9" fill="white"/>
<rect x="371" y="178" width="8" height="9" fill="white"/>
<rect x="371" y="195" width="8" height="9" fill="white"/>
<rect x="371" y="212" width="8" height="39" fill="white"/>
<line x1="113" y1="293.5" x2="397" y2="293.5" stroke="white" stroke-width="5"/>
<rect x="143.5" y="221.5" width="27" height="72" rx="2.5" stroke="white" stroke-width="5"/>
<path d="M157 172.5L138 198L147 220" stroke="white" stroke-width="5" stroke-linecap="round"/>
<path d="M166 219L174.5 197.5L157 172.5" stroke="white" stroke-width="5" stroke-linecap="round"/>
<line x1="156.5" y1="174" x2="156.5" y2="198" stroke="white" stroke-width="5"/>
<line x1="146" y1="255.5" x2="170" y2="255.5" stroke="white" stroke-width="5"/>
<line x1="205.494" y1="222.173" x2="200.494" y2="294.173" stroke="white" stroke-width="5"/>
<path d="M227 223L232.493 291.819" stroke="white" stroke-width="5"/>
<path d="M205.689 168.343C208.456 165.807 211.968 163.694 214.837 162.406C215.965 161.899 216.926 161.551 217.653 161.35C218.752 164.543 221.292 171.419 224.452 175.933C226.229 178.472 227.242 179.789 228.368 181.251L228.376 181.261C229.484 182.702 230.715 184.302 232.966 187.453C233.509 188.214 233.965 188.82 234.342 189.32C234.413 189.415 234.481 189.506 234.547 189.594C234.967 190.154 235.254 190.548 235.505 190.95C235.976 191.703 236.402 192.611 237.129 194.791C238.527 198.982 237.999 203.098 237.129 205.71C236.296 208.212 235.053 209.991 234.021 211.467L233.95 211.568C232.645 213.438 230.138 216.326 229.232 217.232C228.348 218.117 227.965 219.316 227.758 220.122C227.547 220.946 227.409 221.858 227.296 222.6C227.288 222.653 227.28 222.704 227.272 222.755C227.165 223.453 227.08 223.972 226.986 224.357C225.04 224.942 220.781 226.016 216.009 226C213.268 225.99 210.477 225.747 208.382 225.248C207.323 224.996 206.582 224.71 206.136 224.447C206.029 224.384 205.957 224.333 205.91 224.296C205.832 223.89 205.768 223.496 205.701 223.083C205.686 222.995 205.672 222.906 205.657 222.816C205.565 222.255 205.459 221.636 205.309 221.03C204.997 219.774 204.46 218.424 203.268 217.232C202.896 216.86 202.531 216.51 202.172 216.165C200.93 214.973 199.756 213.846 198.57 212.097C196.265 208.698 195.154 207.039 194.453 203.513C193.663 199.536 193.976 196.77 194.482 192.305L194.485 192.281C194.842 189.124 195.305 187.422 196.367 184.306C197.727 180.314 198.661 177.655 199.951 175.304C201.203 173.022 202.839 170.955 205.689 168.343ZM205.833 224.227C205.834 224.227 205.837 224.23 205.843 224.238C205.836 224.23 205.833 224.227 205.833 224.227Z" stroke="white" stroke-width="5"/>
<rect x="258.5" y="201.5" width="39" height="91" rx="2.5" stroke="white" stroke-width="5"/>
<line x1="259" y1="220.5" x2="276" y2="220.5" stroke="white" stroke-width="5"/>
<line x1="259" y1="258.5" x2="276" y2="258.5" stroke="white" stroke-width="5"/>
<line x1="259" y1="239.5" x2="280" y2="239.5" stroke="white" stroke-width="5"/>
<line x1="257" y1="277.5" x2="278" y2="277.5" stroke="white" stroke-width="5"/>
<path d="M338.192 173.297C337.528 172.087 336.008 171.644 334.797 172.308C333.587 172.972 333.144 174.492 333.808 175.703L338.192 173.297ZM349.5 199.104H352V198.463L351.692 197.902L349.5 199.104ZM333.808 175.703L347.308 200.307L351.692 197.902L338.192 173.297L333.808 175.703ZM347 199.104V292.5H352V199.104H347Z" fill="white"/>
<path d="M333.827 172.764C334.51 171.564 336.036 171.144 337.236 171.827C338.436 172.51 338.856 174.036 338.173 175.236L333.827 172.764ZM322 198.604H319.5V197.943L319.827 197.368L322 198.604ZM338.173 175.236L324.173 199.841L319.827 197.368L333.827 172.764L338.173 175.236ZM324.5 198.604V292H319.5V198.604H324.5Z" fill="white"/>
<path d="M322 206.5C322 206.5 329.166 214.5 336 214.5C342.834 214.5 350 206.5 350 206.5" stroke="white" stroke-width="5"/>
<line x1="223.458" y1="338.455" x2="218.458" y2="365.455" stroke="white" stroke-width="5"/>
<line x1="286.44" y1="337.458" x2="292.44" y2="364.458" stroke="white" stroke-width="5"/>
<path d="M189 364.5H320C321.381 364.5 322.5 365.619 322.5 367V382.5H186.5V367C186.5 365.619 187.619 364.5 189 364.5Z" stroke="white" stroke-width="5"/>
</g>
<defs>
<filter id="filter0_d_135_149" x="110" y="125" width="306" height="276" filterUnits="userSpaceOnUse" color-interpolation-filters="sRGB">
<feFlood flood-opacity="0" result="BackgroundImageFix"/>
<feColorMatrix in="SourceAlpha" type="matrix" values="0 0 0 0 0 0 0 0 0 0 0 0 0 0 0 0 0 0 127 0" result="hardAlpha"/>
<feOffset dx="8" dy="8"/>
<feGaussianBlur stdDeviation="4"/>
<feComposite in2="hardAlpha" operator="out"/>
<feColorMatrix type="matrix" values="0 0 0 0 0 0 0 0 0 0 0 0 0 0 0 0 0 0 0.16 0"/>
<feBlend mode="normal" in2="BackgroundImageFix" result="effect1_dropShadow_135_149"/>
<feBlend mode="normal" in="SourceGraphic" in2="effect1_dropShadow_135_149" result="shape"/>
</filter>
</defs>
</svg>
